<mxfile host="app.diagrams.net" modified="2023-08-27T19:23:41.362Z" agent="Mozilla/5.0 (Windows NT 10.0; Win64; x64) AppleWebKit/537.36 (KHTML, like Gecko) Chrome/116.0.0.0 Safari/537.36" etag="HlpwiauzmnWyD5kvGNOW" version="21.6.9" type="device">
  <diagram name="Strona-1" id="SjsAuVHbUHgW0OEITMdw">
    <mxGraphModel dx="1793" dy="948" grid="1" gridSize="10" guides="0" tooltips="1" connect="0" arrows="0" fold="1" page="1" pageScale="1" pageWidth="827" pageHeight="1169" background="#000000" math="0" shadow="0">
      <root>
        <mxCell id="0" />
        <mxCell id="1" parent="0" />
        <mxCell id="i5l2RaEDFwldCkN0Oizk-78" value="" style="endArrow=classic;html=1;rounded=0;" edge="1" parent="1" source="i5l2RaEDFwldCkN0Oizk-1">
          <mxGeometry width="50" height="50" relative="1" as="geometry">
            <mxPoint x="900" y="430" as="sourcePoint" />
            <mxPoint x="950" y="380" as="targetPoint" />
          </mxGeometry>
        </mxCell>
        <mxCell id="i5l2RaEDFwldCkN0Oizk-79" value="" style="endArrow=classic;html=1;rounded=0;" edge="1" parent="1" target="i5l2RaEDFwldCkN0Oizk-1">
          <mxGeometry width="50" height="50" relative="1" as="geometry">
            <mxPoint x="900" y="430" as="sourcePoint" />
            <mxPoint x="950" y="380" as="targetPoint" />
          </mxGeometry>
        </mxCell>
        <mxCell id="i5l2RaEDFwldCkN0Oizk-1" value="" style="shape=image;verticalLabelPosition=bottom;labelBackgroundColor=default;verticalAlign=top;aspect=fixed;imageAspect=0;image=data:image/jpeg,/9j/4AAQSkZJRgABAQAAAQABAAD/2wBDAAUDBAQEAwUEBAQFBQUGBwwIBwcHBw8LCwkMEQ8SEhEPERETFhwXExQaFRERGCEYGh0dHx8fExciJCIeJBweHx7/2wBDAQUFBQcGBw4ICA4eFBEUHh4eHh4eHh4eHh4eHh4eHh4eHh4eHh4eHh4eHh4eHh4eHh4eHh4eHh4eHh4eHh4eHh7/wAARCAKpBAADASIAAhEBAxEB/8QAHwAAAQUBAQEBAQEAAAAAAAAAAAECAwQFBgcICQoL/8QAtRAAAgEDAwIEAwUFBAQAAAF9AQIDAAQRBRIhMUEGE1FhByJxFDKBkaEII0KxwRVS0fAkM2JyggkKFhcYGRolJicoKSo0NTY3ODk6Q0RFRkdISUpTVFVWV1hZWmNkZWZnaGlqc3R1dnd4eXqDhIWGh4iJipKTlJWWl5iZmqKjpKWmp6ipqrKztLW2t7i5usLDxMXGx8jJytLT1NXW19jZ2uHi4+Tl5ufo6erx8vP09fb3+Pn6/8QAHwEAAwEBAQEBAQEBAQAAAAAAAAECAwQFBgcICQoL/8QAtREAAgECBAQDBAcFBAQAAQJ3AAECAxEEBSExBhJBUQdhcRMiMoEIFEKRobHBCSMzUvAVYnLRChYkNOEl8RcYGRomJygpKjU2Nzg5OkNERUZHSElKU1RVVldYWVpjZGVmZ2hpanN0dXZ3eHl6goOEhYaHiImKkpOUlZaXmJmaoqOkpaanqKmqsrO0tba3uLm6wsPExcbHyMnK0tPU1dbX2Nna4uPk5ebn6Onq8vP09fb3+Pn6/9oADAMBAAIRAxEAPwD7KopaKAEooooAKKWigBKKWkoAKKKKACilooASiiigAooooAKKWkoAKKWigBKKKKACilooASilooASilooASiiigAopaKAEopaKAEooooAKKWigBKKWkoAKKKKACilooASiiigAooooAKKWkoAKKWigBKKKKACilooASilooASilooASiiigAopaKAEopaKAEooooAKKWigBKKWkoAKKKKACilooASiiigAooooAKKWkoAKKWigBKKKKACilooASilooASilooASiiigAopaKAEopaKAEooooAKKWigBKKWkoAKKKKACilooASiiigAooooAKKWkoAKKWigBKKKKACilooASilooASilooASiiigAopaKAEpaKKAEpaKKACiiigBKWiigBKWiigBKWiigBKWiigBKKWigAooooASloooAKKKKACiiigAooooAKKKKAEpaKKAEpaKKAEpaKKAEpaKKACiiigBKWiigBKWiigBKWiigBKWiigBKKWigAooooASloooAKKKKACiiigAooooAKKKKAEpaKKAEpaKKAEpaKKAEpaKKACiiigBKWiigBKWiigBKWiigBKWiigBKKWigAooooASloooAKKKKACiiigAooooAKKKKAEpaKKAEpaKKAEpaKKAEpaKKACiiigBKWiigBKWiigBKWiigBKWiigBKKWigAooooASloooAKKKKACiiigAooooAKKKKAEpaKKAEpaKKACiiigAooooAKKKKACiiigAooooAKKKKACiiigAooooAKKKKACiiigAooooAKKKKACiiigAooooAKKKKACiiigAooooAKKKKACiiigAooooAKKKKACiiigAooooAKKKKACiiigAooooAKKKKACiiigAooooAKKKKACiiigAooooAKKKKACiiigAooooAKKKKACiiigAooooAKKKKACiiigAooooAKKKKACiiigAooooAKKKKACiiigAooooAKKKKACiiigAooooAKKKKACiiigAooooAKKKKACiiigAooooAKKKKACiiigAooooAKKKKACiiigAooooAKKKKACiiigAooooAKKKKACiiigAooooAKKKKACiiigAooooAKKKKACiiigAooooAKKKKACiiigAooooAKKKKACiiigAooooAKKKKACiiigAooooAKKKKACiiigAooooAKKKKACiiigAooooAKKKKACiiigAooooAKKKKACiiigAooooAKKKKACiiigAooooAKKKKACiiigAooooAKKKKACiiigAooooAKKKKACiiigAooooAKKKKACiiigAooooAKKKKACiiigAooooAKKKKACiiigAooooAKKKKACiiigAooooAKKKKACiiigAooooAKKKKACiiigAooooAKKKKACiiigAooooAKKKKACiiigAooooAKKKKACiiigAooooAKKKKACiiigAooooAKKKKACiiigAoorA8YeLfDnhLTmv8AxFrFtp0H8Pmv8z/7q9W/CgDfzTc182eNf2qtFtg8HhDRZ9Sl/huL39xF/wABX7zf+O15TrHxr+Lfiq4ZLPUJ7JG+7DpcDJt/4F8zf+PVapsnmPuO5ura1jMtzPFBGvVncKK5XWPib8PtJfy77xjo8b/xKl0sjD8FzXxZ/wAIh8SfE0rteQateMzfO1xK8vzf+PVcX4QeJYWb7c1lZf8AXxeRQf8AobK1V7MnnPp/Uv2hfhfZy+WutT3Xvb2sjL/KoLX9or4c3MwjjudSXP8AE9rtFfN8fwxtIvmvPFmgQf7uoK//AKCrVYj+HvhXyt0vj3SFlb+FXdl/9Ao9nEXtD6TvPjx4BtrSO6uLq9jglO1H8jd/46Dmr+n/ABt+GN4ilfFlpEW/hmR0/wDQlr5Zb4a+HHX9x460Bm/h3Suv/slJJ8JWlXdZ+KvDs/8Ad3Xyr/6FtqvZxHzn2jpnizwtqij+zfEmkXmenkXsb/8AoJraV1boa+B5vg/4zRFlsba0vl+8rWVwkv8A6A1V4bb4qeGJi8EviTTXC9VndN3/AMVU+zDnP0C3UlfDnh/4/wDxP8OyrHfXaaoifei1GD5m/wCBLtavbfhh+0f4a8SXMWm+IrddBvZeI5Wl3W0jf7/8P/AqmVOUSoyUj3iimI6uoZeVan1BQUUUUAFFFFABRRRQAUUUUAFFFFABRRRQAUUUUAFFFFABRRRQAUUUUAFFFFABRRRQAUUUUAFFFFABRRRQAUUUUAFFFFABRRRQAUUUUAFFFFABRRRQAUUUUAFFFFABRRRQAUUUUAFFFFACZWs7VdY0nSImm1XVLKxjHO+5uFiX/wAeNfM37XHxZ13RvFdv4L8MapLp4igWfUJ7c7ZtzZ2pu7Lt+b5fWvnXbqus3W+eW7vpW/jldnb/AL6arjT5iZSsfbPib9oT4baKSkWrS6tJ/csIt4/76bav615/qn7VtvkrpXhCdv7r3N2q/wDjqq3/AKFXjui/CbxVdWyXd3Z/Ybdl3K9yyxL/AN9PtWtSHwD4SsPl17xvpsT/APPK23XDf+OLt/8AHq09nEnnOqvv2oPHEjf6HouhQD/prHK//s61Qk/aR+JMjfI+ixZ7Czb/ANmaqCp8JLDZ5Vpr+ruvysvlJAjf+hNTpvEXgW1XZafDlW+X79zfPu/8dWq5Ike0NCz/AGi/iIhcXMtjNuX5Nlqow1XJP2lfG0UMIt7TTZn2/vTcW7fM3+zsZaxF8e+HEXy/+Fc+H9m3b80srN/6FUUnjrw448v/AIVz4eVV+7+9n3f+h0Wj2K5jrtN/ah8TRlf7Q8OaZOv8XkSPG3/j26um079qbRmYLqfhXUYl/ie3nSX/AMdbbXkbeJ/BVzu+1eAII9zfN9mv3X/0LdQp+FN//rbPX9Jf/Z8qdF/9Baj2cQ5z6T0H49/DXV2KHWpNNfHS+gaIf99crXoWk65o+sw+do+q2OoR/wB+2uElX/x018QXXgzwnepu0PxnZM7fdiu4ngb/ANmX/wAerPm8DeL9LX7XpXmTp/FNp1yr/wDoDVn7IfMfoDuor4d8IfGn4jeDdSij1e+udVskbbLbXzbm2/7Lt8ytX2B4D8VaV4z8MWmv6PMXtblfusMMjLwysOxBrOUeUq50dFFFIoKKKKACiiigAooooAKKKKACiiigAooooAKKKKACiiigAooooAKKKKACiiigAooooAKKKKACiiigAooooAKKKKACiiigAooooAKKKKACiiigAooooAKKKazqvWgBWr4O/aY1a88Z/HnUdPg3SW+kKtlEob5V2/M7f99M3/fNe8fHv9ofSPAeizR+HLdte1TPlebEu60t3/6aSDgt/sivjfwr4+sbePWr/Vmmn1XUneV2RM7ndmZv/Hmq6ZMj0ezs/h3oMUT3Utzrt2q7mit18pFb/eb/AOJrT/4WpPpsTQeHtD0vSU/vsnnyfL/F83y/+O14/o7eKPELtHofh+/u2/vJEzKv+9XT2vw18WZVte1zQvDqbvmS5uk3r/wH5mra6I5Tb1b4heKtVRo77X76Rf7iSbFX/gK7Vrn5LyWT95KzszfxO3/xVbtj4H+HdsrNrnxG1DUHVvmi06zf/wBCbbWnHYfBLT5PLXw54i1QsvytcXSxbv8A0KjmJ5Tiv7RhDfNPaR/7TSqtH9q23/P9Yq3+1Otegw638MLPZ9k+FtjIu75fN1F2/wDZauQ+LfBoZf8Ai1Wgbf8Aru9TzMq0TzVdVgb/AJfrFv8At5WntO0rblaCTd/clVv/AGavS/8AhJvh7c/u5/hJpMjN/wA8rx1/h/3arTP8FtQ2Jd/Dm+tHb7zW19u/8daq5pB7pwMeo31m26Lz4G/vJuWuj0f4reMtMRYoPENzLD91obnbOu3+7tfdVmbwh8FL7c1jrfiTw/Nu27ZYN6r/AMCRmrKvPhetyzP4Y+J+iahu+7Fey+Q//j60c5PKdJN8R9F1pFi8R+DtPuf4mmsXa1fd/e2/Mv8A47XJ+MtJ8J3lrFP4TvL2Od2bzbO7Rdy/7rr8rVnat8OvilosDXcvhmTUrRPvXGn/AL1f/HNy1x83iSfTryJb7T7uBomVmV02stF0Vyn1h+yB8WNU1a/Pw58QO081vAz6fct9/YvWJv8AdXo3tX1HX5YN8RLvQvHCeKvCd9NZXafccRruXcvzblbcrV9U/Aj9rHRfEZj0b4gLFo2on5Y75OLaX/e/uN+lYSNIn1NRUFvPFcRpLC6yI6hldDkMKnqRhRRRQAUUUUAFFFFABRRRQAUUUUAFFFFABRRRQAUUUUAFFFFABRRRQAUUUUAFFFFABRRRQAUUUUAFFFFABRRRQAUUUUAFFFFABRRRQAUUUUAFFFFABRRRQAUUUUAFFFFABVe8uYLS3kubmdIYYkLyO7YCr61558dvi34e+FPhn+0NSAutRuMrY6ej7XnI+83+yq55Nfn78W/jL43+JV+x1zVWTT92YtPt/kgT/gP8R/2moA6XWr9/iB8V/EGsNL+4uL6WVWb+GJW+T/x3bXX6X8Rbzwzpa6d4c0/T9PZNyve+Qr3L/wDAm+7/AMBrw7wNqXiaK6e28OWsk9zcLs2pFvY/7q16ZpPwq8bPGLjxTrNj4bt3Xf8A6a6rL/wFPv8A/jtbRkZyiN1rxNq+rStc6nql3dlvvPNKzL/49WYut2kf/L9Erf3U3O3/AI7Xfaf4M+Emjok+oXOv+Krj+LZ/o8G7/eb5q6K38VeDtIiVdA+H2iWbfdSW7drhv/Htu6nzSFaJ5LDeS3X7u1ttWu93/PKDarf99NWvY+GvGF5+8tfBWsyr/Ezybf8A2WvTpvir4nhVPsdzaWMCr8qW1nEi/wDoP/s1VLj4o+L32N/bl3Gu3+/t3Uak6HGf8K8+JDfd8D33/fe7/wBlpk3w6+Jabv8Aiib5l/vKzV1Enj3xO86P/bN7IyMrKrO1V28eeJ1VZP7Zvcqv3vNb/eo1K5jj77wr48sYy8/gvVI1Vfmba3/xNYl9Lq9j8t5ouoW3+9H92vS4/iX4zhl/d+Jb3c21Vbd92rK/Fvxj5vlz6qs6fxNNAj7/APvpf/QaNQ908d/4SG23r5kskf8Avoy1q6T4oltZ1l0/UJIn/vQy7f8A0GvSbr4h6dfov/CQ+E9Cvv7zNb7Gb/gS1i6lp3wf1tv3+i6hoFx93dbS71X/AL6quaQe6Urzxpea1ZCx1jyL5GZV850XzV/4HXvX7JOqDRtV1nwPPcrJFKq6hYZbqv3ZFx/3zXzXqXw1ik/f+EPG1pc7W+W3uGaJ1/76rkfFVz8RNCv7e81Oe+tLi1/1F5D8jKv+y61EnzDifqlupa+KvgT+1Zc2c1nofj+5l1C0kKodTdFWWD/fVfvr/tfe/wB6vsyzu7e9tYru1mSWCZFeKRDlXVuhFYmhZooooAKKKKACiiigAooooAKKKKACiiigAooooAKKKKACiiigAooooAKKKKACiiigAooooAKKKKACiiigAooooAKKKKACiiigAooooAKKKKACiiigAr44/bP+Pd9Y3938OfBl35JRdmrX0bfOGP8AyxRu3+034V9BftD+Po/hz8K9V8Rqy/bdn2exQ/xTvwv5ct+FfmDEt9r2ryXFzLJPcTyGWeZzuYlm+ZmoAfolle6m7QLOYoM5ldydq13Gk/8ACL+HnTyNKXVLv73nXbfuv+Ap/wDFVhTTJDF9js12xKuGx/FSWzts/vf3mZq1iZSkdtqXjrxDfwfZJNQ+zWu3b5NsiwJt/wB1NtZMc7S/NIvmNWVC25lX/wBBardu0gX5vm/hX5a05hGtDKm5dzbfm+993/x6rcdxJ5v3lbb91masuNv4vlVl+Zas27fK6q3zN95WpDNyFVe4WNlWRv7q/Nub71WLiK7s2WKeCSCUfOqSoy/L/e+asZmUQM0bNGW+6w/hanaTfXdz9qnvp5J5t23c77moA097bFVlX+825tzN8tSKfKT7qts+9trNZ8Ttt/76oZ227WVt25v9r/gVAFpmZWT97tHy/f8AvLVSR1+b7saqu6lk3M27zPlZdzNVSR9jbNytu/vfd/3aANXT9Y1PSHhu9M1W7tJ1+ZXt52Xatb158R59atVtvFWh6N4gRvl865tdk+3/AGZU2tXCSSbm2syq33abIdy/NKzN/wCg1AD/ABf4H8Marazal4LnubaZF3vp138zbf8AYZfvV5RIksDtFIrK6t8ymvVobl0fzI3ZZf4dq1zPjmyS8lF9Ao85v9Yqr/FSlEqMj3v9jH45alYa3p/w48TXP2jS7w+VptxK3z2sn8Me7+43Qf3Wr7lBzX452V1c2F9Dd2kskF1buskUiNhkcHIYV+qfwM8cQfEP4Z6P4mhdfOnhEd0gP+rnT5XH/fXP0ZazLO6ooooAKKKKACiiigAooooAKKKKACiiigAooooAKKKKACiiigAooooAKKKKACiiigAooooAKKKKACiiigAooooAKKKKACiiigAooooAKKKKACiiigAooooAKKKKACsnxTrdj4c8O6hr2pyiKzsLd7iZv9lVz+da1fI//BQv4gT2Gi6V8P7CZo5L8fbb7b3gVmWNf+BMGP8AwCgD5W+Mfj3V/iP45vfEuqyMBK+y1t93y28Q+6g/z1zWR4L0F9d1VIDIIbcHMsp/hX296xbeN7icRIMs5r0rw+P7N0v7DAq7nXcz7fm3VUYkykd7o/iO28J2Daf4Y0+LT2+5Leqv+kv/AMD/AIf+A1mTX91eXTTzyy3MzK25nbd/tVzu7fFu+b+9VtSyov3m3fxMvzbasg145mkRt+7aq7l3bvvVIrs+0LHudfu7l3bf92qMa7lVfLkk3d9q1dh+dmdmbcq7V/vbasRZjkZ4mVtyru+bc1C+Yzfe/wDHvlWpI06rH8u1t21lprImzdu+Xb/u0DHtqfhC3s9uo61PZXaMyNE1q23b/e3fxVFea34Ka3ZrXxC07xL9zyGrj7pbGTxlEuqvFFaOzK7yt8ifd+ar/iyHwnp+kJL4f1jT7vU3dovJtom3bGVlb/Z/ioA22G6JZE8tl/iUN8rVRYtu8xnZmX5lZf8A4mpNFEo0mKO5Ty3VNrLu+7TrgeWvzNu/3f4aAM2STYrK3y7vvNVaS5b/AGl/h+SrFwu9fl+9/drPkfZL8y7lX5WVvloAGu5dqrG3zq3ytu+ZalbxJeJA8ErrPE/ysky712/NWfM1sI12o27+/u3VmyfN91m3K25loApa1pkTsbvTl8s/eaJa+rv2Fvi5PeD/AIVpr8+XiVpNKkduVVfvQf8Asy/8C9q+WC7LIsn3drbvl+7WhHd3nhTxRo3jDSH8iWK4SXKdnVt3/j1ZyLifqtRWd4c1SDWtBsNXtf8Aj3vbdLiP6Mua0azKCiiigAooooAKKKKACiiigAooooAKKKKACiiigAooooAKKKKACiiigAooooAKKKKACiiigAooooAKKKKACiiigAooooAKKKKACiiigAoooPSgD5A/4KQa7s0bwp4cjk5nnnu5kHoiqq/+htXyr4Yh+zaDNefxyvtX6LXqv7e2unVvjtJYK6tFpOnwWwC9mbdK3/odeaqjReH7G327dy72FHUTKH33b95u3VPb/eb/ANB2/dqNYlVvmb5dvy1PH935vu/3v71dBmWIdy/+y1ej+793bt+X5l+aqSrn5ty/L/DVyNgWXcqrQBcj+98+6rEMar8vzL93/aqvbo2/crfM38O6rUMbPt/+Jb7tABIuIG+RvlX5mX/vmrvhvS9SvoLq5ttNu5YVl2bkRtu6oprfzrMwfNGzJt3q3zLWbZ2/ibTovKsfFmqW0Ktu2RSsqr/wFWoA6TUNN1OzRJL7T5rZHb5WlXbuas/94Ny7drMu5V21Xkm1i7u4ZNa12+1RbeJooPObdt+arFvtZ3WWSRVb7rL95aAIpGbzW27vu/NuZv71QbflZvm3bf7tSyHZt8xfvfe3NTJj8q7tv3V3KtAEOfvSMv3V27tu6q8jyFlZd27+H5V+WpJnXYyr/e/4CtQsqoNzfe2/e2/NQAkknzKzbty/7NVtUb90rN8y7t1St8ybvm+Vd1VrhPNiZdy7v71QBx3iG2+y6rKg+6eRX2f/AME39bkm8MeKvD78rZ3UF0v/AG1VlP8A6BXyB4vj3C0uv78eDXuv/BPfX/7P+MV9o8krLHq2nOqp2aSM71/8d31kan6BUUi/dpaACiiigAooooAKKKKACiiigAooooAKKKKACiiigAooooAKKKKACiiigAooooAKKKKACiiigAooooAKKKKACiiigAooooAKKKKACiiigAooooAKKKKACiiigBGr80P2ztf/ALf/AGgtf2SmSLT9ljH/ALPlr8w/77Zq/STVbyLT9Nur6ZgsVvE8rsewVc1+RPivVZdc8T6rrdy++e/vJbqRv7zO5Y/zoAseDIFm1fe6hhEheuts3lkX5tvlK25tv/oVc/4MjCWN9ct/soK3bWP9wrLIq/LWlMzkX49qN8+3cq/99VbUs8u3cu7d/DVC3O793u/h+Vvu1at3dvkk+X+Ff9mtCS3G2Gbd8yeq/wAVXoXX5dy7mZapqjblXbt2/eVqvW/lrFub5m/h2r/6FQBb3q7L8yt8q/w07fK0RV2+Rdq/d/vVX3ujbYmVVVf4VqK4ld2b+821mVfloGc1rCaffeI4o7qVZZmdont2XbtRVTY27+Jm+b/vmrl5o2h6XBNKRaWizwSwGV0Z13NGzJt/utvVfm/hzWitvAbj7S8EXmr/ABqvzf8AfVWGMc0WyeKKRPvbX2tU8ocxDpb+fpNvL8su5FXcrfe2/wDoVNuvnZlk/g+arC+WkSrHGsaIu1VRdq1UuGfcqyLHIu7c3zVoIpXHzL823b/EtULp0dvli2/8Bq/N5i/NH8q+9Ubhk3RLH97+L5qkZnyOr7d3zbfmamTDd5qttV938NWVVP8Alpt+9/E3zN/wGqzbvm+bd833tu6gClJu2/N8rfdrQkh+2eBr2P7z27rKtVWCsp2/f/2v7ta/hFFuFvrFvmWeBlWs5/COPxH3r+yhqza1+z/4UupHDyx2rW7/APbJ2Rf/AB1Vr1SvmT/gnzrH2j4ZazoLt+90vUycf7Mq8fqjV9N1maBRRRQAUUUUAFFFFABRRRQAUUUUAFFFFABRRRQAUUUUAFFFFABRRRQAUUUUAFFFFABRRRQAUUUUAFFFFABRRRQAUUUUAFFFFABRRRQAU1vlBanVj+M9Sj0fwjrGru21LKxnuGP+4jN/SgD8ufjNq7eJ/jR4n1SMMy3erSiLPXYH2r/46oqzriKk8UHzfukVa53wujaj4tSaUMWaRp2x/wB9V0mrfvb6Vt21t3y1UfiEzPxtVfvKzN8u2lhX5trf3v4qeyN8q7W2/wB2p4V/vfL/AA/drYzHQoqp977tW4Y1UqzN5jLTY02Mv3W3f3av2sedv3drfLQA+FW/uyL/ALS/eqxbrK+xl3f3fu0Qx7/ur8y/eX+GtDT9OvLh1jtbO5uW/uxRM27/AMdoAr+TuVW3bX/iWl27m2xMu7b83/fX3a6T/hEvEKL82kahEv3d0tsy/wDoVRf8IvqqPs+xyLKrfMrsq/8AAqAOcaJw+35lb+FVb7q0qrGnlMrc/NuX7zba6W38Ja9MrtFpU7N91miXdUNx4T8QwuzS6Dqm1fmZ2tX20AcuojT5mkZl+9tWoJN2xZNrfe/2mrQuraSP5JFVX+beu1Uaq7RKW27W+7sRV/vUAUmbbL8zNtZf7tMmC7HVlkk+X7277rVYmtlRJY9sjOu3/Z2/7NVmST/V+Uu5qAK8jI27du3f3qgZl2sqszfL92rTHLKqtubd/wB81A3l7lVVZm3feZv/ALGgDH1+NpfD6v3glrT/AGetfPhj41eFNZ3hI4tRSKVm/uP+7f8A8ddqhkjaay1G1PzfJuUVxto8kFwksTbZEbcp9CKx+0XE/Y5fu0tYvgjVYdc8HaPrMLbkvbKGdf8AgSA1tVJQUUUUAFFFFABRRRQAUUUUAFFFFABRRRQAUUUUAFFFFABRRRQAUUUUAFFFFABRRRQAUUUUAFFFFABRRRQAUUUUAFFFFABRRRQAUUUUAFFFFABRRRQAUUUUAeY/tQa63h/4DeLr6Nd0kunvaJ7ef+63f8B37q/LduWr9Af+ChWt/wBnfBuz0mN9r6pqaIw/vIis5/8AHttfn8vLUAdx4eh8nw7F2aZ81rRpI3zfMvy/8BqKGDydLsrb5V+RWartujKGRfmb72WrSHwmUhsKSfxSbtv3atRr8q7VX733qdCjBd33m+98y1bhgkdWkaJtzN8u1V+WtALEZtpU/exMv91lp7bX3KrbVX7v3fu/7tOhg2RIrMrOta1vod8YFuWspY7dvuyzKsSN/us23/0KgRjqF8vazMr7trfL/DT/ACV3K23d/wABrd+w6dbvs1DXNGsfm+ZjctPt/wC/G9qimvfB1ncbf+Ela7i3fetrB2/9DZP/AEGgfMZbWmfm+Zm2/wCd1KsO/c21lVf9mtBvEPgmF9y3ms3Lfwr9hiTav/ApadJ4q8DszLt8QRqy7f8AUQbf++d9LlAy/JkX/lmu3+L/AGqptDtVvvMzL92t6HXvBZg2yahrMbbv+fGL7v8A39oW78HXPyx+I1gVV3Yu7GVNzf7yK9MRyVxCzRfvPvf5+Ws+RFZvlZfl+X/gW6u1awtruJ1sdR0e5RP4luURmb/ZV2Vv/HaytU0LUY90kunypEr/ADS7dy/d/vL8v3f9qgZy8yyK3mszbm/2vu1Uk2iT5vl/vMrVqzW0nzKkbbf7q/w1UuIfkX+7/sf3aAKE0S/My/3aueG5fs2uW7fws21v+BVBIsh+7/e21XjdorgS/N8jVEtij6J/Ye1Q6T8aPFXhppSqajarcIn95o2/+Jdq+1q/Pj4J366J+054P1Nm8uHUVa3f+62+J0/9C21+g9ZFi0UUUAFFFFABRRRQAUUUUAFFFFABRRRQAUUUUAFFFFABRRRQAUUUUAFFFFABRRRQAUUUUAFFFFABRRRQAUUUUAFFFFABRRRQAUUUUAFeV/tX6smk/s/eLZmk2NPZ/ZY/9ppWCY/8er1Svmb/AIKGauLP4P6dpEZ+fUdWTd/uRIzN/wCPbKAPjL4ZW+b28u2+7FDt/wC+q05E8y6Zmb+L7zVN8O7PyfCl3dMrKZn27v8AZqSaGCMLLdXMVtEzfedtv/jtVDcmRT2KF+627+Fv71XbHS7u6f8A0a1kZf4nPyqv+838NZ11rMKvt0e1aRlP/HxcfKv+8q//ABVW9P0XxL4j2xu15cp/Ci7liX/gP3a2IL0h0OxZlvNXWW4V2XybJfPb/vr7n/j38NOh8R6NbqyWmgy3v917ufZ/46n/AMVXWaH8KdNs1WfxLrVlpqf76s//AHzXTx3vwW8MIqJBd63Mq7maJPlZv+BUAeeR+JvF93tj0zStPsov4Ut7BWb/AL6dWb/x6tuPQPi34giffda3LE7fc891T/vlW211s3xv0iwVV8OeDNPttjfK9yrO23/gO3/0Ks+8/aD8cPuWzaxsk/hWK2X/ANmoAzbP4FfEO8+d7Fl3c/P97/x6tJf2cPiC6/6uBf4cNWZdfHD4k3DbW8RzxfLt3Iqr/wCy1Wk+M3xK81n/AOEsvv8AgLbagDWm/Z1+IkW7/RI2Vf71UJPhL8UtBZpLO1voHVt262d0b/x2m/8AC7PiVFKsqeKL1vm+VWZWWtG1/aE+JdsVVtXinVP+esCUFGHqGofFvSk2Xl3qk8Kt9y9X7Qn/AHzKrVkzeNnm+XX/AAjpdzNt/wCPiGJ7R/8Axxtn/jlel2v7SHiB9keteHtB1RP4me22tWnH8UPhJ4j3J4l8GNYu3/LW2VWWnzEnjlvq/hK8ZVabUtJnZvmZ0W4i/wCBMu1//HWq6vh+e5gd9DvLTWYdv3rF2Z0X/aRvnX/gS16hffDT4ReLVVvDHiy0tLh13JDcMsX/AAH/AHq4DxV8DPF/h+X7dpjS3MSfMstu25f++lpAcfJa7ZW3bty/K1MmhaNWXd/tfeqxNrXiXSne21/Tl1CLd87XcTea3/bVfn/8eq2t34e1Vl/syeXT5dvzWmoSrt/4BLt2/wDfW2rAxrWNv7SRm+5KrI1cFNC1vezRN95HZa9K1S1lsrqLz4midGX733WX/Zb+KuK8bRfZfEMxUfLKqvWL+IuJ+jf7IuoPqP7PnheSRtzRRSQZ/wByVlr1vNflR4S+KXxC8N6LFpWheK9U0+wiZmit4ZdqLubc361s/wDC5/isfm/4T3Xfm/6eafKHMfp9RX5g/wDC5Pip8rf8J7r3/gU1E3xj+KO3cvjzX93/AF+PS5Q5j9PqK/L7/hcXxUZtreOPEHzf9Pj0v/C3Pift2t468Rf+B8v/AMVRyhzH6gUV+X//AAtj4l/xeOvEn/gxl/8AiqF+KPxLlDMvjjxRtX7zLqM/y/8Aj1HKUfqBSbq/MCT4l/EnarN448UKv3dzanOv/s1Rf8LL+Im5t3jjxN/4NZ//AIqjlJ5j9RN1G6vy6X4i/EKWVUTxp4mkc/LtXU52/wDZqmbxl8S3LK3ibxX8i7m3X0/y/wDj1HKHMfp/uo3V+WjePvHBbb/wmPiL/gWpy/8AxVRf8J543Pyt4t8Qf+DGX/4qnyBzH6ocUmfavyx/4TPxsU8z/hJvEG1vun7dPt/9CpjeNfGaNtbxRrse75vmvpV/9mqfd7mkqdSMeZxP1S3Ubq/Kr/hL/FRYs3iXWWb+99ul/wDiqa3ibxHK26TxDqzN/tXj/wDxVPlM+Y/VdmxUUc8Uoby5Efb12tmvytXxJ4jT7niDVl/3bx//AIqtvwv8TPHXhlmbStenXLbv33z/APjzfNRyhzH6e0V+e8P7THxZjiSNNWtF2t99rVWZv++t1X4f2qviunytPo03+09h/wDEtRyj5j75or4J/wCGq/iwf+WmhL/24t/8VVvUP2k/i7b2iXP9q6Ayv91YrHdRyjPuuivz/k/ah+Lzfd1PTV+lglEf7UHxdAKtqelybv4msE+X/vmjlJ5j7+zxTS646ivzy1D9oz4rXwaOXWrZVZf4LZVrjtW8YeOvFt0qXer6hduvzLFCzIq/8BWrhRlOXLEmVSMVzS2P093r/eX86DIg6uq/jX5eJY+NomZkbVQy/e2ztuX/AMerPjm8QT3ZtY7rUJLhf+WbTtu/9CrSeCrU/iizOniqM9YzR+qXnxf89U/76o8+L/nqn/fVflt9k8WfazZquq+djOzzH+7UcUfimcSeU2ptsbDt5j7Vb/ep/Ua38rF9co/zo/U7zov+eqf99U1rmBfvTxD/AIHX5YXreJ7SFZ7iXVIo2+XeZX2/99U5E8XyxJKDqYRvus0rLu/76aj6lXvblD63RtfmP1L+023/AD3h/wC+xR9pt/8AntD/AN91+WjDxcLyK0f+1VuJfuI0j/N/u0Rv4nk1L+z1fUvtQ6x+a25aPqVf+UX1uj/Mj9TPtVv/AM/EX/fYpDe2Y63cH/fYr8ubdfF80kyQHVWeFsS/O3yN/d+9TLiHxemx5zqSh227/Nbbu/3t1P6jX5ebkY/rlHm5edH6k/bLP/n7g/7+Cm/brP8A5+7f/v6K/LlbHxjMjMo1B1T5m2z7tv8A49UKWvilrEXezUHt3+66SMaX1HEfyMX1yh/Oj9TP7Qsv+f23/wC/i0z+1NO/6CFr/wB/Vr8tjY+JTbNdNFfiFW27izClbRfEp27re6DN90O+1m/4Duo+o4j+Ri+u0f50fqP/AGtpvfUbP/v+tH9raZ/0EbL/AL/LX5WtpuutffYVtL7z8Z8r5t3+9Uq+H/FEkrRJb3TSr95PN+b/AL5zTWAxD2gN4yjHeaP1MOsaVj/kJWf/AH/Wk/trSP8AoKWP/gQn+Nfk1cNdxTvBK86ujbWVmb5WqrJJO3zebJ/33WEqfLudEZc2sT6f/wCCiviS3v8AW/C2g2dxBMlrBLdOY3VuZGVR/wCgV8qaXD5+o28Q/idabdlmKlmZvcmtXwLB53iG3Zl3LG26pZR6DJDuugvl/dXbt2/eq1awKvzMu1m+6v8AeqzH/ZlmXu9a1BbSH72xFWWdv9xP/ittUZPFV5cXDW3hXTGtImXas0yLLct/tbtu1f8AgP8A31VxIOgh0L7JZrearJbafaN8qzXTbd3+4v3nb/dWqF54n8K2L+Raxahq7K38LfZ4G/8AQnb/AMdrS8K/CTxV4muP7R1qeWKJl3vc30rbtv8AvN96vUNP8H/CLwTapJrN8uqXX8SxMrfN/dqyTyaz17xxrk623hrRbbS0ZvkSxtvn/wC+23P/AOPV1Gm/Ar4l+J5/tmsyyxzO21pbt2Z/++m/hrsdW+OulaPB9k8K6DZWSr8u5o9zf+O1wXiD42eNdULbtVuYlb+GFti/980BE7/Sf2X4oU83XvEcUSqvzqrfd/8AHq0Y/gz8JtNg3ah4tttq/ebz1/75r5+1Lxbrl+267vp5G3fxO3y1lTX91NL+9uZG+78rNuoA+nY/CfwGs0+bWopWVvm/3v8AvmmSaD8CAu7+1fMX+J9rbV/4Ftr5gaaU7tzSbvvL83y0nmSq3zO27/ZaoA+lrjwX8D7xttt4jgjZl3L8zMqr/n+9WZN8GvAGqNt0bxfp7O38O/8A+yr56aedfuyf8C3U2O/nR/llZWWgD2XWv2fNQiiaXTtXgu1/hVG+b/vmuJ1DwH448Ku8tm13bbl2s0LMm/8A3tv3qw9P8W+ILBle11O7i2/d2Oy11Fj8XvFsKKk99Hept27LhN1WBzd54g1yJGttc0y2vW3f614PKn/77Tbu/wCBK1Ure/0y52xfaZLF2+81wu5P++l/+Jr0tfiH4X11fK1zQYonfarPD8y/721qy9U8HeF9ZSWXRb6NTuVVG75qCjhbywlRGnaNZon+7LE29G/4EtZs1vt+Zfm/9lrW1Lwx4h0CVntmlVF+ZtjfK3+8v8VZP9oxlFjvrZonX+NPus3+0tBJ0d1dNZWHhXxQu5Tpt+juy/3VdW/9lr9LreVJreOaNgyOoZWHcGvzN8y2vvhzqVmskcjxMsqbW3fxV99/ADXD4i+DPhXVXdWkk05Ekwf4k+Q/+g1zmp31FFFABRRRQAUUUUAFFFFABRRRQAUUUUAFFFFABRRRQAUUUUAFFFFABRRRQAUUUUAFFFFABRRRQAUUUUAFFFFABRRRQAUUUUAFFGa5T4leO/DXw/8ADsmteI79YIl+WKJfmlmf+6i/xNQBu6tqNjpOm3Go6ldw2tnbpvmmlfaqL6k1+fX7YPxg0z4m6/Y2GgRy/wBkaV5qxzScfaJGZdzqvZcL/FWF8d/jd4o+Jt4YbyX+z9Ejfdb6dC3y/wC87fxtXmmn6Zc6jOv7tmVvuotVGIGnp/ie+j0WLSNPto1VPvSvzVvRfDOoaxP587SSszfM7/drd0/RLHR4BPqLLu/hiWmap4juZVaCzjW2t/u7VWqiuUzkbVvpfh7w8rS30q3dwnzLEtRX3j3UPKaDSEXT4du3ai7W27a41izvukZm3feZvvUbc7v/AB2q5hFi6vrm5laWeeSRn+8ztuZqFHzfKy7f9mmKv+zT1VV20gHdF+b7tJhf+Bfw05cqu6nqqnd/eoKGRhv71PX7zKyqtPVfl+7Rtb5loAjZW/urhlqJk/2fu/xVY2KG2tQyL8rKu3/gVBJWbcvzfKqr/tVEzMzLtXcrVZZFZVVvm2/+O0xkb727aF/2aAEjmeF12M0bL/daup8H/Ejxf4Zf/iXa1crEv3oZZN6N/wABauSYNRj59qs25qAPcLf4qeHPFES2njHQYI5X+Vrm2jVW/wB7bWXr3wp0rXbV9T8HanFcxbd/k/xr/ssv3v4q8l3NtVdq1p6HrGo6PP5+n3MkDf7DfeoApaxa+JfDm+xn8xrVW/1L/Mv/AAH+7/wGuZ8Q6hLq0sUjwKsqLsbbXudn40sfENv/AGf4qto5XPyreK21l/3l/irj/GHgaPb9s0pllib+JafKUeaRwMsQXcrbasLEdq0+6tJ7R9rJt20+3kWRdrD51/ho5gI1Rv7tTRpvZFl/doq7dyrVpYd38FSrbt/CtQBuW8unrZ2765ol3qVw0W2K4d3T5F+VV2q38K1z0kNnNO7Nczxqzfd8rdtX/vquik126+xW8FpE0UsUXlec0rM3/Af7tYvkNu3bWz/eqhkLW+nhl23c+3+L9x/9lWn4fRYluFZbm7012VZ4WfyEdl+7ubd/vVS8hl+XbWno9+ljZ3FpPZtKkrK24SbWX/vpWWgBviSLT/NhSKxudLh2btm9plf/AGlZmrJ8mz2/NdT/APfpf/iquX3kTy7ra0+zRKu1U8xn/wCBbqiWFv7tAhkMUUdwklreXMcyyKyOqqjK38Lbt3y102oPG+l3Eq6ZNE//AC0vUvndtzfxbd+1m+9WHZr9nvIp/Kjl2MrbH+63+9WnqWopdQuqWLK0jfKzzs6p/ur/AA0Ac/8AZtP+99pu2/h+aBf/AIqmSW9jtTZPc/N9790v/wAVV3y2/wCA0eS2fu0AWtJmTT9JadY5J7fzdm+WP7rf99VlagsE08s6SSs7N91k+VV/76rZt7totJfT3s45VaXzdz7vl+WqP2dt33aiNKEZXR1Tx1arSVOb0RnrGx2/w0/Ztq75Df3aPs8n92rOUq7NvzLTWRqueSx/hpfLbbt20AUlRt27bRs/hq7sZl27WpGhkX+GgCfRdEl1CK4uW/1UC/31Vmb+7Vm4eMWGky/LFbszq6Ku5flb+7Wd5LK33W+b+7VmS4upLKKzkVWhiZmQKnzf99UAUtQS2a8laxZmgZvl3Lt2/wCzVfy2q2sP92Nqd5LH+GgCkqfM1bvgnVotE1pbq5afyWRg4i/irP8AJb/nnTWhk2/6tq1oV50KqqQ3RjiaEK9J0p7M7bWte8M39w9wl5e27nnNtBsf8W3VxTSwHWWuZWu5YVfcrM/71v8AgVL9nk/55tTWtn/ijau3FZrVxUlOS2OLCZZSw8OSLZ2MfxFMd3Ft0rdbRJsVS+52/wCBVgP4gsJnuvtumTsLiUuGiuCu0N7fdrJaBz/D/wCO037M38K1c85xM/jf4E0smwtL4Fb5m7P4sii8OnRNKsXSNm3NJPLvan6n4rsdZhtk1fS5TNbrtDW82Fb8K577M/8Azzaj7K38KNWf9r4nq9OxpHKsPulrvc6m48fSS6vpsy6cqWtju2x78u24Y60xfH12niRr/wCxx/ZGH+p2ru+7/f21zX2SX7yxtR9jf+43/fNV/bOK79bkf2Lg3py9LHR6f43NvqeoXBspTDdy7wiz7dnH/fLVF4o8WQatpH9nxaTHAxZWaZm+b9Kwfssv/PNqctq/9xqcs4xMqUqd9GOOT4ZVVUtqvM0/A/iRvDn2vdatcrcRqv39u2neE/FN3ojTRFGuLObcxhZ8Y/2gay1s5Vb/AFbbqPsku7/VMtYQzHEQULPYupluGqc/PH4/0N3X/GNxqctisNsbe2tGUrHv3b2Vu7VT8Va+2s67b6kts0AiC/Lv3fdbNUGtH/hib/vml+yPj5o2b/gNXVzPE1L3e4Ussw1Kzgtv1OkuvH1y+tRalb6fFGRF5TxO25XXdu+9UOn+LbOz1RtUj0ZluJNyvi4JX5v9k1gNaSn/AJZN/wB801rWX+KJv++a1/tjFXu2Z/2RhUrRXkVtalW+1S5vlTyvOlZ9m7dt3VnyR1rNat/zzrJ1J/n8qL/gW2vMqSlKXMz0oRjTioopTJE6MrM29W+X5flqxocWpM+2xeSNW+8wrW0Hw9c6jcIvlsys3yrXrWg+HtF8NRLc6uqyTfwRL/C1RymhzvgX4bX2qzrdX0jRw7dzSzN95a9L0vUvCHghg2n2kd9dKu3fKvyrXE+JvF15fxeQjeVbr91E+7XJXE7vJ8275qZJ3/i74m65rC+QtzIsX8Kp8qqtcFdX13cMzO+7d8v3qiZtobcy7vu7ai3fKu371WSO+bczbm3f7tSKrN/wGoZJI0ZdzfK3+1TPttoPm3x/L/doAu7F27fl3f8Aj1DRcMzf7NVG1WzVfvxsv+9Uf9p2v3t/mbvvfw1AF1U+Zvm3fL8q0xj827d/wKqjajAzLtZW+rU3+0Yvvbo/++qsB8jMX2r8u6opNx3Lu/8AHaJL+BX+8v8A31UbXtt/DL8v96oKJG8z+Fvu0Lyrbt3/AAGq/wBsgX7r/NR9si/hK0AWN7L/AHqnhu54X+SRl2/w1VhmV/7rbv71Ob/9paAOs0vxrfInkXn+lxN/C9S30Gh6+rNEqwTf3W/vVxm6nQ3MkLblkZW3UAO1jQbzTmd7aRtv95G+9XpH7Pnxy174aSppF2jah4fL/NaO/wA0G5tzNE397/Z+7XGWetSFGiudsyN8vzUzUNKtrxPPs/vUhn6S+A/F2h+NfDtvr2gXi3NnMP8AgSN3V1/hauir8x/hj8QvFHwy8QjUNHuWWJmX7Rav/qp0/usv/s33q/QH4S/Efw98R/Dy6rotxtljwt1aO37y3f8Aut6/WoaKO3ooopAFFFFABRRRQAUUUUAFFFFABRRRQAUUUUAFFFFABRRRQAUUUUAFFFFABRRRQAUUUUAFFFFABRRRQAUUUUAFFFY/ivXtN8NeHrzXdXuFt7KziMsrn+Q96AMP4tfEDQ/hz4Sm1/WnLL9y3t0+/cS/wqv+NfnL8XviLrfxC8XXGuavKzO7bLW2Rv3dun8Kr/8AFfxVp/Hb4p6z8SfFz6jdu8VmjMmnWIPywR7v4v8Aab+Jq5/wn4be5b7VdL8n3mZqv4SSp4b8O3N/cLK//Anb+Gutku7HQYPItVWa42/eP8NR6xq8FtEtnpyrGq/KzCuYuGaRmbd8zfxNQImvLue7n82WXc1RL/vf8Bpir8y/dapdimqJHYVW2tUiop/+Kpqqv8LL8tPVtvy0FBtwu7cqqtIs+5WZVkb/AIDUWreb9kuJYhuWBN7f99ba5Tz7lz/r5Wb/AHqkUTsGu2Hy+VL/AN+6et3jd+6kX/gNcer3W3a0kjL/AL1MbzP70lXyjOz+2KfuxN93+7T1vv8AplIo/wBquIYsG/i20LFI27bub+LcrUhcp2v25fuhW/8AiqY14u7b5Tf99VxWG/2vl/hpG37t25qBnZ/a/m+VG+WhrmTd/qmX/vmuMXzf4Xb/AL6qaPzd2GeT/vqgDrY5t7MvzK3+1UuPmX5vmrM8I28lzqXkKzfNE7bWb+6u6tlVUr93/vmgCLZ8u5vvUYYfdWrGPu07Z8v+038NAEK7v8/w1u6Hrlzp7bd7SRN/B/erHVV/u0Lw23/0KnzAdNrGlWet2bXNoqq7fMyV53qmlz2Fx8v8Df3a6qxvJ7WVZI5WX/dati4S01uzbdtWZVb/AIFSA6f4F+AtD+JFq1tFq9taarB8z2Uu5Wdf7yf3lr1Fv2a7RF+bV7b/AL6/8dr5k0251Pwl4gh1PTp5baaB9ySo21lau7s/HGvXsH26DWrlX/5bwrOy7W/2fm+7QB6+37O+ixxsz+IbT5WX5vNWoG+AHh9G2t4o0/733fPXdXkkmt6hIqMt1Kv/AANqSHW75V+W8nVf4l3NQSeuf8KG8NfxeJtP3f8AXf8A+xqWH9n/AMOMreX4m0+T/dn3f+y15DHrepbWX7ZKqf7LttahdYvv4b6dfvNt81qAPY2+AOgrtdfEGn7G+787f/E0i/ATw/uZG17TWb/Zdq8f/tvUAv8AyELn7vaVv/iqP7b1Jfl+3T7f7vmtQB7GvwJ8NMi7fEFirfxfvKP+FFeGNvzeI9P3N8v3m3f8BrxptX1A7m+3T/7xdt1Mk1nUZW2/brnb/vtT5Sj2iP4G+E3ZY/8AhI7RXb5tvzL8tSt8DPCD7U/4SC23IvzbW+7urxBtY1Dbta+l2/77VCur6gIlX7ZP8v8ADvo5ST3WP4IeB23f8VHaf7XzUv8AwpXwEm1W8S2n3dzf3dteEtq99t+a8nb/ALafeqKTUrw/N9qm2t8rfvGo5QPoGP4IeAzs/wCJ9H/vbW/ytOb4J+AEVd3iODd/tbV/9mr57a/nZW3Tyf8AfX8VEd5L8v71vl/2qOUD6Ej+Dfw3b73iW0k/vbZVb/2amN8Ivhsr7U8R2kjL/Csq/L/49XgP22dm/wBbIzf733ab9unZflnk/wC+qOUo9+/4VF8N9m9tegk2/KyrKi7f+A0xvhV8NLdW365HuX737xa8Ca8k3/LLIv8AtM22nNeThNqyyL8396jlA99b4Y/DRNv/ABPIlZf4fNXc3+7SL8Nvhed27XI9y/eHnr8teB/bJfu+ZJtXtupGu5WVd0sn/AWpAe//APCsfhXuH/E8gb/aWdfm/wB2kk+HnwpV1VtYj/vffWvAPtco+7LJub5fvUNdT7VXzZG/vfN8q0+UD6Db4cfCRPlfWLbcq7uJ13baY3gD4RBWb+14/wDZ2tur5++0yrt/eN/s1H9pkYfLKzN/vfLS0A+g28DfCJdzNrMe1f7sm7/0Gk/4Qj4SFj/xN4lP3fmkXbXz/wDaZR/y0k2/71R/bpNy/P8A8B3UAfQjeCvg2j/PrXy/3t3/ANjVeTwf8G1P/IY2ru+b/O2vBPtki/Osn+8u6mrfyOu5ZZFX+7up6Ae+f8Il8HW+7q//AAJmVaVvCvwd/wCWer/L/vLXgLXUu4/O+3/aaj7Yx+Znbd/stUAe+R+Ffg0y/wDIa2r/AHmZVqWHwn8GyjM2pqu3+Lb8tfP5uXLffb5f7zU7zv8Aptx/vVQH0Evhb4N/Kv8AbKq27cqtt+ao18M/BsMFbWF+X73y7f8A2Wvn/wC0f3m/2fvUn2hgu5Wbb/vUEn0DJ4e+DMTsv9s7v4W/2m/75pzaR8GNzbtSZf4lZv4f/Ha+eWu23fek2t/wGhriVfut/wB80co+Y+gfsPwYg3N/aUsiq3/PLdu/76Whh8EYm2+fcsPvbvIbb/6DXz79olZvmdt3+9Tlk+T/AGqBn0HG3wPd/luLnd/tQNt/9Bq/DZ/A2Xai3Pzt8u5kavnWN2X+7/wGjVNbXRLPZbP/AKc6/K//ADyX/wCKoJOi/aMv/Bml3q6D4JiWWX/l5uVX7rf881/2v73y15j4T8NT3s6My/eb7x/hq3oelXOq3/2m63f3tzfwrXW3GowaRa/ZrHarfdZqkouedp/hy1WK2h8y627Xf+Fa5bVNQnv52nuXZmaorid5mZnbczfeNU2Lfe+9VEiSfN/FTf8APy05v7zbqFXK0AMZV27l+Wl2feb5lb+9Ttu1ad83/wC0tAHJ+JJ7mGdNq7UZdy5rNXUro/L5i/8AfK1v/EF/3Wlf7Nr/AOzVyP8AFUSkaxLq3Fy7fNOyr/s02aWc/wDLdmb13VXWVhWjo+lajrFyLfT7OW5lb+6vyrU+8P3Si1xL/DLJ9d1N86X++3/fVe3eGvgHqzxJPr+rwaWT/BuVGH4t83/jtdBdfs+6B5bFfGEfm/xM94p/9pf+zVpySI5onzl58oH+sb/vqnLeXK9J5P8AvqvUvFHwR1rT43n0fULLVol7RSrury/ULC8064NveW8kEq/wutS4uIcykSR6nfJ92dvxqX+2dQI2tKrL6bVrNo/hoKOusRL/AGdDeFdsU7Mq7f7y1e/hX/x2nWP/ACJGmfL8yyy1DH92qjIzkPkDK275d1QMct8y7qk3f7VRyKv96mMFf5vuq3+9U1vey27rsbb81V253fNTMfd+bbQB0W611WDayqs23/vqrPgTxX4i+Gniy31vSJWR0+V4m+5Kn8SMP7tczDPIj7lauis5rbVIfIudvm/wvQB+g3wf+Imi/EfwnFrelMI5V+S6tGkBe3k/un29DXcg5r80/hz4x8Q/CrxlDrGmSyNa7lW6td7bLhP7rf8Asv8Adr9DPAvirR/GXhm01/Q7oT2dyufdG/iRvQis5RLOhooopAFFFFABRRRQAUUUUAFFFFABRRRQAUUUUAFFFFABRRRQAUUUUAFFFFABRRRQAUUUUAFFFFABRRRQAjFR1r4F/bE+Mkni/wARP4X0Wf8A4kOmzsNyN/x9zr8rP/ur8yr/AN9V7h+2X8WW8IeF18LaLeeVrGqo3nujfNb2/wDF9C33fzr4k8I6LPrepLLJG3kq27/gNP4dQLvgvw7Jey/bLv7n3q2/EWsLEv2GxXairt3LVzxJqMGm2q6dYsqsq7WZa4nfnc7fepxJkIzuX2t/FSq2d33qijO4mpVK7f7v96mIVQ277u6pfmCsv3v9momZWZf9qnRt83zfdqgJstt+7Uir827dTF/9mo30ALcNnSNWUs237Mrfd/6aLXJ24H3t3+7XVzNnSdWH/Tqvzbv9ta5C3ZV3L97+7SiH2S/lVRW+Zdvzf71QzOu0N/wL/gNR+bhmX5to+aiNohKWnSR1/wBlttMBkmzbu/8AHqYzswCD5UXtXo9v4J+HtxZwTy/FeytZXRWkhbSZ28pv7u5fvf71Sf8ACB/DcfN/wuKybb/1Bbj/AOKpcxR5zEcgM/y/7YqSSPqqyNXoMfgn4cvu3fF2Db/s6JO3/s1c74osPDumXgs9B16XWYB8zXP2Vrf+H7uxmb/0KmRI5xY8f3qfvUN8u5ttSyJH8zLJ/wB9VX2r825ttWM6T4dyNJ4lXd/zwl/9BrYX7orB+HfHiZv+uEv/AKDW9HtZPvVl9oB2c/NQy7drbv8AgNO+981NY/7Tbaokay7fm+amtu/76peu7+7S/NmgoN2P4marFrcGKVWT7y/NVf5fmb5t3/fNC/eX5qAN2QRapZ+W3+tVfu1zS/adF1Hev3f4lb+Jf7tX7W4a3laRZP8Avmr1xHFqVq2779BJNDcxXMS3MDM0T/dVm+6392pM7V2/L/e2tXO6bPJpd4YJ/wDUs3zL/wCzVut8jfw/7O2gomzhdrN93/ZoaTKqq/d/u1X3qzbqez/N97av96rJLPzbG+9Td7P8y/dNQMctuVqdv+9uoAlZvm3LTd391eah3fL8rK3zUNKp3LuaoAexbdt2/NU+n211e3kVpawS3NxK22OKJN7N/urVLf8A7Py17r+y7p1i9hq2rrtfUFnW3V9q7ootu75d33d3zf8AfNVGPMBzGj/BTxxf2yT3cdjp+75ViuJ/n/75VW21bm+BXi3yv3Go6JLtXdt8113f+OV1Pxeg+K0utunhhrn+xdq+UunyKsrfL82/5t//ALL92vNpm+Lll+9b/hL4m3fedZdv/j1VZAVLj4aeOotY/spvD1z9o2NKu102Oq/e2vu2/wDAa5nULa6sL+axu4miuLeVkdGb7rL8rV7T8M/itqf9qpo/j2VYImRvKvZovI2tt+6/8Lbv/Qq8h8YXMFz4r1a5tpVnt5byV0l3bldd3ytU8ugcxRhSWaVIIopHldtiInzMzf3Vr0HQ/hD4xvrVZ7mC201GZdqXEvz/APfK7tv/AAKvQPgr4VsdE8NWuuXMG7VbxPN811+aKJl+VV/u/L83/Aq4T4nfEvV7zWbrStFuZNPsbV2g82Ftss7L8rNu+8q/e+Vaq3cDQk+CHiDYpXVbHc275XVv4f4a5Dxl4C8VeFomudSs1kskZV+027q6L/vfxL/wKsaz8S+ILOdp7XXNSif+8ty/zf8Aj1e9/BXx/L4t0690zXPLl1W12uz7VX7RE3y/d/vfdVv95aPdkI+dFbK7lfc3+9/DXcW/wo+IM0SSx6GrI6q6s19Avysv+09WPjl4StPDmt2upaZB5VjqKszRfwxSr95V/wBllbd/wFq1vgH4m8Q33i59MudSu721+wOywu27aysirt/4DU8vcZyPiLwD4z8PaT/a+q6O0FkrbWmSVH2/Nt+bazbV3Vyq7jtVV++33a+xY9Q0+8vNQ0iN4JprdVW8tnf7qOm5dy7fmVlavCvix8NJdH3+IfDUTSaezb7m0T5ntf4ty/7Hy/8AAaJRsBnL8H/iFLtjj0q0b5d3/H/F/wDFVQ174Y+M9E0G41nULO0jsrdVaV0vInZVZtv3Vb5q7L4A+J9f1bxDfQanqtzfwpbq6LcPv2tvX7v/AAGuP+MHiPXj4017RZdYuW03z1T7MsnybVVWX5f/AB6jlja4Eul/CzxpqWm2uowWNp9nuolngZ7xAzI3+zup9r8IvHk8bbdNttu3czfbE+X5ttc/oPj3xZobw/Y9Ynkt4F2LbStuiZP7u2vo3wbrln4n0GLUrH5omTbLEr7Xgfb8ytt+bd/db/vmqioyJ+E+ZfFGj6l4d1ybRtXgjiu7fbvRHVlXcqt95f8Aerr7X4P+OprOGeO2sVinVXXdeJ8qsu5d1U/iV4M1rT/Gi2yfa9ZXU2/0G4fczv8A7D7v4l/+yr1++1uL4X/D22j1DU5NU1ZUZYkuJd/mv/dX5t2xF/z81TylHkviL4UeLdB0S61m8/s9rKzTfK0V1ub5m2/d21wTSsi7l/7621r69408Uax9qjvtfvpYbht08PmssTf7O37u2ufV1/3dtTIonV2/4D/vUM7fdVv++qjV887fvUjH+Hb81AE+/dt+Vvl/ipN3zbv/AB6oGf8A2v4aRZVLfebbQSWFk+Vf++afvbd95qpM3+7/AN9U5T8u5W/8eoAt72+9/wCzVL5u1flrOVst83+98rVfs1V3WR32xKu5m3fdWgomuLxdOtftkq+ZK3yxI33Wb+9WJpNnPq9/5srMys25maiZ5dY1Ldt+T7qJ/cWunjCaRYKkX+tZfmpcwEl5cxadara23zPt+ZlrnZJmkbc1OuJWllZmbdu+aofl3fN/wGmA5nXd/dqP73zNTv7zU1f9YzLQALw33fl/hpzBs/L97+7QpVf4qVfm/iZf4qAI9rMu3/vqpo0bmmN/wJmqSN12Mrf99UAch46fN1art27YFrnAGZvU1seLZWfU1U/wxKtZlrFJcXCRRKzO7YVRWRZv+AfCl74o1dLaL5Ldf9bK3RRX0F4dl07wZp4sNAgRJx/rL3/lo3+7/drB8M2EXh7w9b2MX+tZFaVv9qpWnbfuVvu81vCJlKRs/bJbh2lkkZnf+81ep6L4I+1eBZmuV/4md0vn2rt8uxdvyq3+9/8AE1xPwj0Fte15JJ13WNntln3fdZv4V/z/AA1v+IPiQ1v8Q7eezl3aVZt9ndF+7Kjffb/4n/draJ4+KrTlPkp9Dyu+urmznaPdKjxOyt833WqjrUNh4lsjb6simTb8sy/eWvRvj14eW21KHxHp/wA2n6jtd3T7qv8A3v8AgS/N/wB9V5PvZG+X5v8A4mokduGq+1hc8t8XeHbzw9qHkS/vIX+aGUdGFYvbivcdUsYvEOh3GlSorXCxtLasf4XX+GvE2Ro22MG3K2GHpWEvdZ3RlzI7PTX3eD7Jf7kr/LTVO7+LbuqvosrHw4i/wrO3/oNS/dk204gxZDhqZup7f+O1Gx/vbaYg/wB2k/8AQqVfu0qld1SAxuPvU+OaRH+Vqay4X5fmpjf+PUAdfp81trNg1nc/LNt2q9dv+zp8Sbj4T+OTp+rmZvD+pMsVyq/8sG3fLKP93+L/AGa8gs7mSCVZI22la66a3g8SaMzRqv2uJf8AvqlIcT9KrS5hu7eO5tpFlhlRXjdTkMp6GrNfLf7FvxRe7s3+G/iC4xf2K50xpW+/Ev8Ayy/3l+9/u/7tfUa1JQtFFFABRRRQAUUUUAFFFFABRRRQAUUUUAFFFFABRRRQAUUUUAFFFFABRRRQAUUUUAFFFFABXN/EPxTYeDPBup+JdRP7mzi37AeXfoq/i2FrpK+Iv26/iRc3viVPAuny4sdMw90A3+tuGX5c/wC6rf8AjzUAeA+Nte1j4heOrvU9QkaW7vZ98u37q/3UX/ZVfl/4DXa7Lbwt4eWKPb9oZfvf7VZHwv0RLa1l1e8Xc38LNVPxNqTXt+7M37pW2otHxMmUjIvJmmlMryMzN96qUnyo33dtWGVahkVmiZvlrUQyP7tPbaF3NTIfu/8AxVS4z/tLUjG7sN/d3U+H5f7tM4qZV/2flqhEu77u2kZvuqrU3PzU35ttSBL93SNY3dWtflz/AL61yMe1Vbj+GukvLnydNvo/+esSp/48tcsCcf73akMcx2/xfw0sb5/iVf8Aep9lbT313Ha2ybpXbaq17L4F+CK67Yo99fahFM/T7Paq6f8AfTMvPNMDxvP+1HTe/wDrY/8AvqvoC4/Z4tbYLMtz4gvIW+6YbOL5v/H6n/4Z+soovPex8Uum3fg+QrbevzCq5ZE3ifPKrt/5axf99Ukh4+aVf+A19KJ+zlbyjeui+IhudV+fU7dF+Zdy/wDLL0qn4k+BWn6bpcrLo2sQyqu6O6N8kqfKvzKy+UtPlkPmifOWc/xU9X3NtqzrmnyaZqL20gZdtRTL8kMqgfOv/jy1PMUdH8OXx4pRmTd+4f5W/wB2tu3Zdu1q5rwHJt8TQ/7SOrH/AIDXRW+WQfN81T9oUifc3+9TVX5WbdSru/hajdViG7V/io/hNNz/AN80v1/4DQAu77rf+zU2Tc7bfu/7VIzf3t1N+9ub+FqAHKW3f7NXLW4aF91Uv4f4ttP2sfu7VqQNHVrWO+t/NRVV1X5qraPctLA1nL/rYvuf7S1Jpd35b+UzfI38NM1q2eyvEvIFXavzbf71IC3vzt3Mu3/ZoVlX7tV9wl2tH9xl3LTt+G+arAsM+3+Jf/iaGb+90qvuz8v8X92hpdy/3aCSbf8AI396k3/w1Dv+b938ppN2W+7/AMCoAkU7fm2t/wABr0P4Fv4xj1vULrwnaQXsUUS/b7e4l2K6/Nt/4F96vNWbcvzN/wB817L+y3f2lnqWv/a76KyV4INrSuqbvmfdt3VUfiA6jS/jx4embbfaRqVlKu7cyMsvzbvu/eVtv/Aa27f4xeArh1VdTvIG+6rTWzKq/wDfNcprXhP4YePLxtQ0HxLbaXqU+5pYYtqqz/7SNt/76WspvgLqaSf8jRp7RN911getOaQj1n+0fC/jDS5Yo303V7FvllX7+xv9r+7Xzd8SvDi+GPFFxp0Em63dFng/i2o33Vr1rw/pHhP4ZWFx9u8SrLd3ir57Nt3fL/CiK27+KvH/AIgeJJfE/iabUdrRQqixQRN/Ci/+zfxUPl5RRPovw7fRal4Z0m6gbdFPaxfd+X5lVd3/AHy33lr5i8SQS2fiDUrWVdrxXUqMv/Amrsvhb8RW8Nx/2Rq6Nc6Uzbo2X5nt2b7zL/eX/Zr0XXvDPgX4lf6XpevW1tq3yqtzEytuVf8AnqjbW/4F96pl7yCPunzux2bvut/vV6h+zfa3M3irU7xI91vBYbGf5tu5nXav/jrf981s2PwEuYrhX1fxVaRWW770MDM7r/s7mrqm8T/Dz4X+H5dK0i8W7uF3M0NvJvlnl/vO23bUxiUYv7T13bRaDpOnrta4lvGnT5du1EVlb/x5q4v9nNs/ElVbb8tjO3zfMv3l+9XIeNPE+oeK9el1XUNqt92KJfuxJ/Cq16x8NbD4eeGJbbxCvjiFr2Wx2S28zKqxM21m/wDQarqH2TlPi5q99oPxlu9U0i+lgniS3ZH37ty+Uvyt/Cy/7Net/Df4iWPjKz8pv3GsIjNc2zt99f4mVv4l+auH+KGnfDTxDPqXiOLxi39ofZWZLeKVGSV0j2p95d3zV41pepX2l39vqGmzyW11AyuksTbWSjmsxH1BpPgux0Xxhd6/ovlWkN1bbJ7RvurLvVtybflVf9mvBvjPuT4pa8rSKzeejbl/u+UjV6t8PfivpGp6S0fie7trHUkf5/N+WKdP76/3W/2a8e+Lmo2epfEjWNR027jubWd0aKVW3K37pV+9/vbqJcvKKPxHMM7Y3bvvLtXdXT/DfxdfeEPEKXVszSW8/wC6urfd8rq3/sy/w1yTOzJu2/druPhjpPgPVIribxd4gn0uaCVGiiR1VXX/AGtytUR8ipH09JdR20Tz7fMeJWl2rt3LtVm2/wCzXyR4y8TX3irXrjV75tu/5YoU/wBXEn8KrX0fcfEHwFOlxE/iiwVHVkZ0Zmba3y/+g14L8StJ8E6ZDpreENel1R52f7SrOreUq7dv3VX+83/fNXMmJxjPlvvUuWXd/wB9VBJIwXcq/N/Dto3bj827b/DWJoWt7BfmVaN6/L91aiz0bdTV2/eX7396gCZn/u0m5vm/u+9Nzn/2amKctVASMfvUq8tt21Fn+FaNzLt/i3UATq37wL/FS6tMwgSxj+8/zy7f/HVp1q67mnlX5EXd/vf7NLodq9/ftPL/AHtzUpS5Rmv4fsI7Cya7n+9/dqheXLXFw0m6rniC7UssETfKn8K1is3P3WqUIez/AO0tMZl27flpjGmsv8O5asXMKpoVt33aT/lpR91tq/LQMlU/eanZ3NtqLflaev3aCR/X5fu0yPqyq3/2NP3fLTFOG+796gDhvEhzqz/7orU+Glmt54wtI5PuI3mN/wABrL8Q/wDIVfjsK2/hVOsPi2Ld/GpFR9o0PXL64VnZvur95f8AapliJby6S2tlkkllbaiL97d/DtqpcP8AwV618D9Btba3uvGes7Yre1X/AEYv91dv3n/4D91a6YnBi6/soXNTxpeW3w9+HMOgWzr/AGrfq3mun+199v8A2Va8R+1SN/F/EtafjbxBc+JvEF1qtyzfO22JPvbEX7q1hMsjfwtRKRjg6DhDmluz234Y6jbeMfA174H1B1W4ii3Wrt/d3bl/75b/AMdavHPEGm3Wl6ldWNzE0c0Dsjq396r3g/V7vw/4gtNUg+/BJuZf76/xK1elfHTRbbVLKx8Z6Uu63ulVbll/8dZv/Qf+A0/iMI/7NiLPZnjuk3Bt7yCX+46t/s15v8SLFLDxhq8SfLF5+9V/3/mr0WGHbKu77v8Adrz/AOJc32jxRfvu3bViRj/tbawmezTI9BZv7BZVX/lvuq2vO1mVflql4d50qX/rv8u3/dq8o3Ebf4qUSmKzfe/u1D83zfLUzDavzU1vu0xEf8NJuxt/9mp//Aabj+LbUgGfmpJD8237tFDfxUAMb5d22tbwzqj6dfpLu+T+JayW5/8AiaazH5dvy0Aeg6w13ourad420GTy57eVLhWX+FlbdX3/APDDxjp3jvwTp3iXTT8l1FueP+KJx95D+Nfn/wCAb+PULCbRbttyuu1FavYf2LfFF14Z+IWqfDnU3YWmogz2IdvlWVB8wX/eT/0FajyLPsqiiigAooooAKKKKACiiigAooooAKKKKACiiigAooooAKKKKACiiigAooooAKKKKACiiigDI8Vaza+HvDWo65eti3sLd7iT6KucV+XerXl942+Il3qN188t5ePcS/7ztur7W/bq8VNoPwkTSYJCs2r3SxPt/wCeSfM3/j2z9a+R/hPpaxWcuqzr8zbm3NRKXKgNrxZcJpukxaZbfKzLhttcI3PWtTxFefbdReWR22/dXbWSyqyrRGJMiNvnbbTe/wAtO2r937q0nFWIYq/3VpFWn/e/vfNTvu/LuqhjFT5afhtrNtpjPGAq/wDj1OU/3qBA24/epGozihirVIGZrZ/0Xbt+8y1h9K3NaaNrP+Lfu/4DWHj5qBxOk+H7+T4pif5W2o1e+TePfEGkWcVnpl2ttbr87fdZf++W/wDQq+fPBL/8VHF/tK3/AKDXreqIpnt2do5l2L8qtupxJkdF/wALB8Xna0WsXcSRJsRItq7VXbUMfjbxA00t02v6hA7IzMvnsu7/AHV27d3/AI7XLL9reXZErStt+XYtE21pVkaTbu27N3zLu/i3VfMLlNqbxZrxTyhrF+0Tvu279yt/Cu5f4m/3qLXW9TZ7e2+1S+V/DCzf7vzf8C2/+O1iMFS4ZWeLY/zs23du+9/d+7Uy+Yj/AHoFRF+Zd/3fm2/Lu+ajmDlPOPiizP4pnZvlz2rBkwNOtm/2nroPibH/AMVGzKuAy9q5+cAadbeuXrI0Ro+CT/xU9pt/2v8A0GuotzlFrk/Ba7vEtov+1XVW7Ls20L4hMsMvzfNTW+ZvvU1Sv8W6l+X+KrEH3W+amt9373y/ep/y4/8AZWpGRV+XbUgRsG27qb/ur81OwoVv7tJuXd96qAKeq9P/AEKos7fvM3+9T1+b7u7cv92gB67t25furW9Zqupaa0En30+7WEvKVd0ef7NeozFtrfepSAq2e6MS2cm3dE25d38S1K27+9VrxBAttqS3S/cZvm2/3WqnIPKdkbb8rbaIy5hcoqt97+Jad0qEn73zU/LNt+VqYxW2/wDAf7tGVf7tJnd8m5vloZl3fe+78tABv/75pWf5v4abu/2qT5V+ZqAHfLtZv4t392pVuZ0Xas8u3+7uaos7VpM/8CoFyk27ezNI3LfxfxUKd33fu/3qiX7v+1R/+ugZKpz/AMBo3YYNu+Zf4lpu9f8A4mhj8v8AtNQLlCSZ9m1nkb/edqYzY2qu2nN833v4qjb+9T5hj1+7/wDE0SdPu/8AAaYpp29dv3qQB95f9nbt+amq3ysrUm7DMrNRuUpQAvytu+WodzM38O2ns6lqiXd/e+agAkOP4aYx2qy4+Zvman5+Zlb+H+9UbN833vvUASxn7rL/AMBpuflb7v8A3zTerbm+Vakyvyr/AA/7NSBGzb/mVvkX/apYzuZdzUrBT/u/epmf/HqAJG5+Zl+9Tm+X5f4qZu2/e+791aMt/eqgHq/95V3U35f4mpG+9t+78tGMf3qABd2WX7rN/eobgr/dpm5l+bdUtqrSTpEu7lv/AB2pAmul2QRQLt3P87bf/Ha6KzT+zdE8xv8AWutY+kw/b9X3H7u75f8AdX7tXvE1xumWBPuxrUfFIZkXEzSy7j81Rtt+7/DTWb/vmmqy7a1EOZs//Y03GKd/DQyrt2/LtoAMZC7fvUfw/e+7SqM/L/FUip/wGgCPGKeqsF21KqLt3M1Gz+Ld/wB80AMjbDbfvUkhZV27fmpWVf71V5NpZvmoA47xINurMf8AZWodFumsNXt7lf4HXNXfFSL9vV933kXishvmXdUMs+gvCtraa1rdlBc30FlaXDK0lxK21UT+Jq9+8RQ+DNZ8Nw+Hk8WWVjp8W3alvdRbnVfu7t3/AH1Xx54G19ZbcaZdSL5iL+6Lfxf7NdTI8jf7tb05Hl4rByqzvc9sX4Y+BG/1XjhN3vLE3/s1K3wt8OFt0Xjq22/7SxN/7PXiSvtX/gNDSttX963y1p7pj9UrfzntjfCzRTL5ieNdNX/ZCL/8drtPC/h3TtO8L3fhq+8QWWpWVzu/iRNm7/gTfxbWr5ca4b5vm/4Fuo8913fe+ajmiRPL60/imaviqJtB1m+tJZY5FsnZd6NuVtv8W6vF9YupLuWW7f5WuZWf/gP8P/s1dR4u1b7SW0yJ/l+9cP8A3VrjLqYTTZVf3S/Ki/3VrmqS5j2aUeWNjoPDKf8AEolZv+e6/wDoNaHzblqp4d+XQXbb/wAt6uLs/hbbREqQjUzGGqXbimN/u/NTAjbdTf8Ax2pPl+9TakQzCqtLtp395t3zU3/gVAxjDduWkwtP+XdTG5+9QIt6PeSWN/FOrfdb726vQfFV1c2L6L440VvLvbCdJdy/7Lf/AGNeYyfd+WvR/h7cR6zoN7odz825PlqKnccT9B/BHiGz8U+E9M8Q6fzbahbJNH7bv4fwrdrwD9iLXmvPhld+GbmRmudBv3h2t/DE/wA6f+Pb69/oKCiiigAooooAKKKKACiiigAooooAKKKKACiiigAooooAKKKKACiiigAooooAKKKjmkSKJpZGCogySe1AHwx+334gXWPinpHhi2dmTTbNWl+b5d8jbv8A0HZXE3G3R/B8Nsu1XePbWL4m1R/G/wAb9c1yQ7op752j9o93y/8Aju2rHja43XS2yt8sS7VqZe87AcrI7b23NtWmf8Cp8nKbflqvN8gZq0IHNt+b5lpjOm2qs15awtsaKS5l/iXftVartqUC/wDMK+X/AK6tTA0N8X/PT/gNIzr/AHqz/wC1YP8AoGL/AN/WpF1iBW/5Bkf/AH9akM0VMe75v4l/hpcrjb/FWY2sI33dOj3f3t7VA2pT7vlgjWq5gNlnWms277rVjrfXO7/Vxf8AfNK1/P8A3YqkCXWBmDb/ABblrPW3Yr/rY1/3mqW4uJZhsfao/uqtMVV2qq0AaXg/934lg2srbd3zD7v3a9bvmUvavGrfc3cfN8v+zXjOiTrZ61bzNtUK3zV7DDdrcxW8kTq3y/Om7ajf71XEJDMNLdS/Zkmbcv3Wf5mb+9TVkXyF+VPmbZuZV+Vf/ZfvfepzR7pZfKaBol2/Mm5du7+H5vm/vVHtWFniZ2kZGbbs27WqyB0Mm+U7d0e37rf99fxU1tqQM6yMz7t26iF1/wBY77fm+X5f8/xVJJ8qov7tn+V96/e+agDiPiJD/wAT5GWNtn3W2/3q5nUl/wBHtVx8u5//AEKtfxhqS3muIsW3Yvy/LWVrHyNBE235Ytx/4FUSLDwzNFb69byyttRW+Y1vR3KhmXd92uR+YOGX5at/2pcs3zNH/wB8LUgdR9tiVfvbqF1GD+GVdv8As1zMd9O7L80W7/cWnyTTou5XiX/tktBPKdG1/ENqq1TLfwf89F3f71cjHf3CMv8AqJP95Fqb+1bkf8utsv8AwCkVynVrc2zKvzrR5lsBuyrVy39q3O1f3EH/AAFKX+17v/njF/3zTDlOl86I/dk5/hqWN/mrlP7YuQ25ootv93ZW7pdx9st2ljj2qrbWXd8tAF9W/wC+f71OZurfxVGv3W/2al+6u7duqhHRTL/afhpHX5nRdrVz29mgSRtvyrsbd/eWtnwjNu+0WbtuVlrJvIWjnuE2t97f/wCyt/7LWUfdkNkStu3fw0/f8u35Vauo+Hvhez16z1XUtTnu/sumortb2Sq08+7+7uqS8g8BalomoXOjXOpaRqdmiulpqEqOl0v8Sqyr8rVtykHJtt27qfn+L5fu129xovgXStB0W81eXX57vUrP7QyWjJtVt3zfeWofC+i+GPEnjCLTbFNZisfscsr+c6ebvVWZf4fu/dp8ocxxild25ac21l+VqhVlKblWvRvEGi+A9BbT7a6i8QXd1dWcVw3lSoqruX5vvLUlHA9W/wDiqTbxiuu0XQND1vVL65tm1DT9C022Wa6luNry/wC6u3+9/D/u1Y0m28Ba5qK6VEmoaM8u7yL64uVZN235d6/w0+Uk4hf71Ob733flru/Aek+ENX12x8Najbat/aEsssUt1b3SeQzLvb5fl+78q1heKH8JLAIPD9pq8d0krLLLdzoyMq7vuqq/7tIo5/8Au/8AoNPbbt27fmpjdNu1f96kZlPzKvzdPmoAep+b/ZpknG2mbl3bqFPyfN81SA5tv+zSMfu/N81Rt/wKmsf9qgCSTlflZvmqP5vu7v8AZpu9l/8AittNZvut/dqgHb2DMrNuX+9TmPyrt+Vf4agztb+JqR2Zfm2tQBJ/eb5d1Mb7u3+7SKfnbd92tDw7Y22p69p+m3M620N1dRQvL/cVm27qAKit8u1moVm+8rblr1LXtN8NeHtXfQdT+HepR2MTfPqy3jvK6f8APVdq7P8AgNYvhOTwPPrdvoM/h+51Jbi88qLUPtjRMyM3y7olX+GnygcO33ttC7Qy/d3fdrqPGkvh7+1LvQ9D8MtaXUV+1uk32x5d+1mXbt2/xNtrY8SeFtDh8PX1ppEUv9t6CkEuouz7vPVl/e7V/h2My/8Aj1HKBwG5d3O1f92lZvlrrPB8WkQ+D7vWL7w8utzJfrAqNK6fIybv4K05tP8AD+o+C9T1hvC8mgXWmyxMitPKyXis3zRfPT5Rcx5/nb/tZoZmLferuLO88Lz+H9Q1f/hDIFezkRVT7dLsdX+WuP1q8try/aez0+LT4mVVW3idnX7v3tzVIymx2/L96rOnthLiVm+6m1f95qpZ/wA7qu2/FhEqt8zuz/8AAV+WokB0fhWH7PZzXjL/AA/LWPqEnm3Usm7+Kt+4b7H4eRV+VmX5t1cvuzlv+BVNMciCbhm/h+Wo1mY/di3L/srS3iSsr+Uu5lRmri5ru5ml3vLJuX7vtVhE7bfIybtny/3WprXI2/6tq4iS5nddryM1RMzf3qfMHKdvJfqNu5o9y/3qT+0f+mi7v96uLhilmfbGjO3tVhdOvCMtEV/3zijmDlOuXUlP8S/LT/7Tj+b5o/8AvquKltLmP5nhfb69ag/iqeYOU79b3eq/Lu/4FRMZXHyQM3+1/drhPl/hapIWlAbbK3+181MOUua9Ms9+FjVfkXazL/FWewaNvm+61S7WDKy02QN/Eu2gBkZaNwwZl/ukdq7HQ/FXlRCLUlZl/hmT5v8AvquMbd92iOR4ydjbaXwlHrdvcwXKLJbSwy7v7r09kb+Ja8nS5Vf+WW0/3kYrU/8AaC42tJfMv937T/8AY1XOTynpd1PBaIZLqeKJf9pqwdS1ia8t5P7N/cW6ffu5vlX/AHVrkVv4lbcLSN3/AL0zF6ivb66vCnnzM6pwi9FX6CjnBRJbq5V1+zwbtm7c7t952/2qo0UbaOUo6Tw3d77B7FWVZQ+9ctt3VbaZUb5niX/tqtcgo707ap/ipAdRJfRbtvmxbf8AfpjX8W//AFsX/fdcxtqzaWN1cANFAzL/AHui/nQBttqMQX78P/fVN/tCL/nrF9N1ZTWDqcSXFqh9PNU/+g1C1pJ/C0Un+5ItK5PKbv2xH+7Pbf8AfdSqzO21Zbb/AL+1y7IyNtdSre9JxQUdhHBO33ZbTb/13qC4WWH/AFnlsv8AeRt1cxtrX8Kwm51lLXd8sqsrUcxPKXu3y10Pw/1D7B4hhb+F/laucYbH21LbytHOki/eX/aolH3QifUP7N2uL4a/aDl0uRvLtPEtjsQH7vnp86/+O71/4FX2QPu1+dcmsnSr3wp4yi+/pd9BNIR/dVl3V+h1rPHc2sVxG25JUV1Psazj8JTLFFFFUAUUUUAFFFFABRRRQAUUUUAFFFFABRRRQAUUUUAFFFFABRRRQAUUUUAFcR8dNd/4Rv4QeJ9WU/vIrB0T/ff5F/Vq7evm79v3xE2l/CO20WJlWXVr5VYbvm8qNdzf+PbKAPkX4Txb7m4vG60/xBcNNqMz/e3NVr4cp9m8PTT92Ssi6Znndm/iapj8QSKzf8BqLOZUVl3fOtWGHy1BJ/rEZf4WX/0KtCDI1TamqXSqu1fNb5aqSFtq/wDxVWdWZv7SuGZlZt7VDs/2aYEONvzM1N+U7mokLbvmqJi1UMfvVf7q/wC7R5q/w1Wk+9W5o/hDxFq8Xm6fpN1On95U+X86kDK3/wAXy0nzbW+b5f8AerqV+GnjEtg6Wq+mbmL/AOKqaP4WeMHx/olrHu/v30C/+z07SDQ5KM/N/wDZU/5vusu2u1k+EfipITI0+jblXds/tOAN/wChVxuqadqOk3D2t/bSQuv8LrS94ZDd/Md6rt+ldB4R8StYultd5aL+Fv7tc5HI2Ovy7dtRSDa3ymnzDPbLjbeJC8HzJs2q3yr/ABUjTNvWdtrPt2r8vy/Kv3q858JeJZLGZbe8bzLduPm/hrv4bzT3RZIryPY38LNVxkZcpYZlk3RIrbnZWZ2b7tcp408QxWsR0+xbc7f6xlb5af4q8S29la/ZtKn3TM3zN97bXDwx+czXl7I2zd/e+Zz7VMpFRiT2KRrbPeXKM2W+X5vvt/dqhcTNNK7yfM7NTrq4eYjd91RhUXotMtreW5mWGBWd2OFAqSxFjdl3fKB7ml8s93T/AL6r1/4c/COLXWiXUV1GV5fui22oi/7zsK7yz+AXh+a1aX+yfEkjBjsK30SrIv8AeX91VcjI5z5kWP8A6axr/wACp/l7V2tJH/31X1J/wz/4WiWRpdH8Rsi7P3v9owKpZv4fmiptx8A/CqzvHFouur5StuMuqxbdy/7SxUcjD2iPljfht1TyTb9rKtdP8Q/CZ0G7lkt4pY7cSbQshyR/wLvXIK1SUXlPyD7tNZf7tQxs23bu+7U6nd95flqhDZEbb/s103g1v+JReq3zMrrXOq+xm2/+g1v+D33adqDbv7n/AKFSkBo/K3zVKzblZm+aoWb/APa202Rvl+X5qQi/oNy0GsxM38TbaveIItmovt/jVl+X/vr/ANlrBjfZOkm35lauh8UOu61nX/ZaoluM0vhnEsiXz6b4ok0TxAqf6GjsqRXC/wASszV3F9f6x/whutQfEq50i5ieDdYMksTXPn/w7fK/hrxBl2yup/hanMzf/E1rGRB7Xa6j4mXwX4aj8MeKtIsYlsFW6iuLqBWV97bflZd1U/D82pQ/E21uvFWv6TqE0unzxLcJeIyKu1tqsy/KrfNXj25Wb5tq0ecgVt21armDlOvvvB+oWely3T6roUqxKzMkV8jv8v8AdWvQ9Y1bxG8GlL4c8Y6VZWq6dEksL3kSsrqi/e3K38O3/vmvDFkT72VoZ1b5W20uYD0611RodU1vQ/FGtWk/9r2qf6dbyq6JKv3NzItRaP4U02wvE1DxZrWlrpKbmZLe83y3H91VVPmXc1ebK8e3b8v3aXfHuX7u7+9RzFHd/Dm/0+H4l6fdrJ9islnl2PM6/IjI+3czf8BrlrqRWupl3Ky726N95d1UGZtvy7dtDFWfau6kBY81t26ms+f4W3f7VQt97/aoZvvbfvUASs+P96je33ajbdtFNZsUEkrSfLtVaYx+f5f++qj3bW+Wj+H71SArM1Ju5xTd/Vv+A0m7lf4WXvVFDmam/Nt2t/D/AHaPvL/tUjfd3bv++akB/FWdFNj/AGraf2rHI1j5q/aViba+zd822qeV/wCBUZb/AHaAPXtBmXQ9ei1DSvifpv8AYiS7/s9y8ry+V/caLb97+GuUbWNOm+Ka61Ay22nNqazKzLtVV3fM23/x6uP3Y3M22s261mBJVSM7l3fNWnMB6b4d1LQ7f4jar4j1C5h+z20txdWaMrN9ol3Ns2/3fvbtzVd8P/Ea0OvLLqvhnRILe8ZkvLq3gZZ9j/ebdu+Zv4vmrzC3v7S42srr/u1YWTcu1duKXMLlO1s9Zg8P+FNa0/Q9clW7bVUe2lhZkaWDay7t3/fNEPidtY8C61pviPU57vUEkin05rhmdvvfOqtt+X5f71cVub5aN27/AHqOYR0Gk6jYw+B9e0+SVo725nt2gT5vnVW+b/ZrnmZjt3f8BpW+9/FzSMP9mp5ihjNx8q1rWK757WL+6i//ABVYsxy3y/eb+Gui0kLJre1fuq23/vms6g4mr4ql2pFF8vyrXOb/AJvu1reJpWa8Zf4lrHqqfwkyC43LbTSbtv7p9rf8Brz1W2tXeag+zTrj/cb71cHzRIqI7azuFUbmatjStHlubsWkVs13dtx5Sn5U/wB40/QNNuLu7htbRW+1z/xf88k9fqa9n8H+HXsHTTPD9nLd6ht3N5Sb5G/vfdqox5h+hj6D8Kl8pJfFWuQ2MTfdt4vvf98r81dRb+D/AIUWSeWy3t6/98Wu3Lf8Der994S8XS/vG8PazI7feb7K7f8AstVP+ES8XL83/CMaz/d+Wxdv/Za15EHsqvYp3ngP4Zagh+zXl3pcx+6z2zBf++kdv/Qa4Hxh8MdRsIGvtNuItWs+zo/zr/vf/ZKtej/8Ih4u3bl8L66p3f8APjL/APE0+38J+NoZfMi8Oa6v/bjL83/jtHLEOSr/ACnzZNE0TsrKylThlbqtMV2FexePPB321bnbYvZ6xb/NLA6bGb/gLV49NG0MjRupV1OCD2rLl5QJ45EG1WX5alZo8f3qpVLG3SmIeyKV+XrUbRVJ33UM1AFdo8Cm7KtMP4ttRMNvzUuUZFspyrT/APlnSKmd3zKu2jlAb0b+Gm05ttNpCCnwo80ojjVmc/dAqPPGK39C0y5vLuLT7Yfvph+9b+4npQUWPDujXOoXsdlp0H2u6ZtvmH5kRv8AZH8TV7RpPwo8OaPEtz491dZbpkVkt5WdmVf+uUTbl/4Ey/7tZ2ixReFbNINKVVvWXa0y/Myf7v8AtV2/hH4dahq8P9r+I7ttNsvvfvflldf73zfdX/aaqlKMdzSlQq13aBlb/hjaK0UHhm7uVX7rfurdf++drN/49XO6zpnw51PhdDu7Dd/FvV9v/fKrXp9xb/B3SN0U94t26/eZZXlb/wAc2rUceh/CvxEzRaVq/wBium+4nm7fm/3X+9/wFqj28ex2f2XPpNHgGveAlRHl0DUFvYl/5d3+9Xn93by207xSxPDIv3kZelfQ3jrwTrXhC48/5pbJm/d3UW7b/ut/dauT1TRrbxhZPAqrFrMCs0Dj5fNX+7Ve7JXRw1aU6EuSaPHtzMu2tnwa23xLZbdv3qybiGW2uHgnjZJUbayH+E1f8Museu2bZ/jWpJNW4bEr/wC81Nh+f+L5v4Vpsy/vX+b+JqRdxZvu0yDvtPZb/wCG9zbfxRbmr7j/AGXfEo8VfA/w5fO5e4t7f7FOT97fF8n8gK+EvA779Hvrb+Fkavor/gnrr7NpvinwnKzbbe5S9i+b++uxv/QFrJFn1nRRRVAFFFFABRRRQAUUUUAFFFFABRRRQAUUUUAFFFFABRRRQAUUUUAFFFFABXwl/wAFCfEH274iafoEZVk0uwVnXd915W3f+gqtfdvavzC/ag1ZNb+OHim8U7lW+8hTu/557U/9lpxAdoO238JOq/xKtYEj/M26ty3Kp4V+X/ZVq52Rv3n8W2oRLHqfl+9TJDhlb+6yt8tG6mTH5VrQDBvpc6lNu/idvvU2SX5WXdSXz/6fL/vU35WRidyoPvGmA23t5LmTajLvb7q/xNVfa27bWl4Z3SeI7TavPmfKtNk02589mZdvzU+YB/hOKCXxHbLcx+ZErbmT+9ivprw74g8OeF7VLa70FdQuXi3o+7bsf+6y/wB2vmrw/btBr9vub5tzf+g17LrA2RW8SwMvmooZd275V/2qcCZnocfxM8MCO6WLwXaSSuqqu2R2VVX+Ko4finpUafvPBGjNKjN8+1mWX/abc38P/Aq80VN7Ntk3L/Ew+8+7+Fvu1FbOkUSt5CrNu+/tZmX/AL6+WtiT0mb4rW3leQvhrSZ0dFR/Ntvlb+9uX5d3+z8392vPPFmh6f4hgnudOXa7fP8AZ9m3b/u1XXyyrRbmZG27lb/7Gp7Wb7O+7dtdf4tqsv8A49SuQeMa1pVzplw0cq/Lu+Vqit7aW4T5fu17l4i0Sx8S6a8sPlNeq3zxIrLv/vNXkrWMula21nKrKm7+L+7WUo2Noy5ijHpcm9fNXav+x96p59GZW/0S88xP9pShrb+ZHZX+8vy09f8AaqCznE0sxne488/3BwKjure8mfdJH/uqv3Vrpd3zfdqK4+WJpP4m+VaAOUjtZ5bhLdEYu7YVa9i+FPgi2gT+1NV/1Ct838LP/srVX4W+EoLxE1W8kXays7f7CK3/ALNXeatcxzJbwWcSx2sX3Edduz/a+VqqJnKRJeeJr62f/iWXMlikTbYkVWV/7u7/AParPbWtXiX7M99dsrNs3wy/L/Fu+7/DVSZo2QsrMi7V/dfM29vm+b/K0saxQs371Y5VXbtfeu5v++fl/irQjlJl1u52Msdy0ibl2rM25W/3t33m+7SQ32pyTxSRXdyrtu2tEzMzVUt0jbf5ccW1Pn3Mu5v4f4qZNEqK+795tbayxNtbdQVymB8WLh5vBdl88jKvy/N/vV5CtesfEhF/4Q+H+83zNlf9qvJ8YrGRpHYsWqeazZ+VVUsx9qVlH8L7h/C1O01uLhf+mD/+g1DbuA3lv9xvve1Fxk2W2N81dB4RfNlqH+6v/oVYUitC/ls3/AlX71bXhE/6FqW3+6v/AKEtVIk092GZqGZdv+zTm2hflam7fm+WkIYzLW34hlV9GtX/ANmsKb/eX5q0Nel/4p61/wB6okMz2O+Z2ZvvfNQ21dtQ277tn95lWnyfd/i3VQjK1q5l3mCJtu1dzV0+j/C3xJqWlpfNfWUAlVWRJp9rNurj9QP/ABOVVv7y17pvaMRL/wBMl/4DVRjzDkcH/wAKi8Qr/wAxjS1X2uaX/hUviAf8xzS//Amu+Z2P8Xy/71K3zfNVcsSeY4KP4Ra8/wDzH9J/8CayfFfgLX/DGnrqcl9bXcAb5mt5t23616cz7VrH8aS58Iakq/8APKlyhzHnml3TXNmskn3lbbVtdy7ttY/htm+zv/vfLWsrs235vu1Ix3zLSq33W3VHubc3zU3OflZqAJZD/D8u3/Zpqv8ANu27aZuXbTN3P3qAJcrTWZlX5v4qbuw1MZsN/wCg0ASbtyt/DtpN1J97d833abuoAfn+HdQzfLtak3/3qa33aAH52/eoz81M3fM392kX7woAi1SXy7B23Mu75a3fBngvRNW8PLqGo6pPbTTuyxLEm5Vw38Vc5rv/AB4t/vLXc+Bd6eE9PjP952/76anEDLv/AIV35Ytoeq2Wor/CrN5T/wDfLVzGp6D4n0OTbeWF3Fj/AGWK16yr7fl+8taFnqt9bbVW5kkiX/lk/wA67f8Adanyi5jwy31m5j+WUblq/DrNq67XDKT616zqWneHtT/5COh2ju33nh3RN/478tc/e/Dbw5e/Npup3Ni7fdiuF8xf++lpcozk47uCRdySK1PZvl/3qqeKPBuseGolvJJElt9+1Zom+Wo9LuWuLPdI3zD5WpDLcZX7VFuX5Wda6Hwyd+ru38PzNXLRy7b+32/366DwnLnUZmX7yr8q/wB6okBY1x91+7N81ZzMw/iqxqkrG5LMvzN/DVPd8rfNWkREGsP/AMS2b5vm2MtcjaIHnXdyi/M3+6K6bWH/ANAl/wB2ubt3O24Y9Sn82WpkVHY9V+G1h/Z3hy48Qzr/AKTeybIP9la9b/Z9m3/EGJVb5vs8+7/vmvON6w+GdEtE+6ltu/4E1d3+znJu+IyL/wBOsv8A6DWtI0w/8ZG344+LPirRPFup6ZZtZfZ7W5eJN9srNtWsVfjl4v8A4l0//wABq5H4rOx+I3iDb/z/AEv/AKFXKMfvba1lN3Kq4irGbUWeuL8b/F7bV/4lq7v7tt/9lXS/Dv4o+Jdf8Y6bpF81l9nuHZW2QbW+6zf+y14DbysHrvvge6v8TtE2/wDPV/8A0B6IyKoYmpKajJl742XbW/xQ1KVG+dWi/wDQFrxz4w6PbwXtlrloNsOpR7mQD7rr96vU/jk+74oaw38KyIv/AI4tcN4yCXvgiFJefs95uX/gVZ1TOv8AxWeTLuzUyozL8qturoobW2G35KnWGJf+WdY8xBzaxTs23Z/wGnrbXP8Azyro9i07o27+7RzAc41lc7v9W1I1hc/3a6ShttVzAc0thc7fuU37Hcj5vLrpcfw0Nz95aOYDlmtblf8AlnUTQy5/1ddcyr/dqJo4/wC7RIDmrKMm5QOPlX5m/wB0c16j8PbP+zfDU2tXC7rq/fbF/srXINDEsEzbf4P/AGZa9AvnWPw/pFtHtVViZqmImei/B3w9BcvdeKta+XTtN3Ptb5lZ1Xdu/wB1V/8AZa5X4kePNQ8X6k6xyyW2mxNtgtw33v8Aab+81d14kmk0T9nuxig+Vr9kV2/32Z2/9Brw1m+appe/Jtnq4yp9WpRpQ+ZL5nzbWo87b/Ft21D/ALzUqn+9/drqPHuz2L4Q+N1vEXwd4j23dleL5Vs8rbmXd/A3+z/d/u1xnjzw/d+D/Fr20UjMqN5ttL/eT+Fv8/3a5rT5nhvIp4m2ujqyt/tV7F8ftt9ofh3WljVXni+Zv95VZV/76Zq5ZR5KunU9iMnisI+feB4R8Z7KJ9QsfElsixpqkW6VQPuyrw1cRo7Kmq2jH/nqv/oVeh+OnE3w+gjZtxt7wlP9nctedab/AMhG3b/bWqPKRvTNull2/wB5qiWiQr5r/wB7dQpb7tMR1PgN9stzGv8Acr0f9inWf7J/aCWxaXbFqlrcWzL/AHm++v8A6BXmHgt9t5L838NO+HOut4b+Luha4jtGtnq0Tysv/PLftf8A8dZqj7RR+qFFNRgyAqdwPenUAFFFFABRRRQAUUUUAFFFFABRRRQAUUUUAFFFFABRRRQAUUUUAFFFFAFXULuKysLi8uG2xW8TSuf9lRk1+SHibUZdW8Qahqs+1pby6eeTb/eZmZv/AEKv01/aN1seHvgh4s1MuUK2DQIy/wB+VliX/wAeevy4mOSzf8CqogejW5z4b/vbdrViMy5+atXSX83w8y7v4VrJk4rNEifxfdaq998qKy/3lqdfmf8AiqK627G+b7rfLWgGZ/Zr3N47s21d7VJrWmzW+mxSxN5kSt8+3+Fq07Ff3rt/tVfjVSrRy7Wif5WX+9TA5jwWSfFWnt/01reuOHdf7rVW0fR5bDxfp7QBpbcy7lcfw/Wrlx992X+81AGVY/L4lt9399v/AEGvYNR3NZWS+buVU+ZVff8ALu/z/wB9V45Z/wDIwW+7+/XszyrFYW+5kjaWDbvlTfu2/wAKr/8AFVUSZFbyZ5bjyG8za/3UibYzf3d392mLC7bmW7Xyom2qqszLu2/Nt+bb/wCPU/zo5WWLbJ8q/M7feZ//AEL+GoGhi8pZZV8pdu35VZtzfxVqSRsu1d/y7PvIrRfeb7u771RbFVvLZW/2mZtqr/u1dtW/dTL5rKF+aVFZV+7/ALX+f+A1XmeMJFOq/I7bVV9zbf8A7KgRNb3kFjOr2nmYd9yKzK3+9/D/AOg1w/j6VbzxW0kabW2r8qturY1zVk02382SRWmdvlVf4a5rTd0rS6refe3fIrfxNWcpFwiPvPlvZv8AfamfeWmfeZmb7zfxUMf9qoNB/wDFSXCb7Vf95lo3r/FUtu0fzRSttV/ut/dagk6/wDqqppLWnm+XuRU+VvmWuiVP3TNB+/bb87KrN5S7fvNXkS39zo9+0qfd3fOv8Neh+G9dttVgVmlVm3bm3M3y1USZRNjfHuK+WuzcrbGdt3/fX3vmqJRsRdttAr79qou5tu35v+BVfjdPm2pHu3syu/8Ad/3m2/8Aj1M8yWG32KrSRSqyNuRWbb/vfeWrEV/m2+U3yoq/L5q7f8/7tVWfKTfutyK38Me7+L+9/DVtraR1ZXjk3Mnzu7bl2r/F/E1V7yGKBdv26KVV3Ns2svzf3drUCOf+IW6bwf5rMu3d827726vPo7OCaNfl/h+9XoHjJvM8FP8AdVlfay7VX5vl/wDHa4i1X5E/3azkVEgj0vyorqRG+VYH/wDQawYY3lkEaKzO3CgV3FrBLeC4tbWJppZYHREC7mZmXb8tV9I0t9ER5bqPZqDZUIw+aEf/ABVSaGBqCJbJDZ7t0se7zT/tf3a0fB//AB56l/1zX/0Kp7rTYJl3fdb+9T/D9t9lg1BWZWVkX73+9QSWPvfdpaYrfN8q07d/s0xDGC/3at6827w7Cv8AtVVZvk27m+9U+uf8giFKTGZVq/yI3+ytWN9V4d38VWFWgRhah82rbv8Adr3FX3+UzM3zRKytXjeqWchdZwrbWXbkfwtWja+O9YtIEt5I7efYu0FvSqjIXxHq/wDurub+7Rnb/Fury9fiPqIXb/Z9p/49R/wsjUR/y423/fTVXMHKenSHK/3VrE8ZbR4UvgzfM0X96uL/AOFjah/z4wf99NVHVfFeo6xB9ilEcEJ+8qKct/s1PMPlKnh9f3Ev+/WmvA/iqCxgazs9rfKzMx2/3ak3fxdqkbH72pjFttGVb/eoYr8vzUxCMdv3Wpu6hu/+1RH833qAH/w0nNKw5pjK33qAHN822huGpq/ep7f8B/4FQAzdQzU31o3Y/hoGOVs06o6duw1ICrrX/IOb/eWu28FSl/C9jleV3LkL/tVxuqRtNZtHH8zferW8K+ILCw0NLO6nkikhZvk2/fVm3VUQZ3sJUuqsu7d8tLlGb9392uDvfHiIPLsbMt/tStisK88Va5eFlWfylb+GJdtVzE8p6neX9naqWurqKJR/ffbWHe+OdGtsrEZblh/cX5a80dZ7iTdPM7v7tuapIbDJztY/Wp5iuU7AazfeNb6DRYLTy7Zn8x13/e2/3m/hqpqmnLo881mssErq21mhfei7f4Vb+Ks+zhaBWCttH+z8tTTbSvzNSAqK/wDpkO1v+Wi7a6HwifL1STdXN3HySpIzfdZWroPD77NS/wCBVFQZPqzbbx/m/iqnu527fl/2quax8t81U2DY+9VRJKOsHbp0y/7Nc1F9yX/d/rXTaou6zm/3azbfT0WJWZvvL81EhxPSrW7+06Hpsi9Fg216R+zbHn4iLJ/dtZ//AEGvGPBdy0mmy6fI3z27bl/3a9p/Zt+bx/8A9ucv/stawNcP/GRxvxYO34jeIP8Ar/l/9CrkmZa7r4naJrN14812eDSr+SJ7+VldIHZW+b/drml8N65/FpF9/wCAz/8AxNaS+IVejPnk+Uz4e33q9B+BP/JUtH/h+d/l/wC2T1yH9g6yhVm0y9X/ALYP/wDE13PwP02+t/iTo889ncxorvuZ4mVV/dPREMNTn7Ve6ZXx0Lf8LS1pd3/Ldf8A0Ba4bXpdvhxYv4nnX/x2u7+OCbvirrX+1Kv/AKAteZa9P5t0lsrbkiX/AMerOrIK/wDFZTj+VVp/Wo6kVqyJE3f3v4aXrR935WpvT+KmAcUbqGK02gBystHy7qKKQB0prfeo3UNQAyTcyOn95f8A7Kuqa5+0aXYybvuoy1yrVreHX86zlsd3zxfPF/tLQviEz3fWEbX/ANnmylg+Z9OZXdf4vk3I3/jrbq8Nbdur034J+LYNNupvDWr7W0rUfkbf91Hb5fm/2WX5WrP+KXw9vvDF611YxSXelStuSVV3NF/st/8AFVMJckrM9bFU/rdGNWHTc4GlX/0KnKjGpobWWaXyokkmdv4UXdW/PE8eNOXNYtaPbSXl5DbQR7pZXVEX/ar1r9oC4istP0HQVdd8EDMy/wCyqqi/+gtT/hv4PtPCWmnxj4sbyGgTfbW7/eVv4Wb/AGv7q15f4y1+68TeIbjVbn5fNb5E/hRP4VrC/tJ3XQ9lxeEwjjPeZy/jW4x4chtV+9LPv2/7tcTZI66jbrt+bzV/9CrptYuPtWpKqtuigXatQxwxm8tvlXd5q/8AoVaPc8cimPzv/dVmqNWXdtqWZcTv/vNUX8VIRu+E2xdSt/Dtrnr59t/LIjN8rs1b3h1ti3En91a5y4OZ3k/vM1R9ouJ+qfwm1ga/8MvDOt/xXmlW8rezNGu79a6uvF/2MtSGofs+aEgcM1nJPbNz6Ssf5NXtFABRRRQAUUUUAFFFFABRRRQAUUUUAFFFFABRRRQAUUUUAFFFFABRRRQB85/t+6y2n/BiDTkbDalqMSMPVUVn/wDQlWvz7b7zba+xf+Cj+sZuvCWgq3CpcXbj/e2ov/oL18dfxf7NaR+EDu/CcjSaMyL97ZVGZdp2/NTPA9x8rxN/D8tTXgxcMv8AtVn9oUiLr/DUdxuVP+BU9VzTZg235f8Ax6qESWvEr/N/E1XFXb/+1UUaKJZW+7l6l+b+7ViLtnql5YQTQWl00UU6bXVazJOE/vU5l+bbtpnyj/aoGZe3y9Uhlb7qutepx30dxYWixSs2xWZlb+9Xnk1i1zFtiX5/u7f71Tafrmq6TF9mW0WVV/vrtZaOblFy8x3v2uR4FV92/wC6vybW2/7LVJayyokvy7V+6q7dzKv+y23/ANmWuCbxhrjN8tnHt/4FS/8ACW+IXb/j2hVf9yn7QXszuFaUtuWBo2Zvu7PkVaydcvv7Ngee6kVpf4E/u/8AAawP+Ej8Ry7vljXd/sVTmR7l/P1GfzG/hRannCMCpHFLf3TahqDN5O75V/vf7K1ZmkaVv7qr8qJ/dWiR2l27vuqvyr/dqGaVLeLzZ2+X+FP71SaD2dYk82dtqfwr/erY0Hw/4j1z5tMsraCL+F7idIt3/Anan+A/DF94h1aK5niZl3fIm3dtX+9Xt3h3VrPw47wWOnxzjymR5bh2Xczfdb5f7v3quMTOUux4X4k0LxL4c2PrWnp5LfdlikSVP++kasiOZJPmWvpTXodM8e27W0lnFp97/wAsyjrsRNrff3Mv8Sru/wB75a+e/Fnhu70G/lVYm2K3zKvzL/vK1OVPsEZlO4RbqDyJPvr9x/8A2Wsezub7RL/dHuj2t8yitON1dV21LIkVyvlXP8Pyq6/w1maHaeH/ABVBqVuq+b5bqv3fu7v95q0P7QiWXzVvI8/wszbmryqTR7lJf3G5m/haJqjk0vWFfZ5d3u/u/NVcxPKeqSXMB/5fItrfK3/7VRtfWyfN9pjZ927/AFf8P92vK49G1qRtsdpfSf7sbNSx6NqTOytBc7l/hKtRzhynU+JNYtpbOXToNzbmrMWPZbxNTI9HurOKKS5tZoklXcjuu3ctTM25lRfuL92lzcwEtrNLbsksEjRSo25XRtrK1OkllmleWWRpJXbczs25maoP92nK2KAJmZdm1V+aix3GC+/65L/6FTWVfKaT5V20WP8Ax73/AP1yX/0KkwK27B+9T9+fu1B95qk3Y20APZ921d38VSeIH/0eKL/ZqCFcyov+1TNcObpE3fLuqQIIfvN/dq1Hy1QQptXdu+ap1OBuarAsRzSQs3lNtasy+tRcTGVoky33jt21czu+81DLt+81IRltpq4+4n/fNH9mL/cjrV2/3aTbRYZmLpy7vmjj/wC+at2MX2V2kjWNW+7uVasYWkYL97+GgBsjM5Zm+b/apjfdpzKrfxVG1MQfw/epcsW21H609aAHf+hUvRfmao7iZIIt7n7tZ9vHfavP5cCsqe1IZdkv4E3KvzNuqv8Ab1K/dat/w9F4S0uUT6vBfapMOPIi2Ku7/aZlb/0Fq7Gz8V+CpdLu/P0OWC4T/j2tFbf5/wDvOqKqf98tTEeZw6jA33/l+tWd6u26Nt1dNqV34C1WLa+mX2l3S/32WWNm/wB5FRl/75auTvtNFsrT6Xd+eit80X8WPX/aoAlx975aTb8ys1MsbpbpD/C6/eWpmXFIBGb5vl+am/xf3qb1/ioX725fu0xk8bMje9UNQs0nl3rBtP8AFtq7H/eqXH8VIDKhsscbI0/8eqZbJVX5vmrQ24P3aMfNQBWjto0X5Y/mqRVqShuP4qBDcLSSKv3qX5dzbaTrTApXiZTataWmzYvUf+8y1TuI9y7d3/AqdbsqyxNupMZu64P3ob5l3LWf/StDVl32qSVmdP4qIgR3i+bayr/Fsaobf/j2Vf8AZq3CnmFl2/wN/wCg1Ut9vkrQwFtZp9Ov0vIPvp95f7y16h8OfGs/h7VP7e0eKCZ2iaJ4Zl3Ku6vMW5ot3mtpd8EjRt/6FRGXKVHmjLmR9F/8NAeI0X/kDaX/ALP3/wD4qkX9oPxP97+xtL/8f/8Aiq8KtdaU/LeRfN/fWtG3udNkXct5HH/svW/tTX61W7nsq/tCeI/uto2m/wDj/wD8VUsf7QOvSsqtoOmyf7O6X/4qvHJJ9FhXdLqHmN/diWs+68QrHuj0u28rd/y1l+ZqPah9aqdzofiN4lk1LWr3V7pIY9QvW3eTF92L5a4RS27c3zFv4qRmkeVnkbzHb7zNS/8AoVYSlzSMvi95km75aN2aj3U7+KgBd1G6k4ptBI/dRupN1HFABuo3UZ+WimA5fvClm2eZ+7+7UVFAA33aIZpba4SeJvnSilZaRR09u8GqW/2m0+WX/lrF/Etd14J+Jus+HYPsN5F/alj93ypW2sn+63/steOWs0tpcLPbO0cq/dZa3rXxIjqq6jZ7m/56xfL/AOO0S5ZbmtCvVoO8Ge2t4y+FepP5+peGVjmb73+jf/EMtH/CzfBmiRN/wjXhhVm/hPlLEv8AwJvmavH/AO0PD0i7vtksX+yyVBNqugw/Mstzct/dRNtR7CB2f2tW6RRteMPFWteLL/zdSlZkVv3Vunyon+6v/s1cjrF55Km0gbdM33m/u0t1rs8qtFZwLZxN95vvOy1mfu1+WNWVf4mb5matOaMY2icFSc6suebEt02rVi3XffW67f8AlqtRLVjTV36paL/01WkSZ9xxO6/7TU3+98tFwv8ApUv++1NmHyNTJNTTX+z6TcS/3laufXcy7q175/J0NY93zPWRt2rUFH3L/wAE9NShuPhlremb/wB/Z6rvKf3UeNdv/jyP+VfTlfFX/BOnVVi8U+KtGLf8fFnBcL/wBmX/ANnr7VoAKKKKACiiigAooooAKKKKACiiigAooooAKKKKACiiigAooooAKKKRqAPz1/b11ldQ+OUunqdy6bYQwt/vMvmf+zrXz5/u13f7QWsvr/xn8V6m0vmrLqcqRn/YRtif+OqtcJVgafhm48jUtrfxV0GqDdcNIv8AF81cfDK0M6Sr/C1dgx+0WUU6sv3agCr0/ipk3zbf4qd/FS4zVEmlt2SypuX5m61Bv2MytXTeGdQ8GSWa23ijTb6OVflW509lZtv+0rf/ABVaUw+Ejqz+b4rZv7zJF83/AI/TJkcJNIquy/KtRq6n5vu7a7uSH4SK25m8V7W+622L5v8Ax6qrJ8IPut/wl7fN/di/+KoGcdvXau193+zUUjyc/vG/76ruJE+D/wDD/wAJft2/3Iv/AIuq7RfCct/x9+MY1/69oG/9npMZxnzt83mN/wB9U35t33mrsPI+Fv8ABqHi1v8At2gX/wBnp/2b4Wov/H34vZv+uUH/AMVRyhzHHf8AAqeu3/Zrd8TWnhAWcVz4X1DUpHX/AF9vqESoy/3WVlZlasBT8q1XKUOZlCs8n3F/8erT8D+Gb3xRq0Uuz5Gb5A33FX+83+zXP6tLssTt/ievY/hOY08Hs0CrHK8SJ5v8Sr/FRElnWrb22l2FvpulRbmZW3ui/PLtX/Z3N97/ANlrCZbl1Zm8vav+2qo23+Fm/wA/drUuGa4SVIGadIlVXWXamxvvfMu3/wAe3N8q7W/hqh50s0DNIkCp/cRFR1/i+VF+Xb/wH+Jq2MyS3u1gZZLOSRXi2yoyvEu3b/C3+f4v7zVrXFrpniuwax1AR2l7AjP9puGRGllZvmZtzbtv3f4f7392sCSZpoEaNZdrKytLs2Myr/d+Vvm3f3akkb7NEjJdTwbl2KrL97+8u5W+Vfm3f7VMDyjxRo0mlTtKq7U3fMq/drMV1K/dr0X4kTRf8Io/y7n2/MzptZWVq8yt3zErVg/iNIluOJn+7Rsbd99m/wCBUyFnkuIYIn8tp3VN393dXd6Svw90qJoNV0zWdXu1b55UuUii/wBrarK1SBwvzr92WRf91qN0m7/Xybv9+vTI9d+Fau3/ABR2pbV/vTp/8TUa638K9zb/AAXqTfxL/pif/EUcocx5wzt/E7N/vNSeYqt95a9Hj174Xqys3gK9k/2Wvl/+IqVvEnwv+6vw1k/3m1H/AOwquUOY8y81dv8ADR5y/wB5d1ekTeJ/hkVVl+Gn3f8AqI7f/ZKqt4l+Gvyt/wAKyZm3fN/xNW/+IqeUOY4Fpl2/eq7psbf2NqF592L5Yo938TV2DeJfACNvtPhlHu/6a6jvX/0VXK+INT/tV/LttPttLslbcltb7mVf+BN8zUWAxct81HNWIbbLVft9OTcu6gClp4Z7gMqs235uFqC3tH1LXPIaeKD73MzbVr0/4f614R8PRXC6j4Og1mWddjS3Fyy7F/2VX7tdMviH4RXj7bzwPfab/tWV0r7f++lo5RHk3/CLaq21YFtLnc21fKuk3N/uruqhqGn6hprsmoWNzaMv8M0TLXtbab8KNT2ix8TahpsrfdXULH5V/wCBJuqtqXgXxBb2fn6DrVlrdky/dtLpX+X/AGkquUXMeK5Wnda6jWrBbedo9U0P7JKvy7oU8pv97b91qwrjT/l32M63K/3GXa6/8Bo5Q5ilnNO3Uz/ZbcrL/DS7v++qRQfw0rfMv3ttG1d1DL/u0CIsfw1H8v8AE1Pb71NkWgYi07H8W7/epqru/wB6o75mitXb+L7tICvY2N14h1yHT7ONpGdtq/7v96t7VryzsN+jaVtaKL5Jblf+Wr//ABNJ4IuG0bw/rGsRL/pbx/ZbZvRn+VmH/Ad351naXYs7bpP+BVMfiCQyOFj8yxtXtmk/s6+KNX8L6ZrWjX0DNe2cVx5Vwu37y7tqsu6vNY7eKJGVVr7u0eaSz/Z4tbm2kaKaDwsrxuv3kb7N95arlJ5j4Z8dfDjxn4NcSeIdDuba3dtv2lV3xN/wJa5W3mazvEl27lX7yf3lr74+ANtH4n+AGj2uvs2qRXSXVvP9pbezp57qqszf3V/9Br4n8caAmj+IdV0xH3fYryW3Vv7ypIy0SiHMYPia0W1mtdYsG3Wt5uZWHy/N/Ep/2qfG/mQLIv8AFVi1dbvwzqWjSrueB1u7Zv7v8Lr/AOg/981n6K7PavG38DVMSiVuN25aazfLUkn3qi+X7v8AFVCJFP8ADUq/e3VCv8NP/hX5eKBk1JIdrUzdt/3aVmb/AHqYB/FTv4dv3Vpse522xrub/ZrVt9IiTa2p3PlBl+WKH5pP+Bf3aBGVWrZ+HtavIlnj02WOFvuyzfuk/wC+mrpvC+j6hfz+R4e0H522/vtm9l/4G33a9Aj+H9rZwfbvHHi60sVXbuhSXz5/++d1AHlcfhBnt1efWNNjZv8AllFvlk/8dXb/AOPVkeINCitZ4YdOkvbt/vO7W2xV/wC+WavbZNY+E2krts9M1nW3X5Ve5l8hG/4CtTQ/GDT9N2r4f8BeH7JVb7zxNKzf726nygePXFhfJ4fW5ltpPKX5d+1vvf3a52RWWvcvFHxu8T6/pc2lXem6NHZT/fRLNfm/u/ery28jguHZlijXd/CtHKMx9PKreKrfdbctQw6fqaO8H9mXsjJ/zygZ1/8AHavNZxKzMu771dLofxD8U+HrNbG0u7aW1VvlS7sYp9v+6zqzbaOUOY437BqY+9pWpL/26v8A/E0n2PUt3/IM1D/wGf8A+Jr0j/hcvigK2600Bmb+JtHt/wD4mom+Mfig7d1toXy/9Qe3/wDiKnlDmPOZLe8Qbn0+9jX/AGrd/wD4mlt7h7V2aTT/ADP9maBq9HX4v+J2YbrbQGX+7/YtvtX/AMcqBvij4hI+az0Dd93d/Ytv/wDEUWkHMeeSSyTytIlpIu7+GKBlVamt7DU7j/UaVqEu77uy2dv/AGWu8/4Wb4jLblg0Rdv93R7f/wCIpV+KPiX+GPSV/u/8Sm3/APiKOUOY5FfDfiXb/wAi1rP+1/oMv/xNV7rR9atI913ouqQL6y2rr/7LXe/8LT8VL8ytpa/3f+JZb/8AxFJcfFXxfJE0f2nT2Vl27W0y32/+gVXKFzzRWyv96pN1Ta1NA95azxQLE86N56p91m3feX+7Vbd/dqShd9MaZU+9US+dczrbWy+ZK/3Vr0Pwj4J0i2iTUPFdyyo33YUXcz/7q/8AxVVGPMTKRw9nFPeMq2sFzdt/dt4Gers2ia9EnmN4f1eNf7z2rLXsUfjzT9JtVtPD/hfTY4lb5Xu2eX5f9xWVP/Haib4pa06sraL4XZfu/LpMVV7MjnPD2laJ/LlSSJv7rrtp6v8A3a9R1TxBputsq6noFhG//PW2Vk2/8BbctcZrXhPy4GvNDkaeFfvQt95aUoFxkYan5d1Lu+Wq8Mn95drfxK1Ss1QUPhSS4nWCCOSWVvuoi7mrQ/sLXlVn/si7VV+Vty1L4X1m58P2suq6Vti1VJ1WK52qzIu3+GtBviX8QXdXbxr4gZlZW+a/l27v93d/s0EyM9vDutfZfNbTLlSrbdu373+7VWTQtcT72j33/fpq3ZPiR4/dmb/hNPEHzfK3+ny//FUxfH3jhV/5G/X2+Xb82oSt8v8A31VcoHPtpmq7V3aRfLu/6dmp66NrX8Oi6h/4DNWu3jLxcf8AmZ9Z/wCBXj//ABVR/wDCYeLf4vE+s/N/0/P/APFVPKFytD4V8US7dnh7Um3fd/0ZqvR+AfGzru/4RXVl/wBprZlqGTxh4sK7W8T6y27+9eP83/j1Rf8ACU+Jdu3+39Wb/Z+2P/8AFVXKFy+3w/8AHe3d/wAInq393/j2arN14M8Q+E4odc8R2K6fF/ywhmbbLK23+FPvbf8AarCm8SeITt3a9qjL/tXT/wDxVZ95e3d82+6uZ522/eldm/8AQqnlArSMzSszbfm+Zqbt3Oqf3qcxX+7S2u3zvMbolMCHXJczwwL91aqtuoZ2mvJZd3y7vlWiT5d1QUe3fsN6s2m/H/T7b+DUrO4tW/7481f/AECv0RWvy3/Z91GTSvjX4RvEbay6rEjf7rtsb/0Kv1IWgBaKKKACiiigAooooAKKKKACiiigAooooAKKKKACiiigAooooAKyvFepJo/hjVNWlUtHY2ctywHcIjN/StWvMv2odYbRPgP4qvUba72f2dT/ANdWVP8A2agD8xr6eW5vJbmVt0srs7H+8zVFQ3zNTuapgM2b/wB3/wB810PhufzLRoG+8vy1z7fe3fxVasZmtL1JV+49AG3Im19vzU6P+9/DUl1tfbLH/EtRLu20Ej1b5t33qXdub/ZqNtq0K/3vmWgB7bdv3qZs/wBmpP7u6jH8NAEW3+9UbLt+Wp6ZIu75qAK/3W3U/wAw/wB2msvzfdpkm4fdoAS4b5Xb/Z/9mqZapTO3zL/s1ajPyUwKmvH/AEVP95q9h+FDM3gptu75lT+JVVmWvHNaDG3T/gVew/CCVf8AhDpFd1XCLlXXcrL+X+zTiEjp5LloZvNvluVt1X93CrbdyK33V3L/AHtvzfNT7iC5vLprmeKWTczSoq7Wd1b+8+7aq/N97+81RWcEElwy3cUs7Nt3RMj7U/i3blbcq/L823+H+GlW4WWdXikitop/leK3ZWd1/vNtXb/u/d/vf7VbGRM1rsuGWCWWD/lqrLKzMkS/My7d25V+b7zbaidLSN1+13UWzarRLDAzsu7+JWZlb5t396nMlpHulYLJv3OjzQMzK+77zJ/F/wCPfw027iurhPKgtYLtXVlX7NbIjs38TOqru2f53UpExOM+JzSf8IlLEsEsaxO6Nvbc25Wry2zb9xXpvxAhx4UuI/vGJ2Vm3L8zfL/drzGx+5WUzeJdtztv7Vl+95q/+hVqXTYnf+LazVjxt/pVv/11X/0KtW8bM7/Lt+apCRExy26kz838VMblqRvvUxDsn/apGf7zVEzrTc/xUASs+1d1GVqDOalhVtu5vvUDJVXf/eqzHDHtVv4v4qrr8vzfxU9psfxVQi8pVP71P81du7+JqzPtK7fmamNeL/e+WpA1ll+X+Gn+cu37zVireL83zU5bxRt+agDY8xt3y7v+BVatbye2l82KeSKVfmV1+VlrDW7XH3vmZqnW5zu3UAd3Z+PNVNu1rqqQava7duy7Tcyr/st96oNU03w1rP73R5W0u7b/AJdpm3R/8BeuOjmb+9U8c+2qAdrVjeWEr22q2rM38Mv8X/fX8S1iyQMsXmK3mp/eWuttdWZ7X7JfItzat/C33l/3WqhqmlLDuvNKk82L+JG/h/3qAOfz8tL8pp0iK6s8Xysv3k/u1Cr5apGPZf8AeqKpd25ajZWpAIvyrVfUlZ7X5f7y1bxu+9TLhN8DKv8AdoAdZyZ8P/Zl/wCfne1aeixy3F1FaW0Ek8rttSKJNzN/urWTpcKyadKyN+9il2um7+Fvut/463/jtez/ALOPxT8NeAGuINa0NvNuJdy6nboryov9xlb+H/dquUmQ/Rfgr8RNS0u41CXRf7NsoonmaW+lWLcqru+797/x2vprzdn7OS+X/wBCp/7bV4v8SPGfgrxhZ31zqfxd1u5tGR2tdHtNMaBf9lX/AIW/u7mr1q3uEl/Z1VkZZAvhjbuVt3/LtTEYXwF13xHo3wbtNMg8Aa/d3tqs72zMsUEVxvlZ1bc7Kyr8391q+dPHngL4iaa97rPiPwvqUSzyvcTzKiuqszMzMzJu219FW+neNr/wvbXPj34m2PhLSVtYmW20vZA+zau3fO/zbv8AdrhdQ+M3gPwHptxpHgSPVtfmd9z3F7cu0Tv/AHmZ/m/4CqqtBMT5kjZYb8uv3XiZKr6aNj3fy/KrbflroJNQim1HWPEuowQK0qyyxQxLtj8+Vtqqq/3V3M3/AACsWxikhsvMb70rbqixqMmO77q0xR838X3afIGqNVoAlX/aX5qd91l/ipuf7u2hdooAkYqrfeapreCSdTIzLHCrfM7UW9srJ59zuVG+4n8T/wD2NdHoejS6ptur5vIsov8Avn/dWqiBX0OwvL2f7JottKzMu1nX7zf8C/hrrtP0jw54cTz9cl/tK927ltYm+VW/2mrPutaSzt/7P0hfIi/jf+J656abc25m3f71MR2OsfEHWruH7Hp7R6TZfww2i7N3+9/erlJrhpZd8sjSOzbmZqpbsNuZv++Wpnmr91aALvmKcbqa0qqtU2lwvzfLUTXaD70q0AXmmXbtZvm/2VpjSLt/+xrP+1QH/lutRfaYm/5bq26gDS82opNjH5qqNJ02urf7tR+cvzbvvUATzRR/w/LUGz5aFkb738NIzM6/eoAM4Wl83+GoJPl/ioX7tAFtWyf96n/xbttU1NSxs277tAFvO5du2myM22mKWZqWRmK/NUjMy8dmv4lb+FP/AGamzS7F+WmXB/4mX3v4K0PC9l/aniiytW+5v3P/ALtIDsPC+kRaDpKaleIrX10u+JG/h/2q7D/hEPEc3hlfFElszWkvzbt/zbP+em3+7XK+IL9rvVpWT/VI2yJf7qL8q13Pwp+Isugsmkarul0pm+VvvNBu+9t/vL/s11UIxlozmqylHVHBXXy1X35Py7q9b+KXw/g+xN4h8PbZbR13vFE25UX++n+z/wCg15MtpKZ1iVZGLfKu1fvVc6UoSsEKsXG5JZwy3d1FBBG0srttRFXczNXZ+JPBWveD9LstXuZIF89tkiK+5om/ut/e+Wu48B+E9M8DaI3irxG229VNyo3/ACw3fdVf7zt/47XmfxC8ZX3irVPNlZYbWLcttCv3UX/4r/aq5UowheZEaspS0OY8daJFcaf/AMJPpke1NypfQr/A397/AHa48H5a9K8OuswuNKn+a31GBoHX/gPytXmrRSW7y2kirvglaJv+A1wv4jsiSwtv0+df7sqt/wChUka/71Ja5+yTL/tr8tOUfLQgHr92nK1M/ho/2qQCtzSZ/wBn/gNNY4X71MY/N96gCVv+BVHupN7U1qAJ/vJUTfK1C7trf+hU1v4mZqA5hGbFQXkrQ2u1fmd6c3L7f+BVD/x8TvK33YvlWgBsabE201t26paibioKLWg3smm63Y38TMr2tyk6/wDAWVq/W6ynju7SC6ibckqLIp9iK/IReH/3q/VX4N6kurfCjwrqQbd5+lW7Z/7ZqKAOuooooAKKKKACiiigAooooAKKKKACiiigAooooAKKKKACiiigAr5z/b91lbL4MW+lLKyy6lqcS7B/Ekas7f8Aj2yvov8Ahr4u/wCCjOsk6x4X0BT8sVvLeP8A8CbYv/oDURA+RuKdQq/LTlWqAbtqSMedA0X8S/MlMb7tOVtjKy/w1IGxotz9ot2ik+8v96rDDazLWPn7NcJdRfKj/eraV1nhWVf4qCSP7vy0UM33V/8AQqazNVATr92mr/Fu+7SbstSqrbfmoAd8pX71H+8tHzDb8tHVf/iaAImi+81Qsvytu21Yk+X5aiZdy7qAKUyfe/3asQ7Nu35qJEyjfwrtai13FfvUwE1BFeCJdu371d58L9aW00OW0jkk3OvzKjfe21xMieanl/LuX7v+1VWx1HUdEvHeBdu5t21loA9rbU42WFHtrnyt26XZtVt3+z8vyrt2/L827bU8mt3KhvsqtEirtRViVdnzfw7a8e/4TvWV3bYo/wDvqo28b60/3VjWr9oTynrralO/+ktFI1w27cu1Vj27vurTLq+ujH+7h+VV2uGVW3r/ALX/AH01eRf8JfrZ/iVf+BNQvifXGb5pV/75aj2gezOw8dX7LpctiyKqNuZWVdrN/vVwUI2otS3l9eX7L9pm3bfur91abIy7Vjj+6tZylzFRjykkKs91bqv/AD1WtS8+WeX/AHqztL51S1X/AG1rRvmb7TL/ABfO1EQkVmprNQzVE3NMQrbf4qSk3bvlpc4oGOXaKd5u2oJH+Xb/ABVTurxY/l+8/wDdoAvSXG3+6tUrjUoE+VWaSsue4lm+83HoKLa0uLmQLDEzn2FK4yabUZmJVcKtV2upz/y0Neg+G/hR4g1V3jlRraZTt8lk3Sbvl/h/u/MvzV6Hafs3XcmxptVWPazK6lfm2/wttX7rf7LNu/vbdrUe8LmifPPny/8APRvzpwuJ/u+Y1fRt9+z9o9vfabbnXELXjSx5V125RPvbtzbfmZfvbap3H7O1y9u89tqa/Z1Yo0yDzVRtu5dzDau3+HPaqtIOaJ4LDfyp975hV+z1NM/M2011fir4UeI9ELl4A0Sk4csNrf3cY9RXBXVld2ozPA6DON2OKn3hnS294v8ADV2ORWbd8zVxVvcywH5Tx/drb0+/WRdu7/gNVzAdBHLtXbu+7VuzvGhb5WX/AGl/vVjwzZX71TxvimSaWpWS3S/brH93KvzMlYEyrIrTou11/wBan92tq1uWiKyK1M1izVk/tOzVd3/LVKkDGX5lWnbqZJtVVkjZvKf7u7+Fv7tNVs0hkjct8tKvFNU/7VO/h+ZqAM/UFltZ/tMW7Z/Fiujsba2161WfTpY471V/e27fLu/2lrPZQ8bK21l+6y/3qzls7zTrj7VpryKy/wAK/eoA3m03UYflezl/4Cu6ren3/iOwtbi20+81e0t50ZJYoZXRHVvvKy/xLTNL8dOirFqdqzOv8aVtR+M9BZN3myq3+41TzSDlOf1C41fUp1e+lvr2XbsVrhmdlVf96pY9Ia1ga+1dltrVPm2Fvnf/AGauah4+tYlb+z7WWV/7z/KtcpePq/iG48/UJmSH+H+7/wABWqvIOUZJM2t6m2xfLtEbdt/hWtCZlb7q/J/CtOt4YraLyoF+T+L/AGmprfMtAFdlzTcLU8if7XzVEy/L8zUAN/4Duq1Z28e37TOv7lW+VT/G392orWFrmfyt21Nu5j/dWt7RbNdRuvNkXZZW6/Kv+zQBZ0HTftL/ANo6j8sK/dT+9/srVnVtVedvKj/dwp8qIvy1HrGoeayxRr5cSLtVVrFmlb7y0xD5pvm2/e21C0vzfLUEku7+Kq19ex20TZZd9AFuSZUXc7bVrMutaii3LGu6sS8vprluW2r6U2xs7i9nWKCNmZjS5h8pNcanPKflbbVVp5X+9ITXpXhb4RazqsVpNdzLbLc52wpGzyqP7zL91fmwvzMtejRfBfwBo0CyeIPFMTOVV/Jjbc7Kf937v/AdzU/eC8T5t8x/7zUeY/8Aeavo1/B/wjtdNf7PDrF3d+X+7Z4tqM3zbWZt/wAu7733f/Qaym8H/D+a3gWWy1KJ/KVZfK2/KcMGZW3fN/D96q5JE+0ieFx3U6HKyNVqHU3XG9d1el6l8OdDuVR9PvpbOTG2SKVN6K397du3ba4zXfBuq6c90RGk8NuMtJE2V256r/nvScZRK5oyKkN7FL908/3WqzHJXNsjxt8ylTVi3vZIzh/mWp5irG4rr/EtDbarwzK6rtZdtT7sq33aZIqt/e/hqWN9tV/4afHQBbV6du/vVXjepVbNAjJm/wCQo/8AurXQ/DuRYfEcsrfeWJttc79+9Zv9ir/h24+za2jbtqv8tIZ1EnzNupquytup0yN5p2063heSTaq/xVvEykej/CXxzdaJcLpt80tzpkrbdn3mgZv4k/8AZl/ir1iHwx4c0vXLjxDHY7ZUiaVYlTckTL8zMi/3v9muT+Hfg6x8L6X/AMJR4ldYniTzUidf9Qv8LN/ef+6tZtv8Y3HitpJ7Nf7Jdtqov+tT5vv7v4m/2a9SHuwXtDz5x5n7hyPxK8V3niTVGeVpI7GJtsFvu+6v95v9quKVvn+avbviR4Es9W05/E/hrbIsqec8MX3XX/non/sy14rcW7RO275a5MTFqV2dVBxa0LumyeXcRSL1VlrkfEQVvEGplP8Anvu/76rqLV9vzN/D826uNupmuJbq6Vv9bO1cUjriJZ/cmX/aWn7sfd/hqKzRvKmb/bX/ANmp/wDwKoAd95mamt/lad/C1Nx8tMBGprfe+anNuHy1E3/j1ADs/wANNjDM3WjblqftoAF+9tVaSZ1HWlz8vy1DIPm8xvu0AiKR2C+Wv33qZkSFFij+bb95v7zU61jZImuX+83yov8A7NTGpFEVMapW21FJUgQ7sOtfo7+xhqsep/s+aFCGZpbCS4tJd3+zKzL/AOOOlfnA3DV9yf8ABPXVTc+BPEOkO3/HpqEc6/SWPH/oUbUwPqKiiikAUUUUAFFFFABRRRQAUUUUAFFFFABRRRQAUUUUAFFFFAAelfnL+27rH9q/HnVYFkLR2EEFqoPbau5l/wC+mav0Zb7tflV8ctYbXfi54q1T+GfVZ9n+6sjKv/jqrVRA4xaWkpaAH0baVf8Adp60ATWbR7Wgf7j1PYzNZztbSM2xvu7qqr8rbqtbFuYNrfLKv3WoAvSfJ/tK1MqvYzMd0Ev3l+7uqdtyt81BJJnFDFttRKV3f7VL/Du+X/doAcr1LlW/2ag27l3U5fu0APbbSbV202nUAMb7zKv91v8A0Gq9q+Yl/wBmrbN95f8AZaqNqcRf71MCRj8u3bVebc3yszfLU7N/s0xsE7aRRX8rP3Vb/vmk8l93+rk/75q/fXeoLao1jPLGqKqsiNWT/bOr7ju1C5z/ANdGo5QLfkv/AM8pP++aRhIrfMrK3+0tQW2p65POsUF5dSO33VVjW5fSGLTfsd1O13dsys7M+5Yv9lakDJWnUMtN25qgLek/8hW2/wCulaeof8fU/wDvNWXo/wDyFrX/AH1q9qUi/bZvm+be1BMiFmxTG5P3aXq25fmpyj+LbTAjxt+8tMkfbup0z7lrN1C58sbV++1IBl/eKgMcXWs6MNLJjlmNEY8yVVLfePU13PgjQmnEs6MuxUXM3lq3l7l+Zfm/i+ZV/wCBf7NHxFFTwj4aeeSK7vYt8LN+6i6ea390n+7/ABN/s/WvTPDNvY6G9u+nxLc3Sr80z/dV9v8AAq/Kvy/8CqHT9Ktt6/Zk2/L80rfe2/drpbGztLZFZmb7u751+bd/u/xVvCmYSqBZ3OvOvmWc7Wi72bdCu1vm3feZfmb7zfepv9iahcz/AL+WSV9n8bbmZf8AgVXf7RWDbAnlRH5dvzfK38X3v4f+BVK2qsd7P+72r8js3zbv95v9r/erWMYmZmf8I3v37m+ZW+XZ826om0S8t3Z7aXy2X+NW2/7NbdnqUs2xopPmlVmb93u2r/7NVe6k+zX7wNO0u1n+VW+X/gK/71V7pJntf+JtKVI/tTSRIjRKk210VPl3R/N937q/drn/ABAYNYdFvrWK0WJNsSsm+Jd277zfe2/Mq/eb7q/NXUfbtybWgX5m+58zN97+7VO8htr3dbJtVt23j+L5qiUYyKjKR494y8MJp1yXs5N1u6+bBj5v3bfd3N/e27a5HbJBL8wKste26lpUXms0fySr93b81eeeJdEW2T5Vlkfbu3bflVvm3L/6C3/Aq5pw5TeNTmM/Tbzzl2t9+tOObn5v++a5KNpIJdw+VlrbtbpZkVx97+KiMjQ2o5lrQ0+78mVWb5kb7yt/EtYUMv8Au/7tW7d6RA/WLVLO9aNf+PS6+ZG/uNWdt2Fkf7ytXRxqupaXLp8n+uRWeBv/AEJa59v30SSsv71PklX/AGv4aQxy7dn3aVWVqiWpFoAepx/DViNlPy1X3MKfG1ACzRRO3zKrf7y0nkWwX/URt/31T9rMzf3vvUbMtQAQx20XzLHGv+6tTMV2NtqPZ8v3f++qVt27/ZoAY1N+Xv0pzH5qZlaABvu/dpkg4p7P/d+WnWe0y+a/3Il3tQBYt7WVvK0+Bd007fP/AOyrXR6pNBZWaaZbbVVF+dl/iaq/hdfs9pda1Ou6Vm2xbv71ZV5cNJKzN/F/FREJEU03Lf7VVJH3USOzVUuptiMzUwiJqF6ltEf738Nc5NJJPLuZtzGn3czXEv8A6DXQ+DdKS8vo5HeSN1lTndsVV+YszN/D939aRQnh/wALXN/eRxXBa283y/LDxtufft28D1Vsr/er1/RYdD0DT/IbTvM1DdEyIyr/AKPEu5lXd/e3bdzfe+b+HbWLay7YPItII/OZmZ5iu5l+Zfuf3fuLt/u7mra0+wW3TzHZWVtrbm/irWnT7mUpF+41TWtVSWLzfs1qy/8AHvb7lVV3fdZvvN/D95mqS10VVX5vl2/NTGnjiTdFKv8AFuVPurUMl87P8rSSr8zMysu5f97/AGf+A1v8Jj8RvW9tpptVaSCNWZfmcfNv/wDiafHBp80LbY41RW+8rfxf7P8AFWG14yK6SfLu+ZXZdu3c395l/wBmoFuW+TcjSbl2qqLu+Zv73/7VVck1Y7TTbgv5Tr8v+1u/z/D/AN9VSvtM+9tkjZWXbt/u/wAVVo76W2dZGZY2b+Ffm+b/AHf9mpm1HIZtse3+NVbdu/2f7tTIo5HxP4Utb2Bo/K8uVN211X7v3f8A4mvL9Z0K+012aWJmhz/rVX5a9++0rKfLliVvl+ZV3bvmrH1CwV42Zn83d/Cyrtb/AIDWU4I0jUPCLeYwv7Vr29wsq7lq34t8OSacxurbc1u33v8AY/8ArVz1rM0UlYfCa/Ebymlz81QwvlVqdaAFU/7VTxurVXz81SRtt/4DTAqMNt6rbvvJ/wCzUyYMkquv3lbctT3S7Whdf4l/9mpsnzrSKOz02Vb+yiuYl3bl/eV7N8IfDOjWGgv4y1me2aKJmWLf8ywMv8Tf7X91a+b9B1WTSbhty+Zbv/rU/u/7Vd7Z3P2yw3afdNJau29olf8Ai/3a6aFWMXdmFWEpKx0fxO8bXXie9ZI2ki02Jv3EP/szf7VcI27zP9qrsysPlVaiZG3fw0VK0pu7CFPljZHZfC/x5d+Fr9YLmSSbSpW/ew/xI399P9r/ANCrqvjRo/hy50SHxZpF9aK90+1oom/1/wDtKv8ACy/xV5HDC7SbVRmarGqXlrotqJNQfzJf+WVurfM1X9Y9y0jP2HvXRl69M1jp3lL/AMfFx8iL/FXNzeWipBH83lLtZh/E38VWL68nnu2vrr/j6df3US/8sF/+Kqp9xP4q5DriWLXatlMy/N860xf4dy1LbjGlyt/elX/2aovvKtIQ7copuflprHb/AL1Ku4/M3/j1MQmVpPl/vUN8y/d+9R8ofbQALS/+PUbdq7qRUaRtq/xfxUANVWdvlqaOFZX+b5Yk+Zqljh+Xy13f7TUTMu3yo/ur97/aqCiG4fe25flX7q/7K1XYVM1RNQBG1QSH5fu1O38XrUElAELNX1T/AME8NSeLxp4g0tpdqXWnJLs9Wil+X/x2Vq+VGr3b9h3U2svjvplszbVvLe4g+9975Gf/ANkqvsgfolRRRUgFFFFABRRRQAUUUUAFFFFABRRRQAUUUUAFFFFABRRRQBkeL9TXR/Cesau7bVsrGe4LemxGb+lfkpqVy95fT3MrbpZZWdv95q/Sn9rPWV0T4CeJ5i7K91Atmm3/AKasqt/47ur8zm+9VRAWnr92mfxU9eKAHrT1+9TF/vVLGtAD1WpY9ytupsa1Io+bdQBJNEswWRfvrU9u3mpsb738LVHHw33vmqXZu+Zflb+KgkZJ8jbdu2mrzVuMLOm1vvLVa4heFtrUAO3c4pFb5qjXb/ep+floAfnNMz81HX+KhfmagB8O4vtX+61Z8b7E2/drVsZmtL2K5VdzRturs9J+FzeJ9KfV9F8S6QrszbrS4uUikT5v4t7rQB51vpOtekx/BDxKf+Y14d2/9hW3/wDi6l/4Ufrwb5vEfhvdt+7/AGrb/wDx2gDzJZWRty7qkSxs9TukjaeGxdm2tK6nZ+O2vSW+Cmro+1fEvhlm/vf2rbr/AOz0f8KU1d1bd4o8Mr/d3anb/wDxdAHn32izsLf7Lpy/M3+tuGX5n/2V/urVBnX5vlr03/hTGsbvm8UeFl/2v7Vg/wDi6a3wX1BJVjbxj4UX/e1OL/4ugDzHfSM2P4q9Tb4KXiuyt448JLt/6icX/wAVTF+DMr/8z74OXa23/kIp/wDFUWA820XcdXtVUMzb/u1oasI/tku5dvzNXT3Hh7TvA16122uabrt6sbeUlo29Eb+8zfd+WuLmk812kdtzM25qAJ49u1dlEjf3aiWTYn8NDS7qAI7h1RWZvurWDcSmSVmar2rS4VU/vferPhTe+2go2/C2kyajfKir8n3nb+6tes6fbR+VFaQI0US/d+X5m/2m/vfKv/jtYPheyWy0uKJV2yv88r7t25v7v+7XRK+xkXd5f8O5vm/2flrSEbGUpGjHPFCoiXy5PmZfu/N/49TftE8zfv1kVF+Ztq7tv+9WT9pUo0rT7l3bd7rtZqVbi5G1meOP7zebEyqzVuYmg0yq3349rMu11ZmVW/3W/wDQvvULMxuHjaJpTt2bl/iX5f7275t23+7WUzwR/N5rLKv+tVU83d83y7W3N/epWMjxLtilg+8qN5XzN/wJqANjzmVWaONZomb5ZV+98rf7P/s1RyXO6Vl2eUg+bZErKq/8CVvlrIzN5EK7pI2X5YEVN77fu/Nt/ipLiaK3jV/tLRPu+VplZd3+0zf/ALVAzT+0xbm/fyqrMyru3fN8tI0s9u7LKu1Puoi7l2r/AHv96sqa6luYvl8y5Zt21lRvn/3fm/8AHttCyLDEkEsDRIq7X+fezN/vfxUCNyS4jbd8235fu/3f7tZ+tWtteWzROn3maqi3CBtySNsVt21W2/NViF2dP3m2Nf4VZtzNSGeUeJtMlsL94GVmVF+Vqy7ObyZf9k9a9K8aaat9ZFl2+ci7l2tXlzrtfbXPOPKzojLmR0ELrtq5C9ZGmyb4dp6rWnDu+X5qkDVs5nhlSeP7yNuqLWoFh1l1X5be8Ten+996mQv/AA1L4g/eaNDPt+e3l27v9lqGBmrtX5dtSr8q7v7tR/K58xf4l3VKvzbd1ADlpc/d3feoxmnY+agB8fzfNT/l/wC+v4qjX/gVP6fxUAPbb/e+X/ZpjNRj5qb9771ADWP3qjzipJP7y1Cy5oAczVKoYxRW0a/PO27bUX3j8v3q0PDaLP4hibbuSL5v++amQGzrzLa2trpsf/LJPm/3q5yZ12/eq9rFy09/LL/easuZudtVERFI1Y2sXO5vKU/71adw+xGZmrnZnZ5WZqqQ4kunwefNt+b/AIDXpGj2C2ll5e398z7dv3tqrXNeE7BXLTsqsqsu7d/FXc6fH5r72/3vl/hqYxCUjW02ARhW+X7u7d97bVnzGKrG8m1WbbuX7q1SumkC/LHKxT+JN3y/722ofPtnj2RfLKv3le4X7u3d8q/e3V0mBpR7xt37fm/56t97/db+GoWu99wqtFIyMu75m+bd/s1mxpEWXbJ5ny/cdV2/99UiySzKrRxRtsX5XlXcyr/tKv8AF92jmEX5rlbdt7yyQL8zou35dv8A31uqXz40RG81o3dd/wA23av+63/Aqx7W4tX3tFPGzq3zbotu3/gP/wBjQ21FaKdIll3b5XdVdt3/AAFv/HafMBp29yvn7VkjX5dytL95fm+6zfw06ad41lldo9jbm3qn3f7vy/xVlTXi3Uq2yrFJMr7nZ1ZG2/3fvfdX+7SSSxqu37v8CskH3vm/gZv/AEKmBrNI0OxYo2Xe25VZdrf98/8AxVPju2Pyr91v9nc22sma48iVmllaBl+X978zUsd3IjsqyFfmXcyr8v3fu0gLeoW0VxA0bfMrK33l+9XkfinS/wCzNSaNQfKf5k9vavWYZWZG/d/8C3bmasTxjpiX1jL8u11Xcv8AstWU43NYyPOdOm+8jNWlHWFEfLmBbt1rahbcuayiaE/8LLT9y/w0xWp8f3vu0xDNQ3fY7Rtu371V84rWtYk1C3g0qWeO2ZJd0Vw/3V3fwtXoFn8D9SubdJf+Ex8LqzqrbP7Qi+7/AN90uUo8nk5+b+KnWs89rL5trcSW0v8Asfdb/gNesN8C9XX5V8VeGWbc3y/2jB/8XVCT4N6qq/8AIz+Gd393+04P/i6knmOasfFmpD93c2Npff7SNtarjeJ3Zdsfhpt3+03y/wDoNW7r4T6+jNt1Xw3Iq/xf2tb/APxdQf8ACq/EHy+Zq/hePd93drVv/wDF1XvBoULzxDrE0Tqj2Olp/sNuf/x2sLzVEjSRvJc3DfeuJvm/75rtYfhTqLL+/wDE/haL/uKwN/7NVuP4V227bJ8Q/C8f+7dI3/oLUWkB54oZn3MzM1K3Feht8MNNVFZviT4Z3f3fPX/4qnR/DXRUiaW8+JvhuNF/uMzs3/AV+b/x2mBwtnEx0h32tsaXatQ/MP8AgNa2rXFpEF0/TZ2ltIGZllaPa0rf3ttZn95v4j/DQEhq7S3zNTt8a/LuZv8AeqFj/DR/F/s0AL8v3vu0irhvmpu6rdjYSXLfd+T+9QBHbpJNIqru21f8jyF2r95qubIrOLYirv8A7tUpnbd8zfNUFEUx2K0a/e/iaqrfeqVv96om+VqAGNUbfeNSNUTCgCOT7zVXkqZuKryUARSV2vwL1pfD/wAWfDOrybtlvqcDPt/us+1v/HWauKqexlaG6ieORldW3Ky/wtVRA/YBeVpaxfA+qLrng7RdZXH+m6fBccf7aK1bVSAUUUUAFFFFABRRRQAUUUUAFFFFABRRRQAUUUUAFFFFAHzH/wAFCtVe2+GejaSjbVvdT3v7rHG3/szr+VfCX8VfV3/BRPWGk8YeHNBVvlt7F7ph/vuy/wDslfKTfe+WmAny7aev3v8AZpu2nL96mBKtSR/dpka1PGFP8VAD1HzVKq/7VRrU6ipAfGKlWmL/AHakX71AAobduX5Wq5DJFOnlSr81QKv+zTmi+WgCK8sHi+aP50qpt2ttb7392ta3uZIvlkXcn/j1SyWlteLviba395aOYDFXbUn/AKDUl1Yz2/3l3p/eWq+WC1RJKvFO2qajVqkX7v3aAFwu3+9R8p/hpN1GWoAf8m37tCrimbqFfdQBL8u7d8vzfxU3cqt8y0b/ALvy0xuaAHsd237tOVlC/NUS1HM7M22gB0x+Vmqiq/O392rDMzfLTdrFN21aAIvl3fNUTOytUsn937tVrjgNuX5qAM2+fzLhmrU8JWqXGrRtIqskXzsp/irFPJ967DwDCoinnb5WZlXd/s0faCR3Fj8m1pPvBvvLStMrhtywsn3cv8y/7P3ahjl2p93du2/w7qbI+2R/LjgZnX5tqr8v+18q1sZjmuURmZVaKVl+Vllb5/vfdVvl+78tJHJtTbH1b5d7vtb+L/vrbUEhj2uv2Zo3+87JBu/2W2t97a3+dtV5F+1I0e+VlVlZlT76/wDjrfL/AL1UQXt0ke1YljVlXZsdfmbd8393+Kq0bBGZo/tttvkb5nVW/wA/71RfKN3lNtVfmZt/zN/s7m+Vf92pZLpmZZZZ9zqu1d7Mrf7rNQIe00iM7Toy/wB1WTZu/wB1f4v92mKyK7yQLLJKy/c+b5v9nZ/DTI5pIU3bpViVvlb5mVv+Bfd/h/2aWS4REZluZV3pvZtyru/+xWgB32mNrhopPNWZvml83cu5v4lpd7l2dopbaLaq7Ytv/oTVBvtkt2lito1V2+X5vn/76qNrldgbzdzN83lJ83/2W7/vqgfKX2Kea6/vPNVl+R5fmVf93b96pIZlVdm2NWb+JqrK7Sr5ckaqiKrbfI+dv9r/AOyo+Zdyssaoq7tvy/L/AOhUCNCUq8BVfmX7vzN96vLfFNmbTVJMLtRzla9LR2yv+0v3Vbcq1yXxAtsRrP8AKSH+8v8AFuFZTNYnJ6e+2fb/AHq2YTWDbnEqVuwmoNC5bv8A3quXW2XSLqNvm+Td/wB81QhOPu1dj3NBKv8AeRl/8doEZ1iVeyT/AGflq2u2qWirm1df9qtFR92gBKP+A1LjNKq4oAYv+10p1Kvy/eo2saAE4prfdqTGGprf3qkCJm/vdKbj5vlqVlxTlXd93/0GqAZ9z95t+6u6rfhE7ft1y33libb/AMCqlcfJA7fd+WrXh1tmh3zfxO6rUyAguH/eVUZqmkLfxVXaqAz9UfbAy/3qyYV3Sqv+1WlrB+VF/wBqqWnpvuVqZFHcaDG0VnEi/df5trf3a6i12xL8qr/d+7WDo+1di/N8iVss+Nqu+1P4m+9WsTKXxErbizOsUsm3+FW2sq7vvbqiup7sI8U/m7N21t23avy/3f71QyPCyoyysu5fn2t83/fNRNNG7KrtHlV+RnRlZv7takk1xdQRJunaTZv27E+VP9371RyXEe9fNj8t12sjszL/ALvy/wCz/dqrDIn2h02L5qbVX5Fbc38K/N/+1Sxsn3nZYGVf++P/AB1qALPkyr5SSXMdyrfN8ybkT+78y/xUihlVkSXbK/3H27ET5vvbfm3LVaN2dk8iJmbduZk+T/vrdU8KXLs3mfu1Zvvyt8n/AH1u+b/vmgnlE3q0DRSSxx9mZV3b2X+4n975qFe8WWXfFI1vt2Ir/K3/AHytRyXPmt5UckDNt2ruZV+7/vbtq7qiaZpk8hp49y7t0vm7loK5S3bukbFYL6eOXdu2/LvX/a3f7tPaVovvsu1v4mfc3+9tZtu6s/M6rt81YkX7zsjtt/2vmX5amjkWKWWSPc25tqs0Xzf98/w0AXI5dsqqq7v9jd/FVmQpMm1l/wB7NZ8e4N5SptZvlZFb5l/vbl21PDLn5VVm+b+9QM838TWotdXmUfdf51pdPfdAK1fH0a+fFPu+bcy1jaYf3Vc/2jToX4/mqTC1HHUq7vu0ASKf7vyrU8cjAfK22q/+9UvRarmAm81z/FSs7FvvNUS8/wAXzUZ2/NuqeYOUerUjbd1N3f3aOm6mAbV+b5abhf4Vp6/w0jfK1LmDlGNt2/dprBR/DTmPFRb/AJaOYBWzt+7TGO35qSR//wBmlht7m4bbFEzf8BquYOUY0y+nzU6GKS5ZVjRmP+7WxZ6H/HO//ARWhvs7Fdsa/N/dWs5SDlKGn6OifvLlvmq3cXMaBo7Zf+Bf3aimlnuPmZvLRv4VqJhtX5akohkZv73zN/FULVMw+Wo24qgImqu1WJN3zVBQBG1RtUrVE1AEMlV5KsTVXagCKnR/LIrUNQtVED9LP2SNTTVPgH4cdX3Nbxvat7NG7L/6Dtr1qvmf/gnzqjXPwx1jTHbiz1Pen+66L/7MrV9MVIBRRRQAUUUUAFFFFABRRRQAUUUUAFFFFABRRRQAUjNilpkjKiFmOFHWgD85/wBtTWP7Y+P+rRxszJYRQWi/7O2Pc3/jztXijLium+Jmrt4h+IviDWnl8z7ZqM8qM391nbb/AOO7a5pvvVTARVp6/dptSKvy0APjWpo1pka1Oq0APjHzfNT1pkf3qmWpActSL96mL92pVoAljqZahjqZaAHsin/ZpnkyI26Msp9qsR/MtPWpAiju2Rdsq7v92ntb2N3/AAru/wC+WqSS3U/Ky1BJZt95aAK82jtu3QSbv9mqklrcx/ejatJXuYfl+8v+1Uq37fddP++aoDCbcv3lZf8AeoU/L/FXRedZzffVf+BLTWsdPl+7Gv8AwFqOYk5/eu37tN/8drfbSbNvm+Zf+BU1tHtt3yySUcwGMrUvfd81bH9k238TSVIum2a/e3N/wKjmAwmf5aI4mlb5Y2b/AHa6DybGL+GNajk1Kzg+6y/8Bo5ijJXS7t13eU33fvNVe4haFtrf8CrQuteV3iiiVtrOoZqZrA/0pv8Aao5iTIm+7VS62+U3zN92r9wv3dy1TmHyt/u0FGMRwDXaeCRiwVv9pq41+tdf4Of/AEBV/hVm3VS+ITOokHzfM3y7fl+WoZA6fKzfN/D83y//ALVPY7V8zbuVf/HlqvIZWZpEXdCrbWZK2MhPvu0sUq7VX5k2/d/8eoZNrt8m2Vm2srfd/wB35qjbaFVpJoFVf4l+Vtv/AHzRMW3qtszS/d2q6/Mv92gRLCk7syx+Wvy7tq3KrtX+9/vf7P3qFNtuXd/wFdu9l/u/eqvIuX2s0kjpH87Pu+Vt3/xNEZVmfyJWVNvzt93dVAX1e5Vt0FpFA3/PZFVv++qj3N8jPPK07fMysm/73+zt/wB2q/lMIt3yyP8Axqjf+PfLSQysreZFJJG+3727b/vfNuoAljaNLhvKkk3ru6qqNUi+W7bkeRIk+Z2f7yt/8V/vVA0m1W8zZs/iV/mbd/ep2Fm3LA3m7f4Vbdu/2qBiRzR3DrHFKzbvvM7N96rCr8u391t/2flVv+BfeqtdXHlqkTNtRflVGT52b+822rG9FVdsu75V3Mqsv3aBFmJkdtzqv96sLxwFOjMytxuX5a3k+58zMy/7S1geNW26MfmX7yqy1lIqJwkf3x9a3Ifu1i24zKn1rch3fhWRoWIV+aranCN/u1Uj4Zat7vkdm/utVCKWgqzQS/71amz5l3LUfhO2861d9392thrBt3+sWp5gMzb83+zRt5xWl9ib+KRaX7F/00WjmAzFp3WtD7Fn+Nf++aFsF+75v/jtHMBn9G2tTfl3bVrT+wJ/z1/8dpPsC/8APWgDNx/DRs/2a0vsC7f9YtPWyRvvP81HMBiXiMtu/wAtP0Nv+JHdKv8Az1rQ1KyVLCaRpV+7WZoLr/Zt8i/NtloAjb/vqoZNtTbWFQsrbf8AaqgMbWG+ZKq6dtFyu5ttXtWT7jf7W2s614nX0qZFHo2isrt8rfJ8u1mrTaSRF/d/d2/3mrF8PuuxPm+XZtVq1ZgpT76s3+1WsTIS4ZSvl/M0X+6vmf8AfTfeqDdG26SSDy3VVZX3ttZf+A/dpJI8M0m5VZm2qj/NuqBfKT5kjbfuXbudV2/+O1Yh+W3r8yybG3blb/x7dRHLbb2aSS7kbbu3qyurt/tLt+7Ud0u+VZJI/I8xfllRW2v/AHtq/wDxNMb5mZl+WL7u7bt3fN96gCZrqR3aXdHu/iaX5v8AvndTd0RbdvuZP7yMm/f/AMCWkwu7czRfKu1dj/Kv/fVRNKvlIsUckapubfv3bV/3aoCb7Q2Fi8yNU/vOlMZ5VdmdlZV+6ysqN/s/L/dqFnbZtdlZWX5lVNrf99VF8q/Mvy7l+Vv9n+7UgW/PlQ7pWZmVfkaVf/HvmpsLyLskneKXcv3Fbd8tMVujMq/N8y7W+Zf++qdsnuZ/NVVZm+Vmb7zf+y7aBllXUfO0aqn8O37tWrV/lXyztX/gVUV2pL8vlrtb7y7nqzDIxXd97+FW2/LQBz3jts28X+y9c/pn3G/3q2/G77ooV/vNWNpq/ut3+1WL+IsvRtViNagj5arkf3vmoA0dLsYLm3/e7lf+Fqlk0V/m8p1b/e+Ws/UJpYFtVgba2xmqxb6zdRoqyRrJUlCSafeJ/wAsmb/dqCSF1+VopPl/2a04dej/AOWlsy/8CqddWs3/AImX/eWjmkSYm1l/hpP4q3/t9i+394vzf7NDX2n/AN5f++aOYDBwzfwtTfInlb5Ymat5tQs1/i/8dprapBu+VGajmKMZdMvJV/1W1W9Wq1b6C7f62VV/3fmq5/aM7/6q2p2NTn+83lr/AN80cwDY9L0+2VWkVWb1dqla9to/lgj8xv7qrtpI9L3fNPK0lW47eKFf3aKtTygUG+2T/ebyk/urTlt44vurub+81W5KikPzVQFZvvNuqCSrEn3aryUAQybV3VC1SSVHJQBBJUVSyVF/DQAxvvVE1Pb71MkoAhkNQyVYaoJBQBCy05VpKcv3aoD6n/4J46x9n8Z+INBeVlW8sFuI0/h3RSbT/wACxL/47X25X5u/se6y2jfHvw+vy7L13s3z/txt/wCzKtfpCtEgFoooqQCiiigAooooAKKKKACiiigAooooAKKKKACuW+LOr/2H8NPEmrKMta6ZPIv+9sOK6mvHP2xtTbTfgBrqo+2S8aG1X33SLu/8dVqAPznb5i0jfNuqu1W2GBtWqzVQDVX+9UqqwXdTVqWNaAJFG35aev3aatPWgB6/e+apVpnfdUq7qkBVqVai609aAJ1qaOoVqVTQBYWpI9v8VQxn+81PU0AWIyxap1qsrU9TipAmwpX7tRNbo/8ABS76du/u1QFSSzT+Goms2/harzH5aYzf7tAFFrecfLvamMlyP+WtXmNQsaAKrLdf892qJopf45W/4DVtjUMjZoAqtbfN8zM3/AqY0KL/AMs91WJDUTGgCnqH/HvuX+Blb5a1NQPmpDKv8SVnXC+ZE6f3lqzYlrjSE/vI21qAKclV5PmXbVuQf/s1Xwqt8tUSYUi/M6/3WrpfBUvDxejViagmyfd/C33qseF7lYNUVZN2x/lbbREo9D/eCJZFRlVW+8q1VkVml3bF37f4V+9U1qd0e37tJtbc21lVt33mX71bGJUVNrbt7bW/h/2v4aVv4El8tV2/eRl3NUkixhd3lqzfxbm3VHJ9791G3y/Ku3+L/vqgCNlk+by1VV/2dzP/AHt1LmUruZ9ysv8ACu6nKjSL5StIv+xtbd/wKm+Ts3NE27d2VW/75oARdjN88Eirt/iZd3/Aal++i7mZYm/2lZv93bTfs0mGWVpIyv3lZl/9BojSPdukVl2r8uxVWqAbJ1VZZWj/AIVZG/8AQttTrCq7F8+KRVVdrL8v/oVCmNfNaLzFeT5XZ3Vmb/a+Wn7m3KkSq21fl2rt/wBqgCBoldFjbzI9rbvlXdu/2asQjY3zKyr/AAstSQoo+eOXaqt8vy/e/wBqrFvD/wDErtoAfHGoT725vvfN8tcl4/kH2eKNVVQz9K66R3hiZtu5l+7urzvxfd/adV2L92L/ANC/irKRUTKsV33C/wCzWzCv8VUdJThpP4jWrCn3agoljGVqS42xWUz/AN1KI0ZttO1KFv7LZV+/Kyqq0AUfDd5PDayorcfLWj/aNz/frE0/dDE6t/E1WvNqSjR/tG6/560n2+5/56VntLto81vloAv/AG+5/wCetL9vuv77Vm+dR538O6gOU0mv7nd/rGo+3XK/8tWrN86m+d822gDS+33P/PRqd9vud332rN83n71NaRqA5S7qF7K9lKrMzLtqHwe+/wC2wN82V3VTuHYwOv8As1a8LwyW+owzt/qpfk3UByl6ZGV6hkWtC8hZJ2jb+GqkiVRJk6tGz25x1X5qxFOJdx9a6iZNyturmbqPypmj9DQUdl4VmV7dY/4UaulUbk3L/wCPNXBeFbzZdeQ23bL613tu2+JV/iqomcivJG2/aqqv93c1V1OH+SNsqvzbf4qttHHvXzI227vl2tUcgklbyvNVvm+VWetCJFXau4Ku5kZfusq/LUUnz7ZGba/+1/8AE1M3mMzfvP8AZZtu7ZTPJWRWZfIl3fxqvzf+PUDIl2sv3drKvzbl+ZmpN+xlk8+RnpZDuVlEe5v9n5qN6ovlL5ki/e5X5f8AvmgBGK/LuZml3fxSLtb/AIDTdvzt5S7dq/MztuV/71PjVk+ZZNu5dtObz2Tf80if7XzUANUqX3SwRq3+7toj4ZV3bd396nrCzrvkjk2/wqq/eqVQu1nXazM3zNt+7QAkabfmVm/3mWrPzY/1n8P8P3aZCFL7U3f8BovpFht2kZvkXc3zUDOO8ZTh9SWJfuxLVeyGyACqU0rXV88rdXbNacI+VVrE0LEP3vlqZT8y/wC9TI1+bdUturNOrfwr81AhL6Xfetu+6i7VpsZqCRt87yf3m3VLH96pKJ1NTLUKmpF4oAtRqp+8q1NGkYPzRr/3zVeM1YWgCeOKL/nmv/fNWIxGrfdVV/3arqamjegCwpp+cVX3LuqTdQBJu+Wk3f3qZvo3MaACQ1BJT5Pu1CzfNQAySq8hWppG/hqu1AETVDIamkqCT71AEf8AFTGp/wDDUTf7tAEbGo25qRqiagBjfdqBg1WGqJqAIW/2akVaa1Pj+9VAb3w/v20nx3oWpq/ltZ6jbz7v7uyVW/8AZa/VuB1lgR0+6ygivyOVfmVlb5q/VH4Y6tHrnw68OaxGGVb3S7afa3UFolOKJAdLRRRUgFFFFABRRRQAUUUUAFFFFABRRRQAUUUUAFfLf/BQXWlh8J+GtBRm3Xl5LcOF/uxKq8/i/wClfUdfDv7d+rfbfipZaUr7l07Tk3Kv8LuzN/6DtoA+bJvlqsw+arU1V/4qoBF/76qVVpqrUq7qAFWpFptOX7tSA9ealWolNPU0AS0q0xaetAEimplNV1qVWxQBMtTqaqqalU/w0AWFNPV/vVCrf3aVT8tAE6v8tDGot1LuoAcx+WmsaZupGbNAAx/hqOQ0M9Rs2aABt1RMaVmxUMhoAbIahY05jUEhoASR/m3VY0ORRPNbM3yv8y1m3D4qG1ufJuEk/u0AbE0eJWWqsifw1r3ib0S5X7rrVCRPmoJM68j8yBl27mX7tY4LI+R8pFdBMlZN9Ayys1AHb+G71bu1ifd833WH91q3JEYqreX/AOPba818PakdNvfn+aF+H/xr0uxnWaJZEbduT733lZdtaRkKUSqyMn97c33t3zVDIm1Xby2+X/e/ytabQ7W/urVeSKT5gsTL/wAC/wC+q0IKUwlj+8zNF/t7Xb/0GotkSrtb/wAearfkqF3KvyL/AA/Nu/76pPKZg2792u75fm3UAQRom9Gbc23+Jfl3U7Yz7djMw+bb93/gNSqu7czM21v4vu0Ku1UVW27V27h8rNQBHGrbFjZY/lb5m+bcv/xTVPbnajbo/L3fM3+2tCw7flVfl/hdvm3NVhUZW/e/d/u/eoAZCilm+Zmf+Fm/u1ZhTbu3fd/3qcsTN8zbdvt95adeTpBAzt5aqq/NuoAyfEl/FYWTy5Xcq7VX+838NeZfvJ5izHcznLVqeKNWfUr07W/cp8qe9QaXbMfnZfvVjI1iXrOLYix1owotMtYfl+7V+3h3bWoELbw7mXb/AMBrd0HTPtutxWflNIsUW3aq7tzv91apabCq+bcyL+6iXdX0F+yL4Fl1TxKfEOoRboLFvPJYcNO33F/4COfwqZdiolGH9j3X7yNLlvFGm2fmrv8AJMDsybv4S1Tr+xnrX8XjXT//AAFf/wCKr7LUU6psB8ar+xlq+Pm8bWP/AIBv/wDFVMv7F903L+O4F+mnsf8A2evsSiqA+QF/Yub+Lx+P/BZ/9tqVP2Loh974gt/wHSf/ALbX11RQB8kf8MWWh6/EOf8A8FK//HalX9i/TMhj49u2/wC4Yv8A8dr6yooA+Ul/Yw0b+Lx1ffhYL/8AF09f2MvD/wDF411L8LNP/iq+qqKAPldv2MvD3llV8a6pn/r1T/4qvAviJ4NufCst7oM8Xl3WnPu+X+Nl/iX/AHlr9JK+ff2sPBAvdMXxhp8O6e2CxXiD+JP4X/4D0/8A1VMgPji+C3EEN4n3ZU3VnTRbV3Vu2tp5M9zpTfdb9/bt/s/xLWZNCyMyyLtqokmXIlYmtQf8t1X2aujmTC/w1Ruot6MrVQHLxO0Um5TtYV6H4b1Bby1V2dd3SRf9quAu4fJl2fe9DU+jajLp92sq/MnRl9aIhKJ6nIqsn3v++VqtMm/5d3y03S71Lu3SWJ1KP321baPPzKu7dVkGdNDIFdfMX5V+VtrVBIFddyqzOzfe27dvy/3Vq9JEy5bd977u1fu1DJHJv3P99V/vVYis25E2rJ8v/fK01Wb7u9d3+ytWFX5l3MzMy/8AAW201UZfu/721V/ioGQx7SitJ827+83/AH01CpHt3bWZVb5Wb/0KplVmZWXbuX/x2pVh3fN8zfwsu6gRX+zsPlVtzt/eqxGjH7y7lqWOFf4R8v3fmarSxbNrbeaBldUVF3fL/wABrlPGeokf6DG5y3Mn0re8TatFplnt+VrhvlRP/Zq85lklubhpZW3O7bmNZyLjEksY9zbq14UaqtrG1aEYxUjHLt3VY3eTpzyt/F92m2sLTzpGv8VVvF1wsTxafF91Fy9AiC3fNWFFUrE/JV2MVJRJH96po23fLUS05WxQBYX5WqxG+6qqvUqtigC2r4qWMtVRW/vVIr0AXFel3VCr/dpd3y0AS7/m/wB2hpah3Ub/AJaAHs9RMaTO771RsfmoAcx+WoZDRIfl+9UTGgBkhqLrT2pjGgBklRNT2PzUxt1AEUlMp7fM1NoAYwpGHy09qbtoArtTo/vU5loVaoCzGu5f9qv0M/Y11c6v8BdHRpFd7CWW0P8AshXyo/75Za/Pa1+9X2T/AME/NTA8P+JtBP8Ayzu4r1P+Bpsb/wBFL+dID6nopKWkAUUUUAFFFFABRRRQAUUUUAFFFFABRRRQAjfdr85f2mtSj1b4z+JryNty/avIVv8Armqp/wCy1+iV/cR2lnPdTELFAjSSMewUZr8uvF15Jfatd3krbnuJWlZv9pmoA5ib73y1DtzU8n3qj2/7NUAU9aRVxS1IDl+9Tvl202n0AOWnr96mKuKVRQBLTlplPWgB6/ep6/dqJakU0APVsU9X3LUVOU0AWN1LlahWnUAWN3y03OKZRnNACsaRjQxpm6gBd1RM2KczYpjGgBrGoWNPkNQsaAI5DVe4epZD1rPupGoAhmlquzfxUrM3/AadCjFlXbQB1Xhudbyzazkb51+ZaLiPY7K1epfBL4Fa3448F6t4ktJmtJbaPbpoZf8Aj6nX5mX/AHf4d394iuG1Kynkabz4Gtru3dormF12sjr97dQSc3IihvvVVmhV1ZWWtWSL+9uqJrf+7/FQBytxA0bf7NbHhnXpNOlEE7M1s3b+5U9xarsZdu5mrCurZoW+Xcy0FHrdjcWt3BE8Dqyt/EtWG+dG+fd/s15JousXulXAltn47o33Wrt9F8XWNztiuW+ySt/Efu/99VpGRnKJvtDxu/vfxf8AstRNAobd5W5tu3738NW7eWO4RWjaORGXcrK3/s1S+UrfK38X8NMRmLC235gy0Rw/NtZv/sa1WijbcrblanMqsu3c3zfNT5gKEceV+7/s1YjhZPl+Vv8AZp8zxRIzOyxr/wCOrXM6z4xsLXclqxuZOfufd/76pBym9fXkFqnmztHGir8zNXnXivxFJqTm3tmK2o79N9ZmsaxeanJunfCD7sa/dWoLW1aQgt8q1EpFxiJY2zSurMvyVv2cO3bTLO02BRt+atS3hZW3N92gY+1i2/eq7axLMwSL5makjT5VVf4q3tPspbRIliiV764+WBP7v+01HNyi5TQ8J+HrzxB4jsfD+nW3ntvXev8AC7/wr/wH7zf7K19/eAPDNn4S8L2mi2ariJf3r93fu1ebfs0fC+PwfoEet6om/VrxNw3r80St/wCzN/6DtFe1VmULRRRVAFFFFABRRRQAUUUUAFFFFABVPVbG21HTbjT7uNZbe5iaKVD/ABKwxVyigD4E+Ofw/wBQ8HeKngiSRkRmnsJf+esX8S157qSR3dumoW33H+8v91q/Qj4r+BLDx34dfT7jbFdxfPa3H8Ub/wCFfC/i7w9qHg/xHd6fqcDRRb9l1F/DE38Lr/stUks4aT/aX5qqXCL8392t7VtOe2fzFbcjfdZf4lrKmi+98taAYOpWwkVqwZkZH2tXYzRVj31nvVmqSiromr3OlTboW3I334z0avRNF1e11OPNvIu/q0T8NXl80MkLbXHFJHK8UokikZWXow4xVRkB7BIqN82z7tM8rK7f4fvVwuneMLyEeXexrcp6/dauhsfFWlT4EkrQH0darmI5TWa3/h3Mq/7NH2aMJu/ip0OoWNwu2K+hb+7tdamkljPzM6f99LVcwuUr/Zvfj/dqXy0VlwWY7f4qiuNT0yAL599bR/7O9WrGvvGOmQblgSS5P8P8K0cwuU6OMbfmVG+781c94j8TWtkjwWzx3Nz91WX7qfWuU1rxNqOpKU3LBC3VI/4vrWKqs7fKtRKRcYkt1cz3ty088jSSv95jU9jA38S/ep9nZ4+8vzVqW8G1agobbxY21aVP7tPVPu1saLpjSf6TLu8pfur/AHqOYkgj8rSNLe+ufldl2ov96uEmme5unlkO5nbc1ek/GTwn4j8N3VhDrlm1oLq1S6tkP9xvX/a/vLXmyxMlIov2r4wv8NaELfLWLC7LWhau22mBepy0xT8tG6gCZT81Tq9VVNTLzQBaVv8Aap2f4agU09TQBOpp+6oeKN1AEzGjdUWf4qSgB7P8tRM9NY0m5v8AgNAAzZpjGlY1ExoAGqNjSsai3UADVG1P/wCBVG33qAGNRTmooAa33qRvvUu2hqAI2WhR81P20irVAT2v3q+nf2FtSW0+ImpaezbVvtOLL/vIyt/6Dur5ht/v17n+yXeLbfGLRN0m1ZWeL/e3Iy0AfftLSLS1IBRRRQAUUUUAFFFFABRRRQAUUUUAFFFFAHC/HnVDo/wj8R3qttf7G0S/V2VP/Zq/NvWGzKzbq+7v2y9Ra1+E4tEk2/a76JGX1Vdzf+hKtfBmoHc7UwM2Skp8n3qZ/DTAcv3aWmrxRUgSLRTdtPWgBy/epaTdSrQA6nqflpn+9TqAH7qVaSl/2qAJKeu2oqetAD1qTdUW6loAkopuWo3UAO3VGxoY0m6gAY0xjSN96o2NADZDUTGnSN/s1XmfatAEVxL8tZ0z/wB6pLiX5qqM2aAHR9q774N+BdS8d+MLLQ9Pi3ea/wA77fliT+Jm/wCA1xml2r3NwkEaszt8q1+h/wCyR8Ml8E+Cv7Wv4Nuq6oquwYfNFF/Cv/Avvf8AfNSB654T0HT/AAz4dstD0qFYrS0iCRqv868M/ae+Dk+uM3jbwhZK2rxLi/tE+X7ZGP4l/wBtf/Hq+iqGXNUB+X2padvRp4EZWX7yMu1lb+61ZMkW3d8u1q+2Pjt8DIvEFzc+KfByJa6xJ891ZM2Irz/aH91//HW/Wvk3WtEliupoJbWeyvYG2z28ybXRv7rLUgcjJErNVW4tEZW+Xdu/2a15rd4nYSR7ai8n5loA5O809kOVWs5kZTXcTWylfmWs6805H3fLtaqA561vbq2/497iWL/cbFasPinXowNuoMR0+ZFP9KrSaU3b5aibTJRRzAan/CZ67n/j5j3evlLUc3izX5F2f2hhf9iJR/SqK6bJu2srVLDpTfxUcwFK6vby7b/SbmWX/ebdTI7eWQ8LW5Dpqr95auw2ap/DRzAY9npu77y1r29sqt92rkdm33u1WY4d38NSSVoYdvzfeq1DGxb5f4qtWdjLI+2JN3+1XWeHdAup9St9M0yxfUtVuG2xW8K7m/3v9lf9qgDL0vT47OJJ7lGkmdtsUKruZ2/urX1F+zn8G57WVPF3jG1BvZFVrW1f/lkvVdwrd+CXwMtPDU8XiPxYYtQ1/GY4h80Fp/u/3m/2q9xVcUcpQbaWiiqAKKKKACiiigAooooAKKKKACiiigAooooAK86+MXw00rx5o8pMEMWrJHiC4K/e/wBh/wC8v8q9FpKAPzr8TeHdT8I6tLofiCzlihVv3bS/8sv9nd/Ev91q5LVtOeCRmRd0TfdZa/RP4jeBNC8b6SbHVrceYqnyp1X5k/xHtXyJ8UPhh4k+Hkz+dbtqGhFv3VzErN5a/wC1UgeJyQ/NVaSLcu2urvNLWZPPs2WRKxJrZg/3WWqJOeurNX+Xb81Zd1YlWO1NtdY1v/equ1t/Cy7akDjJIZE+8tM2110lmrMy/LVSTTEO6qKOap1bsmlfN91aF0paAMKnrFIf4a3odNUN92ra2Kqv3aQGDb2DMfmFaVvZKv8ADt/4DWnDafwqtTLDhfu0wKkcKjbViOL5dqrVqG2kf5VRmrodJ0JmeJXRpJXbZFEi7mdv7qr/ABNUkmVpemb9ss/yxL826vqr9mr4NLK0HjDxVYNHCh8zTLCVdvzf893X/wBBVv8AerT+BXwLksLm28SeNIojOi77XTOqxN/el/vN/s/w19FquKCjyn9pf4bxfEP4d3Fvb2yvq1huuLE/xN8vzJ/wL/0JVr82tasJ7C9ltp4miliZlZWX5lav18b7tfE37bnwtbTNb/4TXSLZfsV+3+lKi/6qX+9/wL/4qgD5L+61WLWTFQTJtakjdlqgNqN9y0+qFvI3y1djbd81AEympVP8NQrT1oAsLxT1PzVCpp6mgCb+GimbvmooAfuoY0zdQxoAdlaYz4prNmmf8CoAGemMaGNRtQA6mNRuprf7NAAxpn8VFOoAKbtp1HSgBrUNtpzU2gBtJStRQBJD96vQfg3qi6V4+0LUJH8tIL6J3Zf7u9d1efR/ere8OzeTeROv3ldWqgP1SX7tLWd4eul1DQNPvVbcJ7aKX/vpQ1aNSAUUUUAFFFFABRRRQAUUUUAFFFFABRRRQB8y/t43bpofhuzzw888v/fKqP8A2avjO8PzNtr67/b3kwfCsf8As3Tf+gV8g3X3t1MCq33qb97/AHqc1NakAdadTV+9TloAd/FSrxSULQA9d1FFKu2gB3NOptOoAVadTVp1AC07pTadQA5aevFMWloAdupd1MWjdQA5v9qmbqGptADWNMY05qikNADJDVC6l/hqe4f+Ks2Z/magCKY5akjDM1R/eauq+Hvhi+8U+I7LSrCBpZriVYkAX+JmoA9r/Y4+FreKvF0euana+ZpOnt5r71+V5P4Vr77RQi7VXaorlvhb4OsfA3gux8P2exmgTM8qjHmyfxNXV0AFFFFACba89+Kfwo8M+PoDPdxGw1ZF2xajbqqy+yv/AH19mr0OigD4H+JXww8SeDpZF1/TGlslbbFqNsu+B/8Ae/uN/vV55daRIjboNrp/s1+ml1BFcwPb3ESSxSLtdHXIYehrxfx/+z14a1iaS+8Nzt4dunOXiiTfbyH/AHM/L/wH8qkD4hkt2T7y7W96ha33bvlWvb/HPwY8c+HTJLPof9rWi/8ALzp373/vpPvr/wB815nNp9s87x7/AC5l+VkddrL/AMBoA5Zrb+FqZ9mX5tq/NXTSaLKv92om0qQL91v++aQHPrar/vVL9l/vL/3zW8umN/db/vmpY9Jb+5/49TA59bdV/gapo7Zv7tdFDpKr95V2/wB7+KrVrZ2z3C20CyXNw33YoU3u3/AVqeYDm4bCV2X5d1a9noqIvm3j+Wleu+C/gr491/ZI2lR6FaN92bUG2u3+7Evzf99ba9w+HvwE8J+G50v9WeTxBqCco92gEUR/2Yvu/wDfW6qJPAPhn8JvFHjPypNMs20nR2b59RuE27l/6ZL95v8A0Gvqz4cfDrwx4FsTFotjm5kUCe9m+eeX/eb0/wBkcV2KIEUKq7QOwp9UUFFFFABRRRQAUUUUAFFFFABRRRQAUUUUAFFFFABRRRQAUUUUAFVb61tr60e2u4Y54ZF2vHIm5WHuKtUUAfPnxQ/Z2sL5pNU8CTppF4fmezk/49pf93+5Xzr4u8J6z4dumsfFGjz6Xcfwysu6J/8Addflav0NqlqenWWp2clnqNpBd20q4eKeMPG34GgD817rSJFBZP3i/wB6s6Sx/h2/d/hr7X8Yfs6+FNUkNz4furnw9K3LRRr50Df8AY/L/wABNeWeJv2ffHNgC9jBY63Ev/PvKqP/AN8vt/8AQqkD50a2ZW/u/wC1tpn2bd/D/wACr0LXvCWq6M+3V9I1DTdq/euLZlX/AL6+7WK2lxvt2OrK392kScr9lYfeX/vql+zN/d/irp/7Hb+H5qd/Y7Ft3y7aAOXW3X/gVP8As2f4W/75rpW02KNd0siKv8W6rmk6PLqU6waZZ3upS/wpbQM//oNBRyMdhO/3VatK10TK+ZL8qfxNXt3hH4D+O9Y2Pd2Ntolv/fu33P8A98LXsvgT4AeEtFlS81xpvEF4vzKLhcQof9lP8aYHzf8ADn4Z+IfF0yRaBpjLb7sS6hcriBP+Bfx/8Br6q+Ffwi8OeCI47pol1TWdvz31xGNyf7MS/wAC16LBBFbxJFAixxIu1UUYAFTUWASlooqgCsTxj4f07xT4dvdD1SFJbW6jKNkZ2n+Fh7g1t0UAflV8YfBOoeCfF95ot9EyGB2Ctt+Vl/hZa4T7rV+iX7YXwyTxf4LfxDYQj+09LRmfaPmli/u/8B+9+dfntqFs1tO8Tr8ytQUNhlrQt5d1ZCnaau2smNtBJpxmpVqvC3yrVhaAHr/FT/4qZT6AHU7dUa07mgAY/NTd3zU6mUADGmNT6ZQA3dTW+9Q1G2gBjGkpaNtACUtFOoAa1JS0UAMprLmpPvLTaAG7aKGooAkjrV01sOtZS1oafxKtUB+mXwbuftfwr8Lz7txbTIN312LXX15r+zJM0/wM8MyP94QSp/3zK6/+y16VUgFFFFABRRRQAUUUUAFFFFABRRRQAUUUUAfJ/wC36uJPCsn/AEzuh/6BXyJcV9l/t72rvonhm8/gjnnib6sqN/7LXxncD5qYEDfeptOam0wHU5abRj+KpAdxSrRQtADqX+Gk20q0AFSU1adQAtOWm06gBf4actNXmnLQA6jd8tH8VFAC0lFNoAd/wKo2NFIxoAa1V5H20+ZvlqjdSYoAgupM1RY5p8z7mqJRlqCixZwyTTqqLuZq+7f2KPhhHoegnxnqdpi9ul2WO9fuxfxSL/vf56188/su/C+Xx943t0uY2GmWu2e8fb/Bu+7u/vN/8V/dr9GrO1gs7SK1tokihiRUjRRwqjoKkks0UUVQBRRRQAUUUUAFFFFACbaw/EPhTw14hBXWtB0/UOMbp4FZv++utbtFAHk2pfs+fDO8mLxaXeWBbr9lvHC/98tuFc/ffsz+F533WfiHXbVP7rtFL/7LXvNFAHgH/DMmjd/F2rj6QRf/ABNaNh+zb4LhQfbNV127b/ruiL/46le3UUAeXaX8B/hnYOrtoEl4473d1LL/AOO7sV3eheHtC0OPZo+j2OnrjB+zwKmf++a1qKAG49qdRRQAUUUUAFFFFABRRRQAUUUUAFFFFABRRRQAUUUUAFFFFABRRRQAUUUUAFFFFABRRRQAU3HtTqKAG7VP3gKwtQ8HeFL8ubvw1pErP95ms03H8cVv0UAcHc/CH4cXLM0vhHTgx/uBk/8AQTUL/Bj4ZO/mSeE7RmC45dz/AOzV6FRQBx+nfDXwDp5VrTwho0bL0JtVb+ddRZ2lraReVaW0VvF/cjQKP0qxRQAm2loooAKKKKACiiigAooooAjkRXQq4DBhgg96/Pz9sH4Vr4Q8YNqelWzR6TqH72Havyo38SV+g1cj8WvBNh498FXnh+9VVdxvt5f+eUo+61AH5PSJhmWnwvtaui+IXhi+8MeI77Sb+Jori1naJx/tK22uYU7TQBq2svyrWhG2axLeX5q04Zdy0AXVp9RqaepoAfRTadQAU1hUlNbmgBlNbin7aRhQBE3NN21LtoYUARbaKdto20AMo20//Zpv8VACU3bT9tMagBKa1Ob7tNoAKb/FTqKAHLV2z+VlqktXtPGZVqgP0T/ZX/5IP4a/3J//AEe9eoVwfwCsBp3wb8LW3f8As+OVv95/nP8A6FXeVIBRRRQAUUUUAFFFFABRRRQAUUUUAFFFFAHiX7ZekHUvg5PdxqrNp15FO3+63yN/6GK+BLoYdq/Urx5ocfiXwbq2hSbcX1q8KluzFfl/8exX5f6xbvbXUsEsbK6Mysrf3qAMxlptO4pu2qAd1o/3aKVakAUU6m/xU9aABT/DTqKKACnYzQtLQA6ihaVaABadj71HNCmgAp38NFFABTcrQ3NN3fLQAMajansaqzPt/wB2gBlxLtrMuJfmqW6m/u1Qkfc1ADfvNW14V0a71jVIbO1tpJ5pZFRERdzMzfw1lW8Mkkqqq/M1fbP7EXwnW0s1+IGsQ/vG3JpiH/gStL/7Kv8AwKgD3L4G/D6y+Hfgm10qKKP+0JVWS+mX+OT+7/ur0FehUUUAFFFFABRRRQAUUUUAFFFFABRRRQAUUUUAFFFFABRRRQAUUUUAFFFFABRRRQAUUUUAFFFFABRRRQAUUUUAFFFFABRRRQAUUUUAFFFFABRRRQAUUUUAFFFFABRRRQAUUUUAFFFFABRRRQAUUUUAFFFFABRRRQAUjLmlooA+Yf21fhXFrHh9vG2kWv8Aptqu2/VF+/F/C/8AvL8q/wC7/u18JXlu0MrIy7cV+wV3bQ3dtLb3EKywyoyOj/dZW6g1+dn7Vfwql8A+NGkskZtJvi01k/8AdX+KP/gO6pA8LU7TV+1lqgy7W+anwy7WqgN2F/lqwprMtZfu1ejegCwtOpi0vzf3qAJKKN1G6gBrUMKc1N/ioAZR0p9NagBjUlLQ1ADKbUjU2gBnWhqWkoAbSNS0UAMo207/AIFR0oAFX5q2/DNlLqGrWtjAjSS3EqRIi/eZmbatYq/er2j9krw42v8Axk0lni8y307dey/7Oz7v/jzLVAfe+gadHpWhWOmRDalrbxwr/wABXFaNJS1IBRRRQAUUUUAFFFFABRRRQAUUUUAFFFFACN92vz4/ay8It4Y+LWotFB5dlqLLe2xH3fm+/wD+P7q/QivC/wBsTwR/wk3w2bWraLdfaKzS8D5mgb76/h8rf8BoA+A2FMq3eI0T1W/ioAKVaOtFADlpaKNtADqdTVpy8/w0AH/AqWnfxUUAC0tFFADqFFC0UAOpuFo3UbqADd81RMaczYqKR9q0ANkeqN1L8rVLcSVmXEu5moAjmfNMVcmmszM1b3gfw7qPifxHZ6LpVs1zdXUqxRoPVv8A2Wgo9K/Ze+FsvxE8cQw3MUn9k2v76+lX+5/zz3f3mr9HtNs7WwsYbGzt44LaBFjiiQYVFHQCuQ+C/wAP9N+HXge00GzEclxtWW+uFHM85HzN9P4R7V3dBIUUUUAFFFFABRRRQAUUUUAFFFFABRRRQAUUUUAFFFFABRRRQAUUUUAFFFFABRRRQAUUUUAFFFFABRRRQAUUUUAFFFFABRRRQAUUUUAFFFFABRRRQAUUUUAFFFFABRRRQAUUUUAFFFFABRRRQAUUUUAFFFFABRRRQAUUUUAFcR8YvAOl/EPwbcaFqEYWT79rcbeYJf4W+nrXb0jUAfkh438O6h4c1+70nU7Z7a5tZWiliPZlrnq+/f2zfhAninw9L4z0S2A1bT4i12iL81xCv8Xuy/yr4GuI2ilZWqRktu/+1Wlby1ixtVu3l/2qoZuRmnqapQyfKtWlf+Kgkm/hp2VqNTRlaAHbqNvzUfw0UANop1NoATbTWp9JQA3bSMKWkoAa1N3U5qa1ACU2nNRQAzikX71O/ipq/eoAmhTL19rfsMeD307wnqXiy7h2S6jJ9ntif+eSfeb/AIE3/oNfIvgXQLzxF4i0/RbJGe4vbhIUH+833q/Tfwhotp4d8M6bodgFFvZW6QL/ALW0fe+p60wNkUUUUgCiiigAooooAKKKKACiiigAooooAKKKKACq13bw3VtLbXMaywyoyOjDhlParNFAH51ftI/DeXwB46mtYEf+yrr99Yuf7n/PP/eX/wCJryNl2tX6Z/Gv4e6f8SPBk+i3QEV3HumsbjvFLjj/AIC3Q1+cvjHQL/w54hvNF1S3aC8tJWilQ/5+7QBjLT1qDdUqvmgB9OptFAEij5aVaYtOoAWnU2nUAFPpm6loAKduptFABupP+BUMaikegB0h+WqU0tLNLVGaXdQAk0uapyN1qSRqj61JQ6GJpnVVXc1ffv7GnwdTwf4cj8W+ILHbrt/H+4SVfmtYG/kW/wDQa8o/Ys+Ckut6tb/EPxJa/wDEptXzYQyr/wAfUq/x/wC6rfma+5lGF21RI6iiigAooooAKKKKACiiigAooooAKKKKACiiigAooooAKKKKACiiigAooooAKKKKACiiigAooooAKKKKACiiigAooooAKKKKACiiigAooooAKKKKACiiigAooooAKKKKACiiigAooooAKKKKACiiigAooooAKKKKACiiigAooooAKKKKAGSIrqVK7lbrXwJ+2Z8HF8HeIR4p8P2ZTQtRb50RfltZ/vMn+yrfeX/gS19/VkeKtC03xN4fvdD1e2W4sr2JopY2/un+tAH5CtxUkbf7Veh/Hr4Xat8LvGs2lXatLYSs0thd7flniz/6Ev8AEtecq1SUXoZWG2tGF6x4y1WYX2/xVRJrqakWqccu6rCvmgCTdTqZS0AOptHSigBKKWmNQAUlLupPm20ANam9/lp1N20AH8NI1LUbPQANxT7dN71EvzNXrH7Ovwuu/iP4wW2k3xaTZ7Zb+4Vfur/Ci/7Tf/ZUAe5fsSfDhbW0l8e6rbfvZd0OnBx/D/HKv/oP/fVfVFU9LsbTTNPt9PsYI4LW3jWKKNPuoq9BV2gAooooAKKKKACiiigAooooAKKKKACiiigAooooAKKKKAEavEP2mvgxafEHQ5tY0eAReJrWL90w+VbpV/5Zv7/3Wr3CigD8lNWsLuwvZrO8tpba4gdklhlRkdGX+Flaqquy/LX6AftJ/Amy+I9r/bWhmGx8RwpjeRhLtf7r/wC16NXwd4k0bU9A1m50fWLOWzvrV9kscq/MrUAVFepM5qpnFOV6ALdO3VXWWnq/+1QBLSrUSvTt9AD9tGcUxnpN60ASMaTf8tQNLUTS/LQBO0tVZJaiklqFjQArPmq0jUrNULc/7TVIAzfNtr2v9mD4JX3xN8SC+1GOW38NWUi/a5tuPPb/AJ5J7/3v7tQfs5fA3WvihrCXVyktj4dgf/Sbzb9//YT+838q/RLwh4c0jwt4fs9C0SzS0sLRNkUSD6cn1PvQUXdM0+z0zT7fT7C2jtrW3jWKKJBhUVegFXaKKokKKKKACiiigAooooAKKKKACiiigAooooAKKKKACiiigAooooAKKKKACiiigAooooAKKKKACiiigAooooAKKKKACiiigAooooAKKKKACiiigAooooAKKKKACiiigAooooAKKKKACiiigAooooAKKKKACiiigAooooAKKKKACiiigAooooAKKKKAOD+NPw50X4meDbjw/qsYjmwXs7lV+e3l/hYe3rX5ofEnwRrvgHxTdeH/ABBZtBdQN8r7W8uVOzo38S1+tdeb/G74TeH/AIp+G203VU+zX0O5rO+Rd0kDf1Vu4oA/LeNqsRn5q6j4s/DnxF8OPEsui6/aMneC4RcpcJ/eU1yEbru+WkBfjf5qtwzVmK1TxnmkUakcu6pd1Ziy1YWX/aqiS3up1VVlp6vQBPTaZvzRuoAe1Mpu+kZ6AFpGfFRM9MZ80APZ6YpZqb1r0P4MfCjxL8TtaW10iLyNPiZftmoSr+6iX+7/ALTf7NAFH4T+Adc+IHiiHRdHtpG3Nuubhk/dW6fxM7f53V+i/wAM/BGieAPC1voWiQbY05lmb/WTv3dzUPwp+H+h/DvwvDoeiw9PmuLl1G+4fuzV2VABRRRQAUUUUAFFFFABRRRQAUUUUAFFFFABRRRQAUUUUAFFFFABRRRQAV5t8ZPg/wCFPiZpxGq2wt9UjTbbajEv72L/AGW/vr/stXpNFAH5i/GD4SeMfhpqLJrVi0+nu22DULf5opf/AIlv9lq8+3V+uGo2VpqFo9pfWsN1bSrh4pow6MPdTXzT8XP2StB12SbU/A96uh3b8tZy5a2Zv9n+JP8Ax6gD4n3fNS5au1+IXwi+IfgJ3/t7w9c/ZV+7d26+bA3/AANfu/8AAq4LzsfK3ytQBY3/AMNO3/7VV1lRqXzY8/eoAlaWkaWot6/3lpjTR/3loAmZ2pjGoPtC7qjkuPvbaAJpHqCSWrOjaTrGuXq2ekaZe6hO33YrWBpW/wC+Vr3D4efsn/EnxH5VzrMVv4bs35b7Y26fb/1zX/2bbQUeCW8U91OsMMbu8jbURF3MzelfVP7PH7K95rC2/iH4jRz2NjndFpn3ZZl/vOf4F/2fvf7tfRHwc+A/gf4axpdWFm2pawq4fULvBcf7i/dT+f8AtV6yowOlSIo6LpWnaLpdvpmlWcVnZW6BIYYl2qi1oUUVQgooooAKKKKACiiigAooooAKKKKACiiigAooooAKKKKACiiigAooooAKKKKACiiigAooooAKKKKACiiigAooooAKKKKACiiigAooooAKKKKACiiigAooooAKKKKACiiigAooooAKKKKACiiigAooooAKKKKACiiigAooooAKKKKACiiigAooooAKKKKACiiigDlPiR4D8N/EDw5JofiWyFzbt80T/dkgf++jfwtX5/8Ax++Anib4Yak95BHLq3h1m/c3yR/6v/ZlX+Fv9r7rf+O1+ldQXUEV1A8E8SSxOu10cZVhQB+PG9g3zVNHIpr73+Lv7KHg/wAVPNqfhWZ/DepO28xKu+1dv9zqn/Af++a+ZvH37M3xX8KF54tDOt2i7v3umN5rbf8Ac+//AOO1IzyZXqVWbdUN9aahpd09tqFnPaTJ96KZGRl/4C1RxzrQMv76PNqms67vvVOssZ/iqiSx5tG+ofNT+8tIssePvUAS76N1QtMg/iqWxiu7+5S2sbaW5nf7iRIzM3/AaAGsadGJJXWONWd2baqr96vZPh1+zT8S/FqxXN3YLoNi/wDy1v8A5JNv94J96vrX4MfATwV8OFF7DanVdZIw19doDs/65r/B/OgD53+Af7MWseJfs+u+OVn0jR/vJZbdtzcL/tf3F/8AHq+z/C/h7RvDeiwaPoVhBY2Nuu2OKJNq/X3PvWuqqvSnUAFFFFABRRRQAUUUUAFFFFABRRRQAUUUUAFFFFABRRRQAUUUUAFFFFABRRRQAUUUUAFFFFAEU0aSxmORFdG4ZWXINeeeLPgj8LfE8ss+q+D9O+0Sfemtl8hy397Kbfmr0iigD5u1j9jr4YXbmSz1HxJp5/uJdROi/wDfSbv/AB6sG4/Yo8Lk/uPG2tRj/btom/wr6vooA+UI/wBifwqpG/xtrLD+6LaJauwfsWfD8H/SfE/iiT/rnJAn/tI19Q0tAHztpv7HvwltGBnl8RX3tcXqDP8A3wi12Gjfs6/B3SsND4Jsrlh0a6keb9GbFesUtAGZo2g6LolusGi6TY6bEowEtLZIl/8AHRWltpaKACiiigAooooAKKKKACikpaACiiigAooooAKKKKACiiigAooooAKKKKACiiigAooooAKKKKACikpaACikpaACiiigAooooAKKKKACiiigAopKWgAooooAKKKKACiiigAooooAKKKKACiiigAooooAKKKKACiiigAopKWgAopKWgAooooAKKKKACiiigAooooAKKSloAKKKKACiiigAooooAKTbS0UAYviDwr4b8RwNBr+gaXqiN1F3apL/wChCvOdb/Zt+DOpqxbwdDaMf4rSaSL/ANmxXsFFAHzbf/sbfC24cvb6l4ntP9mO8iZf/Hoi361kTfsU+Dd2YPGOvx/78cTf+gqtfVNFAHykn7FHhMff8aa23+7BEtaVn+xh8OIyPtXiHxTP/srPAg/9FGvpuigDxHQf2Xfg7pRXfoF1qRH8V7eO+f8AvnaK9L8L+CvCXhePZ4e8N6VpefvG2tERm+rYya6OigBNtLRRQAUUlLQAUUlLQAUUUUAFFFFABRRRQAUUUUAFFJS0AFFFFABRRRQAUUUUAFFFFABRRRQAUUUUAFFFFABRRRQAUUUUAFFFFABRRRQAUUUUAFFFFABRRRQAUUUUAFFFFABRRRQAUUUUAFFFFABRRRQAUUUUAFFFFABRRRQAUUUUAFFFFABRRRQAUUUUAFFFFABRRRQAUUUUAFFFFABRRRQAUUUUAFFFFABRRRQAUUUUAFFFFABRRRQAUUUUAFFFFABRRRQAUUUUAFFFFABRRRQAUUUUAFFFFABRRRQAUUUUAFFFFABRRRQAUUUUAFFFFABRRRQAUUUUAFFFFABRRRQAUUUUAFFFFABRRRQAUUUUAFFFFABRRRQAUUUUAFFFFABRRRQAUUUUAFFFFABRRRQAUUUUAFFFFABRRRQAUUUUAFFFFABRRRQAUUUUAFFFFABRRRQAUUUUAFFFFABRRRQAUUUUAFFFFABRRRQAUUUUAFFFFABRRRQAUUUUAFFFFABRRRQAUUUUAFFFFABRRRQAUUUUAFFFFABRRRQAUUUUAFFFFABRRRQAUUUUAFFFFABRRRQAUUUUAFFFFABRRRQAUUUUAFFFFABRRRQAUUUUAFFFFABRRRQAUUUUAFFFFABRRRQAUUUUAFFFFABRRRQAUUUUAFFFFABRRRQAUUUUAFFFFABRRRQAUUUUAFFFFABRRRQAUUUUAFFFFABRRRQAUUUUAFFFFABRRRQAUUUUAFFFFABRRRQAUUUUAFFFFABRRRQAUUUUAFFFFABRRRQAUUUUAFFFFABRRRQAUUUUAFFFFABRRRQAUUUUAFFFFABRRRQAUUUUAFFFFABRRRQAUUUUAFFFFABRRRQAUUUUAFFFFABRRRQAUUUUAFFFFABRRRQAUUUUAFFFFABRRRQAUUUUAFFFFABRRRQAUUUUAFFFFABRRRQAUUUUAFFFFABRRRQAUUUUAFFFFABRRRQAUUUUAFFFFABRRRQAUUUUAFFFFABRRRQAUUUUAFFFFABRRRQAUUUUAFFFFABRRRQAUUUUAFFFFABRRRQAUUUUAFFJRQAtFJRQAtFJRQAtFJRQAtFJRQAtFJRQAtFJRQAtFJRQAtFJRQAtFJRQAtFJRQAtFJRQAtFJRQAtFJRQAtFJRQAtFJRQAtFJRQAtFJRQAtFJRQAtFJRQAtFJRQAtFJRQAtFJRQAtFJRQAtFJRQAtFJRQAtFJRQAtFJRQAtFJRQAtFJRQAtFJRQAtFJRQAtFJRQAtFJRQAtFJRQAtFJRQAtFJRQAtFJRQAtFJRQAtFJRQAtFJRQAtFJRQAtFJRQAtFJRQAtFJRQAtFJRQAtFJRQAtFJRQAtFJRQAtFJRQAtFJRQAtFJRQAtFJRQAtFJRQAtFJRQAtFJRQAtFJRQAtFJRQAtFJRQAtFJRQAtFJRQAtFJRQAtFJRQAtFJRQB//Z;connectable=0;allowArrows=0;" vertex="1" parent="1">
          <mxGeometry x="330" y="200" width="1020" height="680" as="geometry" />
        </mxCell>
        <mxCell id="i5l2RaEDFwldCkN0Oizk-80" value="" style="endArrow=classic;html=1;rounded=0;strokeColor=#FF6666;strokeWidth=3;" edge="1" parent="1" source="i5l2RaEDFwldCkN0Oizk-83">
          <mxGeometry width="50" height="50" relative="1" as="geometry">
            <mxPoint x="390" y="233.9655172413793" as="sourcePoint" />
            <mxPoint x="570" y="270" as="targetPoint" />
          </mxGeometry>
        </mxCell>
        <mxCell id="i5l2RaEDFwldCkN0Oizk-83" value="ZAMYKANIE CHWYTAKA" style="text;html=1;strokeColor=none;fillColor=none;align=center;verticalAlign=middle;whiteSpace=wrap;rounded=0;fontColor=#FFFFFF;fontSize=18;" vertex="1" parent="1">
          <mxGeometry x="450" y="140" width="230" height="40" as="geometry" />
        </mxCell>
        <mxCell id="i5l2RaEDFwldCkN0Oizk-84" value="" style="endArrow=classic;html=1;rounded=0;strokeColor=#FF6666;strokeWidth=3;movable=1;resizable=1;rotatable=1;deletable=1;editable=1;locked=0;connectable=1;" edge="1" parent="1" source="i5l2RaEDFwldCkN0Oizk-85">
          <mxGeometry width="50" height="50" relative="1" as="geometry">
            <mxPoint x="1480" y="163.9655172413793" as="sourcePoint" />
            <mxPoint x="1100" y="270" as="targetPoint" />
          </mxGeometry>
        </mxCell>
        <mxCell id="i5l2RaEDFwldCkN0Oizk-85" value="OTWIERANIE CHWYTAKA" style="text;html=1;strokeColor=none;fillColor=none;align=center;verticalAlign=middle;whiteSpace=wrap;rounded=0;fontColor=#FFFFFF;fontSize=18;movable=1;resizable=1;rotatable=1;deletable=1;editable=1;locked=0;connectable=1;" vertex="1" parent="1">
          <mxGeometry x="1010" y="140" width="230" height="40" as="geometry" />
        </mxCell>
        <mxCell id="i5l2RaEDFwldCkN0Oizk-86" value="" style="endArrow=classic;html=1;rounded=0;strokeColor=#FF6666;strokeWidth=3;" edge="1" parent="1" source="i5l2RaEDFwldCkN0Oizk-87">
          <mxGeometry width="50" height="50" relative="1" as="geometry">
            <mxPoint x="370" y="273.9655172413793" as="sourcePoint" />
            <mxPoint x="490" y="330" as="targetPoint" />
          </mxGeometry>
        </mxCell>
        <mxCell id="i5l2RaEDFwldCkN0Oizk-87" value="POZYCJA DOMYŚLNA" style="text;html=1;strokeColor=none;fillColor=none;align=center;verticalAlign=middle;whiteSpace=wrap;rounded=0;fontColor=#FFFFFF;fontSize=18;" vertex="1" parent="1">
          <mxGeometry x="140" y="230" width="230" height="40" as="geometry" />
        </mxCell>
        <mxCell id="i5l2RaEDFwldCkN0Oizk-88" value="" style="endArrow=classic;html=1;rounded=0;strokeColor=#FF6666;strokeWidth=3;" edge="1" parent="1" source="i5l2RaEDFwldCkN0Oizk-89">
          <mxGeometry width="50" height="50" relative="1" as="geometry">
            <mxPoint x="1400" y="253.9655172413793" as="sourcePoint" />
            <mxPoint x="1180" y="330" as="targetPoint" />
          </mxGeometry>
        </mxCell>
        <mxCell id="i5l2RaEDFwldCkN0Oizk-89" value="POZYCJA POCZĄTKOWA" style="text;html=1;strokeColor=none;fillColor=none;align=center;verticalAlign=middle;whiteSpace=wrap;rounded=0;fontColor=#FFFFFF;fontSize=18;" vertex="1" parent="1">
          <mxGeometry x="1290" y="240" width="230" height="40" as="geometry" />
        </mxCell>
        <mxCell id="i5l2RaEDFwldCkN0Oizk-90" value="" style="endArrow=classic;html=1;rounded=0;strokeColor=#FF6666;strokeWidth=3;" edge="1" parent="1" source="i5l2RaEDFwldCkN0Oizk-91">
          <mxGeometry width="50" height="50" relative="1" as="geometry">
            <mxPoint x="280" y="423.9655172413793" as="sourcePoint" />
            <mxPoint x="520" y="490" as="targetPoint" />
          </mxGeometry>
        </mxCell>
        <mxCell id="i5l2RaEDFwldCkN0Oizk-91" value="OBRÓT PODSTAWĄ W LEWO" style="text;html=1;strokeColor=none;fillColor=none;align=center;verticalAlign=middle;whiteSpace=wrap;rounded=0;fontColor=#FFFFFF;fontSize=18;" vertex="1" parent="1">
          <mxGeometry x="60" y="470" width="230" height="50" as="geometry" />
        </mxCell>
        <mxCell id="i5l2RaEDFwldCkN0Oizk-92" value="" style="endArrow=classic;html=1;rounded=0;strokeColor=#FF6666;strokeWidth=3;" edge="1" parent="1" source="i5l2RaEDFwldCkN0Oizk-93">
          <mxGeometry width="50" height="50" relative="1" as="geometry">
            <mxPoint x="660" y="873.9655172413793" as="sourcePoint" />
            <mxPoint x="620" y="490" as="targetPoint" />
          </mxGeometry>
        </mxCell>
        <mxCell id="i5l2RaEDFwldCkN0Oizk-93" value="OBRÓT PODSTAWĄ W PRAWO" style="text;html=1;strokeColor=none;fillColor=none;align=center;verticalAlign=middle;whiteSpace=wrap;rounded=0;fontColor=#FFFFFF;fontSize=18;" vertex="1" parent="1">
          <mxGeometry x="200" y="850" width="230" height="50" as="geometry" />
        </mxCell>
        <mxCell id="i5l2RaEDFwldCkN0Oizk-94" value="" style="endArrow=classic;html=1;rounded=0;strokeColor=#FF6666;strokeWidth=3;" edge="1" parent="1" source="i5l2RaEDFwldCkN0Oizk-95">
          <mxGeometry width="50" height="50" relative="1" as="geometry">
            <mxPoint x="310" y="583.9655172413793" as="sourcePoint" />
            <mxPoint x="570" y="540" as="targetPoint" />
          </mxGeometry>
        </mxCell>
        <mxCell id="i5l2RaEDFwldCkN0Oizk-95" value="PIERWSZY PRZEGUB W DÓŁ" style="text;html=1;strokeColor=none;fillColor=none;align=center;verticalAlign=middle;whiteSpace=wrap;rounded=0;fontColor=#FFFFFF;fontSize=18;" vertex="1" parent="1">
          <mxGeometry x="60" y="610" width="230" height="50" as="geometry" />
        </mxCell>
        <mxCell id="i5l2RaEDFwldCkN0Oizk-96" value="" style="endArrow=classic;html=1;rounded=0;strokeColor=#FF6666;strokeWidth=3;" edge="1" parent="1" source="i5l2RaEDFwldCkN0Oizk-97">
          <mxGeometry width="50" height="50" relative="1" as="geometry">
            <mxPoint x="280" y="333.9655172413793" as="sourcePoint" />
            <mxPoint x="570" y="440" as="targetPoint" />
          </mxGeometry>
        </mxCell>
        <mxCell id="i5l2RaEDFwldCkN0Oizk-97" value="PIERWSZY PRZEGUB W GÓRĘ" style="text;html=1;strokeColor=none;fillColor=none;align=center;verticalAlign=middle;whiteSpace=wrap;rounded=0;fontColor=#FFFFFF;fontSize=18;" vertex="1" parent="1">
          <mxGeometry x="60" y="340" width="230" height="50" as="geometry" />
        </mxCell>
        <mxCell id="i5l2RaEDFwldCkN0Oizk-98" value="" style="endArrow=classic;html=1;rounded=0;strokeColor=#FF6666;strokeWidth=3;" edge="1" parent="1" source="i5l2RaEDFwldCkN0Oizk-99">
          <mxGeometry width="50" height="50" relative="1" as="geometry">
            <mxPoint x="1130" y="773.9655172413793" as="sourcePoint" />
            <mxPoint x="1110" y="560" as="targetPoint" />
          </mxGeometry>
        </mxCell>
        <mxCell id="i5l2RaEDFwldCkN0Oizk-99" value="OBRÓT CHWYTAKA W LEWO" style="text;html=1;strokeColor=none;fillColor=none;align=center;verticalAlign=middle;whiteSpace=wrap;rounded=0;fontColor=#FFFFFF;fontSize=18;" vertex="1" parent="1">
          <mxGeometry x="1330" y="780" width="230" height="50" as="geometry" />
        </mxCell>
        <mxCell id="i5l2RaEDFwldCkN0Oizk-100" value="" style="endArrow=classic;html=1;rounded=0;strokeColor=#FF6666;strokeWidth=3;" edge="1" parent="1" source="i5l2RaEDFwldCkN0Oizk-101">
          <mxGeometry width="50" height="50" relative="1" as="geometry">
            <mxPoint x="1570" y="483.9655172413793" as="sourcePoint" />
            <mxPoint x="1180" y="490" as="targetPoint" />
          </mxGeometry>
        </mxCell>
        <mxCell id="i5l2RaEDFwldCkN0Oizk-101" value="DRUGI PRZEGUB W GÓRĘ" style="text;html=1;strokeColor=none;fillColor=none;align=center;verticalAlign=middle;whiteSpace=wrap;rounded=0;fontColor=#FFFFFF;fontSize=18;" vertex="1" parent="1">
          <mxGeometry x="1350" y="480" width="230" height="50" as="geometry" />
        </mxCell>
        <mxCell id="i5l2RaEDFwldCkN0Oizk-102" value="" style="endArrow=classic;html=1;rounded=0;strokeColor=#FF6666;strokeWidth=3;" edge="1" parent="1" source="i5l2RaEDFwldCkN0Oizk-103">
          <mxGeometry width="50" height="50" relative="1" as="geometry">
            <mxPoint x="1550" y="353.9655172413793" as="sourcePoint" />
            <mxPoint x="1110" y="420" as="targetPoint" />
          </mxGeometry>
        </mxCell>
        <mxCell id="i5l2RaEDFwldCkN0Oizk-103" value="OBRÓT CHWYTAKA W PRAWO" style="text;html=1;strokeColor=none;fillColor=none;align=center;verticalAlign=middle;whiteSpace=wrap;rounded=0;fontColor=#FFFFFF;fontSize=18;" vertex="1" parent="1">
          <mxGeometry x="1330" y="390" width="230" height="50" as="geometry" />
        </mxCell>
        <mxCell id="i5l2RaEDFwldCkN0Oizk-104" value="" style="endArrow=classic;html=1;rounded=0;strokeColor=#FF6666;strokeWidth=3;" edge="1" parent="1" source="i5l2RaEDFwldCkN0Oizk-105">
          <mxGeometry width="50" height="50" relative="1" as="geometry">
            <mxPoint x="890" y="733.9655172413793" as="sourcePoint" />
            <mxPoint x="1030" y="490" as="targetPoint" />
          </mxGeometry>
        </mxCell>
        <mxCell id="i5l2RaEDFwldCkN0Oizk-105" value="DRUGI PRZEGUB W DÓŁ" style="text;html=1;strokeColor=none;fillColor=none;align=center;verticalAlign=middle;whiteSpace=wrap;rounded=0;fontColor=#FFFFFF;fontSize=18;" vertex="1" parent="1">
          <mxGeometry x="1040" y="860" width="230" height="50" as="geometry" />
        </mxCell>
        <mxCell id="i5l2RaEDFwldCkN0Oizk-106" value="" style="endArrow=classic;html=1;rounded=0;strokeColor=#FF6666;strokeWidth=3;" edge="1" parent="1" source="i5l2RaEDFwldCkN0Oizk-107">
          <mxGeometry width="50" height="50" relative="1" as="geometry">
            <mxPoint x="830" y="883.9655172413793" as="sourcePoint" />
            <mxPoint x="650" y="620" as="targetPoint" />
          </mxGeometry>
        </mxCell>
        <mxCell id="i5l2RaEDFwldCkN0Oizk-107" value="OBRÓT ROBOTA W LEWO" style="text;html=1;strokeColor=none;fillColor=none;align=center;verticalAlign=middle;whiteSpace=wrap;rounded=0;fontColor=#FFFFFF;fontSize=18;" vertex="1" parent="1">
          <mxGeometry x="470" y="820" width="230" height="50" as="geometry" />
        </mxCell>
        <mxCell id="i5l2RaEDFwldCkN0Oizk-108" value="" style="endArrow=classic;html=1;rounded=0;strokeColor=#FF6666;strokeWidth=3;" edge="1" parent="1" source="i5l2RaEDFwldCkN0Oizk-109">
          <mxGeometry width="50" height="50" relative="1" as="geometry">
            <mxPoint x="980" y="953.9655172413793" as="sourcePoint" />
            <mxPoint x="750" y="620" as="targetPoint" />
          </mxGeometry>
        </mxCell>
        <mxCell id="i5l2RaEDFwldCkN0Oizk-109" value="OBRÓT ROBOTA W PRAWO" style="text;html=1;strokeColor=none;fillColor=none;align=center;verticalAlign=middle;whiteSpace=wrap;rounded=0;fontColor=#FFFFFF;fontSize=18;" vertex="1" parent="1">
          <mxGeometry x="640" y="880" width="230" height="50" as="geometry" />
        </mxCell>
        <mxCell id="i5l2RaEDFwldCkN0Oizk-110" value="" style="endArrow=classic;html=1;rounded=0;strokeColor=#FF6666;strokeWidth=3;" edge="1" parent="1" source="i5l2RaEDFwldCkN0Oizk-111">
          <mxGeometry width="50" height="50" relative="1" as="geometry">
            <mxPoint x="370" y="513.9655172413793" as="sourcePoint" />
            <mxPoint x="980" y="570" as="targetPoint" />
          </mxGeometry>
        </mxCell>
        <mxCell id="i5l2RaEDFwldCkN0Oizk-111" value="JAZDA DO PRZODU" style="text;html=1;strokeColor=none;fillColor=none;align=center;verticalAlign=middle;whiteSpace=wrap;rounded=0;fontColor=#FFFFFF;fontSize=18;" vertex="1" parent="1">
          <mxGeometry x="770" y="760" width="230" height="50" as="geometry" />
        </mxCell>
        <mxCell id="i5l2RaEDFwldCkN0Oizk-112" value="" style="endArrow=classic;html=1;rounded=0;strokeColor=#FF6666;strokeWidth=3;" edge="1" parent="1" source="i5l2RaEDFwldCkN0Oizk-113">
          <mxGeometry width="50" height="50" relative="1" as="geometry">
            <mxPoint x="1000" y="913.9655172413793" as="sourcePoint" />
            <mxPoint x="980" y="670" as="targetPoint" />
          </mxGeometry>
        </mxCell>
        <mxCell id="i5l2RaEDFwldCkN0Oizk-113" value="JAZDA DO TYŁU" style="text;html=1;strokeColor=none;fillColor=none;align=center;verticalAlign=middle;whiteSpace=wrap;rounded=0;fontColor=#FFFFFF;fontSize=18;" vertex="1" parent="1">
          <mxGeometry x="890" y="920" width="230" height="50" as="geometry" />
        </mxCell>
      </root>
    </mxGraphModel>
  </diagram>
</mxfile>
